EkkamaiVibe-Bold.ufo
<glyph name="exclam" format="2">
  <advance width="237"/>
  <unicode hex="0021"/>
  <outline>
    <contour>
      <point x="156" y="783" type="line"/>
      <point x="156" y="135" type="line"/>
      <point x="80" y="135" type="line"/>
      <point x="80" y="783" type="line"/>
    </contour>
    <contour>
      <point x="167" y="95" type="line"/>
      <point x="167" y="0" type="line"/>
      <point x="71" y="0" type="line"/>
      <point x="71" y="95" type="line"/>
    </contour>
  </outline>
</glyph>
<glyph name="quotedbl" format="2">
  <advance width="285"/>
  <unicode hex="0022"/>
  <outline>
    <contour>
      <point x="153" y="678" type="line"/>
      <point x="225" y="678" type="line"/>
      <point x="225" y="526" type="line"/>
      <point x="153" y="526" type="line"/>
    </contour>
    <contour>
      <point x="30" y="678" type="line"/>
      <point x="101" y="678" type="line"/>
      <point x="101" y="526" type="line"/>
      <point x="30" y="526" type="line"/>
    </contour>
  </outline>
</glyph>
<glyph name="numbersign" format="2">
  <advance width="744"/>
  <unicode hex="0023"/>
  <outline>
    <contour>
      <point x="23" y="203" type="line"/>
      <point x="50" y="279" type="line"/>
      <point x="162" y="279" type="line"/>
      <point x="227" y="467" type="line"/>
      <point x="115" y="467" type="line"/>
      <point x="141" y="543" type="line"/>
      <point x="253" y="543" type="line"/>
      <point x="310" y="702" type="line"/>
      <point x="389" y="702" type="line"/>
      <point x="334" y="543" type="line"/>
      <point x="539" y="543" type="line"/>
      <point x="595" y="701" type="line"/>
      <point x="674" y="701" type="line"/>
      <point x="620" y="543" type="line"/>
      <point x="738" y="543" type="line"/>
      <point x="711" y="467" type="line"/>
      <point x="594" y="467" type="line"/>
      <point x="527" y="279" type="line"/>
      <point x="645" y="279" type="line"/>
      <point x="620" y="203" type="line"/>
      <point x="501" y="203" type="line"/>
      <point x="430" y="0" type="line"/>
      <point x="351" y="0" type="line"/>
      <point x="421" y="203" type="line"/>
      <point x="216" y="203" type="line"/>
      <point x="144" y="0" type="line"/>
      <point x="65" y="0" type="line"/>
      <point x="135" y="203" type="line"/>
    </contour>
    <contour>
      <point x="241" y="279" type="line"/>
      <point x="448" y="279" type="line"/>
      <point x="512" y="467" type="line"/>
      <point x="308" y="467" type="line"/>
    </contour>
  </outline>
</glyph>
<glyph name="dollar" format="2">
  <advance width="643"/>
  <unicode hex="0024"/>
  <outline>
    <contour>
      <point x="97" y="153" type="line"/>
      <point x="133" y="118"/>
      <point x="234" y="93"/>
      <point x="283" y="93" type="qcurve" smooth="yes"/>
      <point x="322" y="93"/>
      <point x="406" y="103"/>
      <point x="475" y="136"/>
      <point x="520" y="197"/>
      <point x="520" y="247" type="qcurve" smooth="yes"/>
      <point x="520" y="278"/>
      <point x="504" y="310" type="qcurve"/>
      <point x="487" y="340"/>
      <point x="454" y="347" type="qcurve" smooth="yes"/>
      <point x="421" y="355"/>
      <point x="355" y="370"/>
      <point x="322" y="378" type="qcurve" smooth="yes"/>
      <point x="282" y="387"/>
      <point x="192" y="411"/>
      <point x="117" y="453"/>
      <point x="68" y="519"/>
      <point x="68" y="571" type="qcurve" smooth="yes"/>
      <point x="68" y="616"/>
      <point x="105" y="683"/>
      <point x="166" y="730"/>
      <point x="243" y="756"/>
      <point x="283" y="760" type="qcurve"/>
      <point x="283" y="836" type="line"/>
      <point x="361" y="836" type="line"/>
      <point x="361" y="762" type="line"/>
      <point x="403" y="760"/>
      <point x="488" y="748"/>
      <point x="526" y="729" type="qcurve" smooth="yes"/>
      <point x="540" y="721"/>
      <point x="561" y="700"/>
      <point x="574" y="692" type="qcurve"/>
      <point x="521" y="638" type="line"/>
      <point x="508" y="655"/>
      <point x="457" y="675"/>
      <point x="400" y="685"/>
      <point x="343" y="688"/>
      <point x="322" y="688" type="qcurve" smooth="yes"/>
      <point x="294" y="688"/>
      <point x="231" y="677"/>
      <point x="178" y="650"/>
      <point x="143" y="604"/>
      <point x="143" y="569" type="qcurve" smooth="yes"/>
      <point x="143" y="538"/>
      <point x="189" y="496"/>
      <point x="260" y="468"/>
      <point x="348" y="449"/>
      <point x="433" y="432"/>
      <point x="505" y="412"/>
      <point x="525" y="396" type="qcurve" smooth="yes"/>
      <point x="559" y="370"/>
      <point x="597" y="289"/>
      <point x="597" y="246" type="qcurve" smooth="yes"/>
      <point x="597" y="194"/>
      <point x="559" y="114"/>
      <point x="494" y="58"/>
      <point x="409" y="26"/>
      <point x="361" y="21" type="qcurve"/>
      <point x="361" y="-61" type="line"/>
      <point x="283" y="-61" type="line"/>
      <point x="283" y="19" type="line"/>
      <point x="248" y="20"/>
      <point x="183" y="26"/>
      <point x="124" y="43"/>
      <point x="68" y="74"/>
      <point x="42" y="99" type="qcurve"/>
    </contour>
  </outline>
</glyph>
<glyph name="percent" format="2">
  <advance width="367"/>
  <unicode hex="0025"/>
  <outline>
    <contour>
      <point x="262" y="225" type="qcurve" smooth="yes"/>
      <point x="262" y="215"/>
      <point x="275" y="215" type="qcurve" smooth="yes"/>
      <point x="279" y="215"/>
      <point x="286" y="222"/>
      <point x="286" y="226" type="qcurve" smooth="yes"/>
      <point x="286" y="237"/>
      <point x="273" y="237" type="qcurve" smooth="yes"/>
      <point x="268" y="237"/>
      <point x="262" y="230"/>
    </contour>
    <contour>
      <point x="274" y="145" type="qcurve" smooth="yes"/>
      <point x="258" y="145"/>
      <point x="228" y="158"/>
      <point x="206" y="179"/>
      <point x="192" y="209"/>
      <point x="192" y="225" type="qcurve" smooth="yes"/>
      <point x="192" y="260"/>
      <point x="239" y="307"/>
      <point x="274" y="307" type="qcurve" smooth="yes"/>
      <point x="309" y="307"/>
      <point x="357" y="260"/>
      <point x="357" y="225" type="qcurve" smooth="yes"/>
      <point x="357" y="191"/>
      <point x="307" y="145"/>
    </contour>
    <contour>
      <point x="80" y="458" type="qcurve" smooth="yes"/>
      <point x="80" y="447"/>
      <point x="93" y="447" type="qcurve" smooth="yes"/>
      <point x="98" y="447"/>
      <point x="104" y="455"/>
      <point x="104" y="460" type="qcurve" smooth="yes"/>
      <point x="104" y="471"/>
      <point x="91" y="471" type="qcurve" smooth="yes"/>
      <point x="86" y="471"/>
      <point x="80" y="463"/>
    </contour>
    <contour>
      <point x="92" y="377" type="qcurve" smooth="yes"/>
      <point x="58" y="377"/>
      <point x="11" y="426"/>
      <point x="11" y="459" type="qcurve" smooth="yes"/>
      <point x="11" y="492"/>
      <point x="58" y="541"/>
      <point x="92" y="541" type="qcurve" smooth="yes"/>
      <point x="126" y="541"/>
      <point x="176" y="494"/>
      <point x="176" y="459" type="qcurve" smooth="yes"/>
      <point x="176" y="424"/>
      <point x="126" y="377"/>
    </contour>
    <contour>
      <point x="339" y="595" type="line"/>
      <point x="93" y="61" type="line"/>
      <point x="28" y="89" type="line"/>
      <point x="275" y="624" type="line"/>
    </contour>
  </outline>
</glyph>
<glyph name="ampersand" format="2">
  <advance width="726"/>
  <unicode hex="0026"/>
  <outline>
    <contour>
      <point x="591" y="19" type="line"/>
      <point x="549" y="69" type="line"/>
      <point x="504" y="29"/>
      <point x="394" y="-7"/>
      <point x="335" y="-7" type="qcurve" smooth="yes"/>
      <point x="288" y="-7"/>
      <point x="199" y="17"/>
      <point x="129" y="66"/>
      <point x="87" y="143"/>
      <point x="87" y="195" type="qcurve" smooth="yes"/>
      <point x="87" y="232"/>
      <point x="112" y="300"/>
      <point x="153" y="360"/>
      <point x="206" y="411"/>
      <point x="235" y="431" type="qcurve"/>
      <point x="217" y="453"/>
      <point x="181" y="491"/>
      <point x="153" y="532"/>
      <point x="136" y="580"/>
      <point x="136" y="611" type="qcurve" smooth="yes"/>
      <point x="136" y="649"/>
      <point x="164" y="714"/>
      <point x="213" y="762"/>
      <point x="279" y="790"/>
      <point x="316" y="790" type="qcurve" smooth="yes"/>
      <point x="354" y="790"/>
      <point x="421" y="763"/>
      <point x="471" y="716"/>
      <point x="500" y="651"/>
      <point x="500" y="612" type="qcurve" smooth="yes"/>
      <point x="500" y="577"/>
      <point x="472" y="521"/>
      <point x="429" y="474"/>
      <point x="375" y="436"/>
      <point x="348" y="419" type="qcurve"/>
      <point x="539" y="196" type="line"/>
      <point x="548" y="221"/>
      <point x="552" y="273"/>
      <point x="552" y="299" type="qcurve"/>
      <point x="628" y="299" type="line"/>
      <point x="628" y="289" type="line" smooth="yes"/>
      <point x="628" y="248"/>
      <point x="613" y="168"/>
      <point x="594" y="132" type="qcurve"/>
      <point x="693" y="20" type="line"/>
    </contour>
    <contour>
      <point x="319" y="715" type="qcurve" smooth="yes"/>
      <point x="297" y="715"/>
      <point x="259" y="698"/>
      <point x="230" y="669"/>
      <point x="213" y="631"/>
      <point x="213" y="609" type="qcurve" smooth="yes"/>
      <point x="213" y="592"/>
      <point x="222" y="568"/>
      <point x="233" y="554" type="qcurve" smooth="yes"/>
      <point x="298" y="476" type="line"/>
      <point x="315" y="489"/>
      <point x="358" y="516"/>
      <point x="397" y="548"/>
      <point x="423" y="587"/>
      <point x="423" y="612" type="qcurve" smooth="yes"/>
      <point x="423" y="633"/>
      <point x="406" y="671"/>
      <point x="378" y="699"/>
      <point x="340" y="715"/>
    </contour>
    <contour>
      <point x="286" y="373" type="line"/>
      <point x="264" y="360"/>
      <point x="220" y="320"/>
      <point x="186" y="273"/>
      <point x="164" y="220"/>
      <point x="164" y="193" type="qcurve" smooth="yes"/>
      <point x="164" y="158"/>
      <point x="194" y="110"/>
      <point x="241" y="81"/>
      <point x="300" y="68"/>
      <point x="330" y="68" type="qcurve" smooth="yes"/>
      <point x="373" y="68"/>
      <point x="466" y="96"/>
      <point x="498" y="126" type="qcurve"/>
    </contour>
  </outline>
</glyph>
<glyph name="quotesingle" format="2">
  <advance width="191"/>
  <unicode hex="0027"/>
  <outline>
    <contour>
      <point x="131" y="526" type="line"/>
      <point x="60" y="526" type="line"/>
      <point x="60" y="678" type="line"/>
      <point x="131" y="678" type="line"/>
    </contour>
  </outline>
</glyph>
<glyph name="parenleft" format="2">
  <advance width="472"/>
  <unicode hex="0028"/>
  <outline>
    <contour>
      <point x="341" y="-147" type="line"/>
      <point x="282" y="-111"/>
      <point x="197" y="4"/>
      <point x="143" y="139"/>
      <point x="117" y="284"/>
      <point x="117" y="350" type="qcurve" smooth="yes"/>
      <point x="117" y="415"/>
      <point x="143" y="560"/>
      <point x="198" y="696"/>
      <point x="283" y="812"/>
      <point x="341" y="848" type="qcurve"/>
      <point x="383" y="785" type="line"/>
      <point x="363" y="775"/>
      <point x="333" y="746"/>
      <point x="319" y="730" type="qcurve" smooth="yes"/>
      <point x="253" y="652"/>
      <point x="194" y="456"/>
      <point x="194" y="356" type="qcurve" smooth="yes"/>
      <point x="194" y="250"/>
      <point x="249" y="60"/>
      <point x="315" y="-25" type="qcurve" smooth="yes"/>
      <point x="327" y="-41"/>
      <point x="365" y="-77"/>
      <point x="383" y="-85" type="qcurve"/>
    </contour>
  </outline>
</glyph>
<glyph name="parenright" format="2">
  <advance width="523"/>
  <unicode hex="0029"/>
  <outline>
    <contour>
      <point x="160" y="848" type="line"/>
      <point x="218" y="813"/>
      <point x="302" y="699"/>
      <point x="357" y="565"/>
      <point x="383" y="423"/>
      <point x="383" y="358" type="qcurve" smooth="yes"/>
      <point x="383" y="291"/>
      <point x="358" y="145"/>
      <point x="305" y="8"/>
      <point x="220" y="-109"/>
      <point x="160" y="-147" type="qcurve"/>
      <point x="117" y="-84" type="line"/>
      <point x="142" y="-72"/>
      <point x="180" y="-32"/>
      <point x="196" y="-10" type="qcurve" smooth="yes"/>
      <point x="255" y="73"/>
      <point x="307" y="245"/>
      <point x="307" y="347" type="qcurve" smooth="yes"/>
      <point x="307" y="453"/>
      <point x="251" y="641"/>
      <point x="186" y="726" type="qcurve" smooth="yes"/>
      <point x="172" y="744"/>
      <point x="138" y="776"/>
      <point x="117" y="786" type="qcurve"/>
    </contour>
  </outline>
</glyph>
<glyph name="asterisk" format="2">
  <advance width="474"/>
  <unicode hex="002A"/>
  <outline>
    <contour>
      <point x="425" y="560" type="line"/>
      <point x="298" y="520" type="line"/>
      <point x="377" y="413" type="line"/>
      <point x="316" y="367" type="line"/>
      <point x="236" y="477" type="line"/>
      <point x="154" y="367" type="line"/>
      <point x="94" y="413" type="line"/>
      <point x="172" y="520" type="line"/>
      <point x="45" y="560" type="line"/>
      <point x="67" y="632" type="line"/>
      <point x="197" y="592" type="line"/>
      <point x="197" y="726" type="line"/>
      <point x="273" y="726" type="line"/>
      <point x="273" y="592" type="line"/>
      <point x="403" y="632" type="line"/>
    </contour>
  </outline>
</glyph>
<glyph name="plus" format="2">
  <advance width="453"/>
  <unicode hex="002B"/>
  <outline>
    <contour>
      <point x="190" y="360" type="line"/>
      <point x="190" y="489" type="line"/>
      <point x="262" y="489" type="line"/>
      <point x="262" y="360" type="line"/>
      <point x="393" y="360" type="line"/>
      <point x="393" y="290" type="line"/>
      <point x="262" y="290" type="line"/>
      <point x="262" y="160" type="line"/>
      <point x="190" y="160" type="line"/>
      <point x="190" y="290" type="line"/>
      <point x="60" y="290" type="line"/>
      <point x="60" y="360" type="line"/>
    </contour>
  </outline>
</glyph>
<glyph name="comma" format="2">
  <advance width="220"/>
  <unicode hex="002C"/>
  <outline>
    <contour>
      <point x="111" y="107" type="line"/>
      <point x="128" y="90"/>
      <point x="149" y="59"/>
      <point x="163" y="25"/>
      <point x="168" y="-13"/>
      <point x="168" y="-37" type="qcurve" smooth="yes"/>
      <point x="168" y="-63"/>
      <point x="161" y="-112"/>
      <point x="156" y="-138" type="qcurve"/>
      <point x="81" y="-130" type="line"/>
      <point x="85" y="-106"/>
      <point x="92" y="-61"/>
      <point x="92" y="-36" type="qcurve" smooth="yes"/>
      <point x="92" y="-10"/>
      <point x="78" y="38"/>
      <point x="55" y="55" type="qcurve"/>
    </contour>
  </outline>
</glyph>
<glyph name="hyphen" format="2">
  <advance width="485"/>
  <unicode hex="002D"/>
  <outline>
    <contour>
      <point x="60" y="249" type="line"/>
      <point x="60" y="319" type="line"/>
      <point x="425" y="319" type="line"/>
      <point x="425" y="249" type="line"/>
    </contour>
  </outline>
</glyph>
<glyph name="period" format="2">
  <advance width="214"/>
  <unicode hex="002E"/>
  <outline>
    <contour>
      <point x="60" y="46" type="qcurve" smooth="yes"/>
      <point x="60" y="66"/>
      <point x="88" y="93"/>
      <point x="108" y="93" type="qcurve" smooth="yes"/>
      <point x="128" y="93"/>
      <point x="154" y="66"/>
      <point x="154" y="46" type="qcurve" smooth="yes"/>
      <point x="154" y="26"/>
      <point x="128" y="0"/>
      <point x="108" y="0" type="qcurve" smooth="yes"/>
      <point x="88" y="0"/>
      <point x="60" y="26"/>
    </contour>
  </outline>
</glyph>
<glyph name="slash" format="2">
  <advance width="403"/>
  <unicode hex="002F"/>
  <outline>
    <contour>
      <point x="301" y="783" type="line"/>
      <point x="381" y="783" type="line"/>
      <point x="107" y="0" type="line"/>
      <point x="28" y="0" type="line"/>
    </contour>
  </outline>
</glyph>
<glyph name="zero" format="2">
  <advance width="680"/>
  <unicode hex="0030"/>
  <outline>
    <contour>
      <point x="600" y="187" type="line" smooth="yes"/>
      <point x="600" y="135"/>
      <point x="551" y="60"/>
      <point x="474" y="13"/>
      <point x="381" y="-9"/>
      <point x="336" y="-9" type="qcurve" smooth="yes"/>
      <point x="293" y="-9"/>
      <point x="202" y="15"/>
      <point x="127" y="63"/>
      <point x="80" y="137"/>
      <point x="80" y="188" type="qcurve" smooth="yes"/>
      <point x="80" y="596" type="line" smooth="yes"/>
      <point x="80" y="615"/>
      <point x="90" y="652"/>
      <point x="98" y="669" type="qcurve" smooth="yes"/>
      <point x="114" y="703"/>
      <point x="165" y="750"/>
      <point x="228" y="780"/>
      <point x="298" y="793"/>
      <point x="333" y="793" type="qcurve" smooth="yes"/>
      <point x="378" y="793"/>
      <point x="473" y="771"/>
      <point x="550" y="724"/>
      <point x="600" y="649"/>
      <point x="600" y="596" type="qcurve" smooth="yes"/>
    </contour>
    <contour>
      <point x="524" y="596" type="line" smooth="yes"/>
      <point x="524" y="610"/>
      <point x="514" y="636"/>
      <point x="506" y="648" type="qcurve" smooth="yes"/>
      <point x="492" y="669"/>
      <point x="455" y="696"/>
      <point x="411" y="711"/>
      <point x="364" y="717"/>
      <point x="340" y="717" type="qcurve" smooth="yes"/>
      <point x="313" y="717"/>
      <point x="249" y="705"/>
      <point x="194" y="677"/>
      <point x="157" y="631"/>
      <point x="157" y="596" type="qcurve" smooth="yes"/>
      <point x="157" y="188" type="line" smooth="yes"/>
      <point x="157" y="154"/>
      <point x="193" y="108"/>
      <point x="247" y="79"/>
      <point x="311" y="66"/>
      <point x="339" y="66" type="qcurve" smooth="yes"/>
      <point x="368" y="66"/>
      <point x="433" y="77"/>
      <point x="488" y="104"/>
      <point x="524" y="152"/>
      <point x="524" y="188" type="qcurve" smooth="yes"/>
    </contour>
  </outline>
</glyph>
<glyph name="one" format="2">
  <advance width="353"/>
  <unicode hex="0031"/>
  <outline>
    <contour>
      <point x="197" y="667" type="line"/>
      <point x="160" y="640"/>
      <point x="82" y="625"/>
      <point x="37" y="625" type="qcurve"/>
      <point x="37" y="700" type="line"/>
      <point x="63" y="700"/>
      <point x="113" y="704"/>
      <point x="157" y="721"/>
      <point x="191" y="754"/>
      <point x="201" y="783" type="qcurve"/>
      <point x="273" y="783" type="line"/>
      <point x="273" y="0" type="line"/>
      <point x="197" y="0" type="line"/>
    </contour>
  </outline>
</glyph>
<glyph name="two" format="2">
  <advance width="588"/>
  <unicode hex="0032"/>
  <outline>
    <contour>
      <point x="528" y="76" type="line"/>
      <point x="528" y="0" type="line"/>
      <point x="61" y="0" type="line"/>
      <point x="61" y="29"/>
      <point x="60" y="86"/>
      <point x="60" y="115" type="qcurve" smooth="yes"/>
      <point x="60" y="139"/>
      <point x="66" y="161" type="qcurve" smooth="yes"/>
      <point x="72" y="182"/>
      <point x="118" y="238"/>
      <point x="183" y="300"/>
      <point x="260" y="365"/>
      <point x="334" y="426"/>
      <point x="400" y="480"/>
      <point x="420" y="500" type="qcurve" smooth="yes"/>
      <point x="436" y="515"/>
      <point x="444" y="537" type="qcurve"/>
      <point x="449" y="555"/>
      <point x="450" y="590"/>
      <point x="450" y="609" type="qcurve" smooth="yes"/>
      <point x="450" y="638"/>
      <point x="418" y="679"/>
      <point x="370" y="704"/>
      <point x="314" y="715"/>
      <point x="290" y="715" type="qcurve" smooth="yes"/>
      <point x="263" y="715"/>
      <point x="221" y="707"/>
      <point x="183" y="691"/>
      <point x="149" y="664"/>
      <point x="130" y="646" type="qcurve"/>
      <point x="72" y="693" type="line"/>
      <point x="83" y="701"/>
      <point x="100" y="728"/>
      <point x="121" y="742" type="qcurve" smooth="yes"/>
      <point x="159" y="767"/>
      <point x="247" y="790"/>
      <point x="292" y="790" type="qcurve" smooth="yes"/>
      <point x="327" y="790"/>
      <point x="404" y="772"/>
      <point x="470" y="734"/>
      <point x="518" y="676"/>
      <point x="524" y="637" type="qcurve" smooth="yes"/>
      <point x="527" y="618"/>
      <point x="527" y="582"/>
      <point x="527" y="564" type="qcurve" smooth="yes"/>
      <point x="527" y="532"/>
      <point x="497" y="467"/>
      <point x="472" y="446" type="qcurve" smooth="yes"/>
      <point x="234" y="242" type="line" smooth="yes"/>
      <point x="217" y="228"/>
      <point x="183" y="199"/>
      <point x="155" y="167"/>
      <point x="137" y="128"/>
      <point x="137" y="104" type="qcurve" smooth="yes"/>
      <point x="137" y="97"/>
      <point x="138" y="83"/>
      <point x="138" y="76" type="qcurve"/>
    </contour>
  </outline>
</glyph>
<glyph name="three" format="2">
  <advance width="583"/>
  <unicode hex="0033"/>
  <outline>
    <contour>
      <point x="40" y="62" type="qcurve"/>
      <point x="85" y="122" type="line"/>
      <point x="108" y="108"/>
      <point x="148" y="87"/>
      <point x="190" y="73"/>
      <point x="235" y="66"/>
      <point x="263" y="66" type="qcurve" smooth="yes"/>
      <point x="287" y="66"/>
      <point x="347" y="77"/>
      <point x="401" y="103"/>
      <point x="441" y="143"/>
      <point x="445" y="171" type="qcurve" smooth="yes"/>
      <point x="447" y="186"/>
      <point x="446" y="217"/>
      <point x="446" y="232" type="qcurve" smooth="yes"/>
      <point x="446" y="255"/>
      <point x="427" y="294"/>
      <point x="410" y="309" type="qcurve" smooth="yes"/>
      <point x="388" y="329"/>
      <point x="337" y="348"/>
      <point x="283" y="355"/>
      <point x="226" y="354"/>
      <point x="199" y="354" type="qcurve"/>
      <point x="199" y="430" type="line"/>
      <point x="226" y="430"/>
      <point x="285" y="430"/>
      <point x="341" y="439"/>
      <point x="391" y="464"/>
      <point x="410" y="488" type="qcurve" smooth="yes"/>
      <point x="426" y="508"/>
      <point x="426" y="537" type="qcurve" smooth="yes"/>
      <point x="426" y="610" type="line" smooth="yes"/>
      <point x="426" y="639"/>
      <point x="394" y="680"/>
      <point x="346" y="705"/>
      <point x="290" y="716"/>
      <point x="266" y="716" type="qcurve" smooth="yes"/>
      <point x="217" y="716"/>
      <point x="151" y="688"/>
      <point x="116" y="655" type="qcurve" smooth="yes"/>
      <point x="114" y="653"/>
      <point x="110" y="650"/>
      <point x="108" y="647" type="qcurve"/>
      <point x="49" y="694" type="line"/>
      <point x="60" y="702"/>
      <point x="78" y="728"/>
      <point x="98" y="742" type="qcurve" smooth="yes"/>
      <point x="136" y="768"/>
      <point x="223" y="791"/>
      <point x="268" y="791" type="qcurve" smooth="yes"/>
      <point x="318" y="791"/>
      <point x="404" y="766"/>
      <point x="468" y="715"/>
      <point x="505" y="636"/>
      <point x="505" y="583" type="qcurve" smooth="yes"/>
      <point x="505" y="552"/>
      <point x="500" y="499"/>
      <point x="482" y="453"/>
      <point x="448" y="412"/>
      <point x="420" y="394" type="qcurve"/>
      <point x="453" y="375"/>
      <point x="494" y="333"/>
      <point x="516" y="282"/>
      <point x="523" y="223"/>
      <point x="523" y="187" type="qcurve" smooth="yes"/>
      <point x="523" y="137"/>
      <point x="474" y="63"/>
      <point x="398" y="15"/>
      <point x="307" y="-9"/>
      <point x="264" y="-9" type="qcurve" smooth="yes"/>
      <point x="140" y="-9"/>
    </contour>
  </outline>
</glyph>
<glyph name="four" format="2">
  <advance width="625"/>
  <unicode hex="0034"/>
  <outline>
    <contour>
      <point x="434" y="782" type="line"/>
      <point x="494" y="782" type="line"/>
      <point x="494" y="217" type="line"/>
      <point x="565" y="217" type="line"/>
      <point x="565" y="141" type="line"/>
      <point x="494" y="141" type="line"/>
      <point x="494" y="0" type="line"/>
      <point x="418" y="0" type="line"/>
      <point x="418" y="141" type="line"/>
      <point x="40" y="141" type="line"/>
      <point x="40" y="197" type="line"/>
    </contour>
    <contour>
      <point x="133" y="217" type="line"/>
      <point x="418" y="217" type="line"/>
      <point x="418" y="632" type="line"/>
    </contour>
  </outline>
</glyph>
<glyph name="five" format="2">
  <advance width="617"/>
  <unicode hex="0035"/>
  <outline>
    <contour>
      <point x="537" y="187" type="line" smooth="yes"/>
      <point x="537" y="138"/>
      <point x="490" y="64"/>
      <point x="416" y="16"/>
      <point x="326" y="-8"/>
      <point x="283" y="-8" type="qcurve" smooth="yes"/>
      <point x="256" y="-8"/>
      <point x="197" y="1"/>
      <point x="139" y="18"/>
      <point x="83" y="42"/>
      <point x="60" y="56" type="qcurve"/>
      <point x="101" y="120" type="line"/>
      <point x="187" y="68"/>
      <point x="285" y="68" type="qcurve" smooth="yes"/>
      <point x="312" y="68"/>
      <point x="373" y="81"/>
      <point x="426" y="109"/>
      <point x="460" y="155"/>
      <point x="460" y="188" type="qcurve" smooth="yes"/>
      <point x="460" y="303" type="line" smooth="yes"/>
      <point x="460" y="317"/>
      <point x="451" y="344"/>
      <point x="443" y="356" type="qcurve" smooth="yes"/>
      <point x="429" y="378"/>
      <point x="391" y="405"/>
      <point x="348" y="420"/>
      <point x="300" y="425"/>
      <point x="276" y="425" type="qcurve" smooth="yes"/>
      <point x="264" y="425"/>
      <point x="226" y="422"/>
      <point x="189" y="413"/>
      <point x="160" y="394"/>
      <point x="158" y="378" type="qcurve"/>
      <point x="86" y="378" type="line"/>
      <point x="86" y="783" type="line"/>
      <point x="519" y="783" type="line"/>
      <point x="519" y="707" type="line"/>
      <point x="162" y="707" type="line"/>
      <point x="162" y="474" type="line"/>
      <point x="192" y="488"/>
      <point x="258" y="500"/>
      <point x="291" y="500" type="qcurve" smooth="yes"/>
      <point x="335" y="500"/>
      <point x="422" y="475"/>
      <point x="493" y="426"/>
      <point x="537" y="352"/>
      <point x="537" y="303" type="qcurve" smooth="yes"/>
    </contour>
  </outline>
</glyph>
<glyph name="six" format="2">
  <advance width="660"/>
  <unicode hex="0036"/>
  <outline>
    <contour>
      <point x="80" y="189" type="qcurve" smooth="yes"/>
      <point x="80" y="585" type="line" smooth="yes"/>
      <point x="80" y="641"/>
      <point x="132" y="720"/>
      <point x="214" y="770"/>
      <point x="314" y="792"/>
      <point x="361" y="792" type="qcurve" smooth="yes"/>
      <point x="418" y="792"/>
      <point x="517" y="761"/>
      <point x="561" y="723" type="qcurve" smooth="yes"/>
      <point x="569" y="717"/>
      <point x="580" y="702"/>
      <point x="587" y="695" type="qcurve"/>
      <point x="588" y="695"/>
      <point x="593" y="689"/>
      <point x="594" y="688" type="qcurve"/>
      <point x="534" y="642" type="line"/>
      <point x="530" y="646" type="line" smooth="yes"/>
      <point x="511" y="668"/>
      <point x="474" y="695"/>
      <point x="434" y="711"/>
      <point x="388" y="717"/>
      <point x="359" y="717" type="qcurve" smooth="yes"/>
      <point x="329" y="717"/>
      <point x="258" y="704"/>
      <point x="197" y="674"/>
      <point x="157" y="623"/>
      <point x="157" y="585" type="qcurve" smooth="yes"/>
      <point x="157" y="450" type="line"/>
      <point x="195" y="479"/>
      <point x="288" y="501"/>
      <point x="336" y="501" type="qcurve" smooth="yes"/>
      <point x="357" y="501"/>
      <point x="399" y="498"/>
      <point x="420" y="494" type="qcurve" smooth="yes"/>
      <point x="454" y="488"/>
      <point x="519" y="455"/>
      <point x="569" y="405"/>
      <point x="600" y="341"/>
      <point x="600" y="304" type="qcurve" smooth="yes"/>
      <point x="600" y="188" type="line" smooth="yes"/>
      <point x="600" y="169"/>
      <point x="589" y="133"/>
      <point x="581" y="116" type="qcurve" smooth="yes"/>
      <point x="564" y="81"/>
      <point x="513" y="33"/>
      <point x="451" y="4"/>
      <point x="380" y="-9"/>
      <point x="343" y="-9" type="qcurve" smooth="yes"/>
      <point x="298" y="-9"/>
      <point x="205" y="14"/>
      <point x="129" y="62"/>
      <point x="80" y="137"/>
    </contour>
    <contour>
      <point x="337" y="68" type="qcurve" smooth="yes"/>
      <point x="366" y="68"/>
      <point x="423" y="78"/>
      <point x="472" y="101"/>
      <point x="510" y="140"/>
      <point x="520" y="170" type="qcurve" smooth="yes"/>
      <point x="522" y="175"/>
      <point x="524" y="184"/>
      <point x="524" y="189" type="qcurve" smooth="yes"/>
      <point x="524" y="304" type="line" smooth="yes"/>
      <point x="524" y="318"/>
      <point x="514" y="345"/>
      <point x="506" y="357" type="qcurve" smooth="yes"/>
      <point x="492" y="379"/>
      <point x="455" y="406"/>
      <point x="412" y="420"/>
      <point x="364" y="425"/>
      <point x="340" y="425" type="qcurve" smooth="yes"/>
      <point x="316" y="425"/>
      <point x="269" y="420"/>
      <point x="226" y="405"/>
      <point x="189" y="378"/>
      <point x="174" y="357" type="qcurve" smooth="yes"/>
      <point x="157" y="332"/>
      <point x="157" y="304" type="qcurve" smooth="yes"/>
      <point x="157" y="189" type="line" smooth="yes"/>
      <point x="157" y="156"/>
      <point x="193" y="109"/>
      <point x="247" y="81"/>
      <point x="310" y="68"/>
    </contour>
  </outline>
</glyph>
<glyph name="seven" format="2">
  <advance width="544"/>
  <unicode hex="0037"/>
  <outline>
    <contour>
      <point x="170" y="0" type="line"/>
      <point x="419" y="706" type="line"/>
      <point x="20" y="706" type="line"/>
      <point x="20" y="783" type="line"/>
      <point x="504" y="783" type="line"/>
      <point x="504" y="716" type="line"/>
      <point x="249" y="0" type="line"/>
    </contour>
  </outline>
</glyph>
<glyph name="eight" format="2">
  <advance width="640"/>
  <unicode hex="0038"/>
  <outline>
    <contour>
      <point x="60" y="233" type="qcurve" smooth="yes"/>
      <point x="60" y="284"/>
      <point x="120" y="368"/>
      <point x="162" y="394" type="qcurve"/>
      <point x="134" y="412"/>
      <point x="101" y="454"/>
      <point x="84" y="501"/>
      <point x="79" y="555"/>
      <point x="79" y="586" type="qcurve" smooth="yes"/>
      <point x="79" y="638"/>
      <point x="116" y="716"/>
      <point x="180" y="768"/>
      <point x="266" y="794"/>
      <point x="315" y="794" type="qcurve" smooth="yes"/>
      <point x="350" y="794"/>
      <point x="418" y="782"/>
      <point x="478" y="753"/>
      <point x="528" y="708"/>
      <point x="544" y="675" type="qcurve" smooth="yes"/>
      <point x="552" y="659"/>
      <point x="560" y="629"/>
      <point x="560" y="612" type="qcurve" smooth="yes"/>
      <point x="560" y="534" type="line" smooth="yes"/>
      <point x="560" y="491"/>
      <point x="514" y="417"/>
      <point x="479" y="394" type="qcurve"/>
      <point x="521" y="368"/>
      <point x="580" y="285"/>
      <point x="580" y="234" type="qcurve" smooth="yes"/>
      <point x="580" y="187" type="line" smooth="yes"/>
      <point x="580" y="167"/>
      <point x="569" y="130"/>
      <point x="560" y="112" type="qcurve" smooth="yes"/>
      <point x="544" y="79"/>
      <point x="492" y="32"/>
      <point x="430" y="4"/>
      <point x="360" y="-9"/>
      <point x="325" y="-9" type="qcurve" smooth="yes"/>
      <point x="282" y="-9"/>
      <point x="200" y="8"/>
      <point x="131" y="47"/>
      <point x="79" y="109"/>
      <point x="66" y="154" type="qcurve" smooth="yes"/>
      <point x="60" y="174"/>
      <point x="60" y="213"/>
    </contour>
    <contour>
      <point x="504" y="233" type="line" smooth="yes"/>
      <point x="504" y="266"/>
      <point x="471" y="313"/>
      <point x="420" y="343"/>
      <point x="359" y="357"/>
      <point x="331" y="357" type="qcurve" smooth="yes"/>
      <point x="308" y="357"/>
      <point x="261" y="355"/>
      <point x="239" y="347" type="qcurve" smooth="yes"/>
      <point x="220" y="341"/>
      <point x="183" y="320"/>
      <point x="155" y="291"/>
      <point x="137" y="254"/>
      <point x="137" y="233" type="qcurve" smooth="yes"/>
      <point x="137" y="189" type="line" smooth="yes"/>
      <point x="137" y="155"/>
      <point x="174" y="109"/>
      <point x="229" y="80"/>
      <point x="293" y="67"/>
      <point x="320" y="67" type="qcurve" smooth="yes"/>
      <point x="350" y="67"/>
      <point x="405" y="76"/>
      <point x="453" y="100"/>
      <point x="490" y="140"/>
      <point x="500" y="170" type="qcurve" smooth="yes"/>
      <point x="502" y="175"/>
      <point x="504" y="184"/>
      <point x="504" y="189" type="qcurve" smooth="yes"/>
    </contour>
    <contour>
      <point x="341" y="428" type="line" smooth="yes"/>
      <point x="364" y="428"/>
      <point x="414" y="443"/>
      <point x="456" y="471"/>
      <point x="484" y="511"/>
      <point x="484" y="537" type="qcurve" smooth="yes"/>
      <point x="484" y="610" type="line" smooth="yes"/>
      <point x="484" y="641"/>
      <point x="452" y="682"/>
      <point x="403" y="707"/>
      <point x="346" y="717"/>
      <point x="322" y="717" type="qcurve" smooth="yes"/>
      <point x="298" y="717"/>
      <point x="240" y="707"/>
      <point x="190" y="682"/>
      <point x="156" y="641"/>
      <point x="156" y="610" type="qcurve" smooth="yes"/>
      <point x="156" y="537" type="line" smooth="yes"/>
      <point x="156" y="510"/>
      <point x="184" y="470"/>
      <point x="226" y="442"/>
      <point x="276" y="428"/>
      <point x="299" y="428" type="qcurve" smooth="yes"/>
    </contour>
  </outline>
</glyph>
<glyph name="nine" format="2">
  <advance width="660"/>
  <unicode hex="0039"/>
  <outline>
    <contour>
      <point x="60" y="479" type="qcurve" smooth="yes"/>
      <point x="60" y="595" type="line" smooth="yes"/>
      <point x="60" y="614"/>
      <point x="71" y="650"/>
      <point x="79" y="667" type="qcurve" smooth="yes"/>
      <point x="96" y="702"/>
      <point x="147" y="749"/>
      <point x="210" y="779"/>
      <point x="281" y="792"/>
      <point x="317" y="792" type="qcurve" smooth="yes"/>
      <point x="361" y="792"/>
      <point x="455" y="769"/>
      <point x="531" y="721"/>
      <point x="580" y="646"/>
      <point x="580" y="594" type="qcurve" smooth="yes"/>
      <point x="580" y="198" type="line" smooth="yes"/>
      <point x="580" y="141"/>
      <point x="528" y="62"/>
      <point x="446" y="13"/>
      <point x="347" y="-9"/>
      <point x="299" y="-9" type="qcurve" smooth="yes"/>
      <point x="254" y="-9"/>
      <point x="168" y="12"/>
      <point x="130" y="36" type="qcurve" smooth="yes"/>
      <point x="112" y="47"/>
      <point x="87" y="74"/>
      <point x="73" y="88" type="qcurve"/>
      <point x="72" y="88"/>
      <point x="67" y="94"/>
      <point x="66" y="95" type="qcurve"/>
      <point x="128" y="141" type="line"/>
      <point x="163" y="96"/>
      <point x="246" y="66"/>
      <point x="302" y="66" type="qcurve" smooth="yes"/>
      <point x="332" y="66"/>
      <point x="403" y="79"/>
      <point x="464" y="110"/>
      <point x="504" y="161"/>
      <point x="504" y="198" type="qcurve" smooth="yes"/>
      <point x="504" y="334" type="line"/>
      <point x="466" y="305"/>
      <point x="372" y="282"/>
      <point x="324" y="282" type="qcurve" smooth="yes"/>
      <point x="303" y="282"/>
      <point x="262" y="285"/>
      <point x="241" y="289" type="qcurve" smooth="yes"/>
      <point x="206" y="295"/>
      <point x="141" y="328"/>
      <point x="90" y="377"/>
      <point x="60" y="441"/>
    </contour>
    <contour>
      <point x="320" y="358" type="qcurve" smooth="yes"/>
      <point x="371" y="358"/>
      <point x="455" y="383"/>
      <point x="486" y="426" type="qcurve" smooth="yes"/>
      <point x="494" y="438"/>
      <point x="504" y="464"/>
      <point x="504" y="479" type="qcurve" smooth="yes"/>
      <point x="504" y="594" type="line" smooth="yes"/>
      <point x="504" y="624"/>
      <point x="472" y="669"/>
      <point x="423" y="700"/>
      <point x="366" y="715"/>
      <point x="340" y="715" type="qcurve" smooth="yes"/>
      <point x="313" y="715"/>
      <point x="251" y="708"/>
      <point x="195" y="687"/>
      <point x="151" y="649"/>
      <point x="142" y="619" type="qcurve"/>
      <point x="140" y="615"/>
      <point x="136" y="601"/>
      <point x="136" y="597" type="qcurve" smooth="yes"/>
      <point x="136" y="587"/>
      <point x="136" y="544"/>
      <point x="136" y="499"/>
      <point x="139" y="460"/>
      <point x="142" y="452" type="qcurve" smooth="yes"/>
      <point x="152" y="423"/>
      <point x="190" y="387"/>
      <point x="238" y="366"/>
      <point x="293" y="358"/>
    </contour>
  </outline>
</glyph>
<glyph name="colon" format="2">
  <advance width="214"/>
  <unicode hex="003A"/>
  <outline>
    <contour>
      <point x="60" y="454" type="qcurve" smooth="yes"/>
      <point x="60" y="474"/>
      <point x="88" y="500"/>
      <point x="108" y="500" type="qcurve" smooth="yes"/>
      <point x="128" y="500"/>
      <point x="154" y="474"/>
      <point x="154" y="454" type="qcurve" smooth="yes"/>
      <point x="154" y="434"/>
      <point x="128" y="408"/>
      <point x="108" y="408" type="qcurve" smooth="yes"/>
      <point x="88" y="408"/>
      <point x="60" y="434"/>
    </contour>
    <contour>
      <point x="60" y="165" type="qcurve" smooth="yes"/>
      <point x="60" y="185"/>
      <point x="88" y="213"/>
      <point x="108" y="213" type="qcurve" smooth="yes"/>
      <point x="128" y="213"/>
      <point x="154" y="185"/>
      <point x="154" y="165" type="qcurve" smooth="yes"/>
      <point x="154" y="145"/>
      <point x="127" y="119"/>
      <point x="108" y="119" type="qcurve" smooth="yes"/>
      <point x="89" y="119"/>
      <point x="60" y="145"/>
    </contour>
  </outline>
</glyph>
<glyph name="semicolon" format="2">
  <advance width="220"/>
  <unicode hex="003B"/>
  <outline>
    <contour>
      <point x="65" y="454" type="qcurve" smooth="yes"/>
      <point x="65" y="474"/>
      <point x="93" y="500"/>
      <point x="113" y="500" type="qcurve" smooth="yes"/>
      <point x="133" y="500"/>
      <point x="159" y="474"/>
      <point x="159" y="454" type="qcurve" smooth="yes"/>
      <point x="159" y="434"/>
      <point x="133" y="408"/>
      <point x="113" y="408" type="qcurve" smooth="yes"/>
      <point x="93" y="408"/>
      <point x="65" y="434"/>
    </contour>
    <contour>
      <point x="110" y="257" type="line"/>
      <point x="142" y="225"/>
      <point x="167" y="158"/>
      <point x="167" y="113" type="qcurve" smooth="yes"/>
      <point x="167" y="87"/>
      <point x="160" y="38"/>
      <point x="155" y="12" type="qcurve"/>
      <point x="80" y="20" type="line"/>
      <point x="85" y="43"/>
      <point x="91" y="91"/>
      <point x="91" y="114" type="qcurve" smooth="yes"/>
      <point x="91" y="141"/>
      <point x="77" y="188"/>
      <point x="54" y="205" type="qcurve"/>
    </contour>
  </outline>
</glyph>
<glyph name="less" format="2">
  <advance width="403"/>
  <unicode hex="003C"/>
  <outline>
    <contour>
      <point x="60" y="321" type="line"/>
      <point x="293" y="552" type="line"/>
      <point x="343" y="502" type="line"/>
      <point x="158" y="321" type="line"/>
      <point x="343" y="139" type="line"/>
      <point x="293" y="89" type="line"/>
    </contour>
  </outline>
</glyph>
<glyph name="equal" format="2">
  <advance width="453"/>
  <unicode hex="003D"/>
  <outline>
    <contour>
      <point x="60" y="222" type="line"/>
      <point x="60" y="292" type="line"/>
      <point x="393" y="292" type="line"/>
      <point x="393" y="222" type="line"/>
    </contour>
    <contour>
      <point x="393" y="408" type="line"/>
      <point x="393" y="338" type="line"/>
      <point x="60" y="338" type="line"/>
      <point x="60" y="408" type="line"/>
    </contour>
  </outline>
</glyph>
<glyph name="greater" format="2">
  <advance width="403"/>
  <unicode hex="003E"/>
  <outline>
    <contour>
      <point x="343" y="321" type="line"/>
      <point x="110" y="89" type="line"/>
      <point x="60" y="139" type="line"/>
      <point x="245" y="321" type="line"/>
      <point x="60" y="502" type="line"/>
      <point x="110" y="552" type="line"/>
    </contour>
  </outline>
</glyph>
<glyph name="question" format="2">
  <advance width="490"/>
  <unicode hex="003F"/>
  <outline>
    <contour>
      <point x="281" y="95" type="line"/>
      <point x="281" y="0" type="line"/>
      <point x="185" y="0" type="line"/>
      <point x="185" y="95" type="line"/>
    </contour>
    <contour>
      <point x="20" y="564" type="line"/>
      <point x="20" y="576" type="line" smooth="yes"/>
      <point x="20" y="620"/>
      <point x="53" y="697"/>
      <point x="111" y="754"/>
      <point x="188" y="787"/>
      <point x="232" y="787" type="qcurve" smooth="yes"/>
      <point x="277" y="787"/>
      <point x="355" y="755"/>
      <point x="413" y="698"/>
      <point x="447" y="621"/>
      <point x="447" y="576" type="qcurve" smooth="yes"/>
      <point x="447" y="522"/>
      <point x="392" y="434"/>
      <point x="353" y="399" type="qcurve" smooth="yes"/>
      <point x="342" y="389"/>
      <point x="320" y="372"/>
      <point x="311" y="361" type="qcurve" smooth="yes"/>
      <point x="301" y="350"/>
      <point x="288" y="323"/>
      <point x="283" y="309" type="qcurve" smooth="yes"/>
      <point x="268" y="268"/>
      <point x="272" y="180"/>
      <point x="272" y="138" type="qcurve"/>
      <point x="196" y="138" type="line"/>
      <point x="196" y="255" type="line" smooth="yes"/>
      <point x="196" y="303"/>
      <point x="222" y="369"/>
      <point x="260" y="419"/>
      <point x="305" y="457"/>
      <point x="343" y="497"/>
      <point x="369" y="543"/>
      <point x="369" y="576" type="qcurve" smooth="yes"/>
      <point x="369" y="605"/>
      <point x="348" y="654"/>
      <point x="310" y="690"/>
      <point x="261" y="711"/>
      <point x="232" y="711" type="qcurve" smooth="yes"/>
      <point x="200" y="711"/>
      <point x="150" y="688"/>
      <point x="115" y="647"/>
      <point x="97" y="594"/>
      <point x="97" y="564" type="qcurve"/>
    </contour>
  </outline>
</glyph>
<glyph name="at" format="2">
  <advance width="968"/>
  <unicode hex="0040"/>
  <outline>
    <contour>
      <point x="567" y="367" type="line"/>
      <point x="566" y="367" type="line"/>
      <point x="567" y="371"/>
      <point x="567" y="379" type="qcurve" smooth="yes"/>
      <point x="567" y="394"/>
      <point x="546" y="410"/>
      <point x="516" y="419"/>
      <point x="482" y="421"/>
      <point x="468" y="421" type="qcurve" smooth="yes"/>
      <point x="459" y="421"/>
      <point x="435" y="420"/>
      <point x="413" y="416"/>
      <point x="393" y="406"/>
      <point x="388" y="397" type="qcurve"/>
      <point x="332" y="449" type="line"/>
      <point x="342" y="464"/>
      <point x="377" y="483"/>
      <point x="417" y="493"/>
      <point x="459" y="497"/>
      <point x="475" y="497" type="qcurve" smooth="yes"/>
      <point x="507" y="497"/>
      <point x="564" y="487"/>
      <point x="609" y="462"/>
      <point x="639" y="416"/>
      <point x="644" y="380" type="qcurve" smooth="yes"/>
      <point x="649" y="348"/>
      <point x="644" y="282"/>
      <point x="644" y="250" type="qcurve" smooth="yes"/>
      <point x="644" y="202"/>
      <point x="684" y="158"/>
      <point x="733" y="158" type="qcurve" smooth="yes"/>
      <point x="756" y="158"/>
      <point x="785" y="180"/>
      <point x="801" y="213"/>
      <point x="807" y="253"/>
      <point x="807" y="271" type="qcurve" smooth="yes"/>
      <point x="807" y="340"/>
      <point x="759" y="460"/>
      <point x="673" y="548"/>
      <point x="555" y="599"/>
      <point x="485" y="599" type="qcurve" smooth="yes"/>
      <point x="421" y="599"/>
      <point x="306" y="550"/>
      <point x="219" y="465"/>
      <point x="168" y="351"/>
      <point x="168" y="286" type="qcurve" smooth="yes"/>
      <point x="168" y="220"/>
      <point x="218" y="106"/>
      <point x="304" y="20"/>
      <point x="419" y="-29"/>
      <point x="484" y="-29" type="qcurve" smooth="yes"/>
      <point x="522" y="-29"/>
      <point x="607" y="-10"/>
      <point x="640" y="10" type="qcurve"/>
      <point x="644" y="-7"/>
      <point x="663" y="-44"/>
      <point x="673" y="-58" type="qcurve"/>
      <point x="645" y="-67"/>
      <point x="604" y="-84"/>
      <point x="563" y="-97"/>
      <point x="518" y="-105"/>
      <point x="486" y="-105" type="qcurve" smooth="yes"/>
      <point x="406" y="-105"/>
      <point x="262" y="-44"/>
      <point x="154" y="62"/>
      <point x="91" y="204"/>
      <point x="91" y="285" type="qcurve" smooth="yes"/>
      <point x="91" y="367"/>
      <point x="154" y="509"/>
      <point x="262" y="614"/>
      <point x="406" y="675"/>
      <point x="487" y="675" type="qcurve" smooth="yes"/>
      <point x="572" y="675"/>
      <point x="717" y="612"/>
      <point x="823" y="503"/>
      <point x="883" y="356"/>
      <point x="883" y="272" type="qcurve" smooth="yes"/>
      <point x="883" y="235"/>
      <point x="866" y="166"/>
      <point x="829" y="113"/>
      <point x="770" y="82"/>
      <point x="728" y="82" type="qcurve" smooth="yes"/>
      <point x="702" y="82"/>
      <point x="650" y="96"/>
      <point x="627" y="110" type="qcurve"/>
      <point x="588" y="93"/>
      <point x="502" y="66"/>
      <point x="459" y="66" type="qcurve" smooth="yes"/>
      <point x="429" y="66"/>
      <point x="379" y="86"/>
      <point x="343" y="122"/>
      <point x="322" y="172"/>
      <point x="322" y="202" type="qcurve" smooth="yes"/>
      <point x="322" y="255"/>
      <point x="370" y="311"/>
      <point x="442" y="337"/>
      <point x="528" y="340"/>
      <point x="567" y="340" type="qcurve"/>
    </contour>
    <contour>
      <point x="567" y="264" type="qcurve"/>
      <point x="488" y="264" type="line" smooth="yes"/>
      <point x="472" y="264"/>
      <point x="441" y="259"/>
      <point x="416" y="245"/>
      <point x="400" y="221"/>
      <point x="400" y="202" type="qcurve" smooth="yes"/>
      <point x="400" y="174"/>
      <point x="431" y="142"/>
      <point x="459" y="142" type="qcurve" smooth="yes"/>
      <point x="488" y="142"/>
      <point x="553" y="161"/>
      <point x="579" y="173" type="qcurve"/>
      <point x="571" y="195"/>
      <point x="567" y="241"/>
    </contour>
  </outline>
</glyph>
<glyph name="A" format="2">
  <advance width="701"/>
  <unicode hex="0041"/>
  <outline>
    <contour>
      <point x="32" y="0" type="line"/>
      <point x="314" y="783" type="line"/>
      <point x="386" y="783" type="line"/>
      <point x="669" y="0" type="line"/>
      <point x="590" y="0" type="line"/>
      <point x="486" y="288" type="line"/>
      <point x="217" y="288" type="line"/>
      <point x="111" y="0" type="line"/>
    </contour>
    <contour>
      <point x="458" y="364" type="line"/>
      <point x="351" y="669" type="line"/>
      <point x="243" y="364" type="line"/>
    </contour>
  </outline>
</glyph>
<glyph name="B" format="2">
  <advance width="665"/>
  <unicode hex="0042"/>
  <outline>
    <contour>
      <point x="92" y="783" type="line"/>
      <point x="418" y="783" type="line" smooth="yes"/>
      <point x="466" y="783"/>
      <point x="543" y="725"/>
      <point x="563" y="683" type="qcurve" smooth="yes"/>
      <point x="576" y="655"/>
      <point x="585" y="593"/>
      <point x="585" y="563" type="qcurve" smooth="yes"/>
      <point x="585" y="518"/>
      <point x="559" y="434"/>
      <point x="527" y="402" type="qcurve"/>
      <point x="551" y="386"/>
      <point x="584" y="343"/>
      <point x="604" y="294"/>
      <point x="612" y="240"/>
      <point x="612" y="212" type="qcurve" smooth="yes"/>
      <point x="612" y="173"/>
      <point x="592" y="97"/>
      <point x="551" y="37"/>
      <point x="487" y="0"/>
      <point x="443" y="0" type="qcurve" smooth="yes"/>
      <point x="92" y="0" type="line"/>
    </contour>
    <contour>
      <point x="442" y="75" type="line" smooth="yes"/>
      <point x="469" y="75"/>
      <point x="505" y="102"/>
      <point x="527" y="144"/>
      <point x="537" y="193"/>
      <point x="537" y="215" type="qcurve" smooth="yes"/>
      <point x="537" y="236"/>
      <point x="526" y="285"/>
      <point x="504" y="326"/>
      <point x="468" y="353"/>
      <point x="442" y="353" type="qcurve" smooth="yes"/>
      <point x="169" y="353" type="line"/>
      <point x="169" y="75" type="line"/>
    </contour>
    <contour>
      <point x="418" y="430" type="line" smooth="yes"/>
      <point x="443" y="430"/>
      <point x="478" y="458"/>
      <point x="499" y="500"/>
      <point x="509" y="548"/>
      <point x="509" y="568" type="qcurve" smooth="yes"/>
      <point x="509" y="589"/>
      <point x="499" y="637"/>
      <point x="478" y="679"/>
      <point x="443" y="707"/>
      <point x="417" y="707" type="qcurve" smooth="yes"/>
      <point x="169" y="707" type="line"/>
      <point x="169" y="430" type="line"/>
    </contour>
  </outline>
</glyph>
<glyph name="C" format="2">
  <advance width="658"/>
  <unicode hex="0043"/>
  <outline>
    <contour>
      <point x="612" y="114" type="line"/>
      <point x="590" y="78"/>
      <point x="529" y="30"/>
      <point x="459" y="1"/>
      <point x="380" y="-10"/>
      <point x="340" y="-10" type="qcurve" smooth="yes"/>
      <point x="243" y="-10"/>
      <point x="125" y="54"/>
      <point x="62" y="164"/>
      <point x="42" y="309"/>
      <point x="42" y="391" type="qcurve" smooth="yes"/>
      <point x="42" y="473"/>
      <point x="62" y="619"/>
      <point x="125" y="729"/>
      <point x="243" y="793"/>
      <point x="340" y="793" type="qcurve" smooth="yes"/>
      <point x="380" y="793"/>
      <point x="458" y="781"/>
      <point x="530" y="752"/>
      <point x="590" y="705"/>
      <point x="612" y="669" type="qcurve"/>
      <point x="546" y="629" type="line"/>
      <point x="530" y="656"/>
      <point x="484" y="690"/>
      <point x="429" y="710"/>
      <point x="369" y="717"/>
      <point x="340" y="717" type="qcurve" smooth="yes"/>
      <point x="261" y="717"/>
      <point x="172" y="663"/>
      <point x="128" y="572"/>
      <point x="119" y="454"/>
      <point x="119" y="391" type="qcurve" smooth="yes"/>
      <point x="119" y="327"/>
      <point x="128" y="210"/>
      <point x="171" y="120"/>
      <point x="260" y="66"/>
      <point x="340" y="66" type="qcurve" smooth="yes"/>
      <point x="361" y="66"/>
      <point x="426" y="74"/>
      <point x="489" y="95"/>
      <point x="539" y="129"/>
      <point x="545" y="154" type="qcurve"/>
    </contour>
  </outline>
</glyph>
<glyph name="D" format="2">
  <advance width="670"/>
  <unicode hex="0044"/>
  <outline>
    <contour>
      <point x="310" y="0" type="qcurve" smooth="yes"/>
      <point x="72" y="0" type="line"/>
      <point x="72" y="783" type="line"/>
      <point x="310" y="783" type="line" smooth="yes"/>
      <point x="407" y="783"/>
      <point x="525" y="722"/>
      <point x="588" y="616"/>
      <point x="608" y="473"/>
      <point x="608" y="391" type="qcurve" smooth="yes"/>
      <point x="608" y="309"/>
      <point x="588" y="166"/>
      <point x="525" y="61"/>
      <point x="407" y="0"/>
    </contour>
    <contour>
      <point x="310" y="707" type="qcurve" smooth="yes"/>
      <point x="149" y="707" type="line"/>
      <point x="149" y="76" type="line"/>
      <point x="310" y="76" type="line" smooth="yes"/>
      <point x="390" y="76"/>
      <point x="479" y="126"/>
      <point x="522" y="212"/>
      <point x="532" y="327"/>
      <point x="532" y="391" type="qcurve" smooth="yes"/>
      <point x="532" y="455"/>
      <point x="522" y="570"/>
      <point x="478" y="656"/>
      <point x="389" y="707"/>
    </contour>
  </outline>
</glyph>
<glyph name="E" format="2">
  <advance width="638"/>
  <unicode hex="0045"/>
  <outline>
    <contour>
      <point x="92" y="0" type="line"/>
      <point x="92" y="783" type="line"/>
      <point x="586" y="783" type="line"/>
      <point x="586" y="707" type="line"/>
      <point x="169" y="707" type="line"/>
      <point x="169" y="430" type="line"/>
      <point x="554" y="430" type="line"/>
      <point x="554" y="354" type="line"/>
      <point x="169" y="354" type="line"/>
      <point x="169" y="76" type="line"/>
      <point x="586" y="76" type="line"/>
      <point x="586" y="0" type="line"/>
    </contour>
  </outline>
</glyph>
<glyph name="F" format="2">
  <advance width="638"/>
  <unicode hex="0046"/>
  <outline>
    <contour>
      <point x="92" y="0" type="line"/>
      <point x="92" y="783" type="line"/>
      <point x="586" y="783" type="line"/>
      <point x="586" y="707" type="line"/>
      <point x="169" y="707" type="line"/>
      <point x="169" y="430" type="line"/>
      <point x="554" y="430" type="line"/>
      <point x="554" y="354" type="line"/>
      <point x="169" y="354" type="line"/>
      <point x="169" y="0" type="line"/>
    </contour>
  </outline>
</glyph>
<glyph name="G" format="2">
  <advance width="691"/>
  <unicode hex="0047"/>
  <outline>
    <contour>
      <point x="51" y="390" type="qcurve" smooth="yes"/>
      <point x="51" y="473"/>
      <point x="70" y="619"/>
      <point x="132" y="728"/>
      <point x="250" y="791"/>
      <point x="349" y="791" type="qcurve" smooth="yes"/>
      <point x="389" y="791"/>
      <point x="468" y="779"/>
      <point x="538" y="751"/>
      <point x="599" y="703"/>
      <point x="621" y="667" type="qcurve"/>
      <point x="554" y="628" type="line"/>
      <point x="545" y="654"/>
      <point x="496" y="688"/>
      <point x="436" y="708"/>
      <point x="373" y="715"/>
      <point x="349" y="715" type="qcurve" smooth="yes"/>
      <point x="270" y="715"/>
      <point x="181" y="665"/>
      <point x="138" y="579"/>
      <point x="128" y="465"/>
      <point x="128" y="401" type="qcurve" smooth="yes"/>
      <point x="128" y="337"/>
      <point x="135" y="216"/>
      <point x="177" y="122"/>
      <point x="267" y="65"/>
      <point x="349" y="65" type="qcurve" smooth="yes"/>
      <point x="417" y="65"/>
      <point x="501" y="106"/>
      <point x="549" y="178"/>
      <point x="567" y="278"/>
      <point x="568" y="337" type="qcurve"/>
      <point x="330" y="337" type="line"/>
      <point x="330" y="413" type="line"/>
      <point x="647" y="413" type="line"/>
      <point x="647" y="401" type="line" smooth="yes"/>
      <point x="647" y="318"/>
      <point x="629" y="169"/>
      <point x="568" y="56"/>
      <point x="450" y="-11"/>
      <point x="349" y="-11" type="qcurve" smooth="yes"/>
      <point x="252" y="-11"/>
      <point x="134" y="53"/>
      <point x="71" y="163"/>
      <point x="51" y="308"/>
    </contour>
  </outline>
</glyph>
<glyph name="H" format="2">
  <advance width="704"/>
  <unicode hex="0048"/>
  <outline>
    <contour>
      <point x="169" y="783" type="line"/>
      <point x="169" y="430" type="line"/>
      <point x="536" y="430" type="line"/>
      <point x="536" y="783" type="line"/>
      <point x="612" y="783" type="line"/>
      <point x="612" y="0" type="line"/>
      <point x="536" y="0" type="line"/>
      <point x="536" y="354" type="line"/>
      <point x="169" y="354" type="line"/>
      <point x="169" y="0" type="line"/>
      <point x="92" y="0" type="line"/>
      <point x="92" y="783" type="line"/>
    </contour>
  </outline>
</glyph>
<glyph name="I" format="2">
  <advance width="261"/>
  <unicode hex="0049"/>
  <outline>
    <contour>
      <point x="92" y="0" type="line"/>
      <point x="92" y="783" type="line"/>
      <point x="169" y="783" type="line"/>
      <point x="169" y="0" type="line"/>
    </contour>
  </outline>
</glyph>
<glyph name="J" format="2">
  <advance width="406"/>
  <unicode hex="004A"/>
  <outline>
    <contour>
      <point x="314" y="783" type="line"/>
      <point x="314" y="172" type="line" smooth="yes"/>
      <point x="314" y="127"/>
      <point x="276" y="60"/>
      <point x="214" y="16"/>
      <point x="136" y="-6"/>
      <point x="95" y="-6" type="qcurve" smooth="yes"/>
      <point x="68" y="-6"/>
      <point x="14" y="-1"/>
      <point x="-12" y="9" type="qcurve"/>
      <point x="6" y="79" type="line"/>
      <point x="17" y="79" type="line" smooth="yes"/>
      <point x="37" y="79"/>
      <point x="76" y="70"/>
      <point x="96" y="70" type="qcurve" smooth="yes"/>
      <point x="123" y="70"/>
      <point x="174" y="81"/>
      <point x="213" y="107"/>
      <point x="236" y="150"/>
      <point x="236" y="181" type="qcurve" smooth="yes"/>
      <point x="236" y="783" type="line"/>
    </contour>
  </outline>
</glyph>
<glyph name="K" format="2">
  <advance width="686"/>
  <unicode hex="004B"/>
  <outline>
    <contour>
      <point x="92" y="0" type="line"/>
      <point x="92" y="783" type="line"/>
      <point x="169" y="783" type="line"/>
      <point x="169" y="413" type="line"/>
      <point x="545" y="783" type="line"/>
      <point x="654" y="783" type="line"/>
      <point x="308" y="442" type="line"/>
      <point x="645" y="0" type="line"/>
      <point x="549" y="0" type="line"/>
      <point x="254" y="390" type="line"/>
      <point x="169" y="307" type="line"/>
      <point x="169" y="0" type="line"/>
    </contour>
  </outline>
</glyph>
<glyph name="L" format="2">
  <advance width="618"/>
  <unicode hex="004C"/>
  <outline>
    <contour>
      <point x="169" y="783" type="line"/>
      <point x="169" y="76" type="line"/>
      <point x="586" y="76" type="line"/>
      <point x="586" y="0" type="line"/>
      <point x="92" y="0" type="line"/>
      <point x="92" y="783" type="line"/>
    </contour>
  </outline>
</glyph>
<glyph name="M" format="2">
  <advance width="810"/>
  <unicode hex="004D"/>
  <outline>
    <contour>
      <point x="92" y="0" type="line"/>
      <point x="92" y="783" type="line"/>
      <point x="167" y="783" type="line"/>
      <point x="406" y="123" type="line"/>
      <point x="644" y="783" type="line"/>
      <point x="718" y="783" type="line"/>
      <point x="718" y="0" type="line"/>
      <point x="642" y="0" type="line"/>
      <point x="642" y="556" type="line"/>
      <point x="438" y="0" type="line"/>
      <point x="373" y="0" type="line"/>
      <point x="169" y="556" type="line"/>
      <point x="169" y="0" type="line"/>
    </contour>
  </outline>
</glyph>
<glyph name="N" format="2">
  <advance width="704"/>
  <unicode hex="004E"/>
  <outline>
    <contour>
      <point x="169" y="782" type="line"/>
      <point x="536" y="152" type="line"/>
      <point x="536" y="782" type="line"/>
      <point x="612" y="782" type="line"/>
      <point x="612" y="0" type="line"/>
      <point x="535" y="0" type="line"/>
      <point x="169" y="629" type="line"/>
      <point x="169" y="0" type="line"/>
      <point x="92" y="0" type="line"/>
      <point x="92" y="782" type="line"/>
    </contour>
  </outline>
</glyph>
<glyph name="O" format="2">
  <advance width="731"/>
  <unicode hex="004F"/>
  <outline>
    <contour>
      <point x="365" y="793" type="qcurve" smooth="yes"/>
      <point x="462" y="793"/>
      <point x="580" y="728"/>
      <point x="643" y="618"/>
      <point x="663" y="472"/>
      <point x="663" y="391" type="qcurve" smooth="yes"/>
      <point x="663" y="310"/>
      <point x="643" y="164"/>
      <point x="580" y="54"/>
      <point x="463" y="-10"/>
      <point x="365" y="-10" type="qcurve" smooth="yes"/>
      <point x="268" y="-10"/>
      <point x="150" y="54"/>
      <point x="87" y="164"/>
      <point x="67" y="309"/>
      <point x="67" y="391" type="qcurve" smooth="yes"/>
      <point x="67" y="472"/>
      <point x="87" y="618"/>
      <point x="150" y="728"/>
      <point x="268" y="793"/>
    </contour>
    <contour>
      <point x="365" y="717" type="qcurve" smooth="yes"/>
      <point x="286" y="717"/>
      <point x="197" y="663"/>
      <point x="153" y="572"/>
      <point x="144" y="454"/>
      <point x="144" y="391" type="qcurve" smooth="yes"/>
      <point x="144" y="327"/>
      <point x="153" y="210"/>
      <point x="196" y="120"/>
      <point x="285" y="66"/>
      <point x="365" y="66" type="qcurve" smooth="yes"/>
      <point x="445" y="66"/>
      <point x="533" y="120"/>
      <point x="576" y="211"/>
      <point x="585" y="328"/>
      <point x="585" y="391" type="qcurve" smooth="yes"/>
      <point x="585" y="454"/>
      <point x="576" y="572"/>
      <point x="533" y="662"/>
      <point x="444" y="717"/>
    </contour>
  </outline>
</glyph>
<glyph name="P" format="2">
  <advance width="639"/>
  <unicode hex="0050"/>
  <outline>
    <contour>
      <point x="418" y="783" type="line" smooth="yes"/>
      <point x="462" y="783"/>
      <point x="525" y="744"/>
      <point x="566" y="683"/>
      <point x="586" y="606"/>
      <point x="586" y="568" type="qcurve" smooth="yes"/>
      <point x="586" y="515"/>
      <point x="554" y="425"/>
      <point x="512" y="390" type="qcurve" smooth="yes"/>
      <point x="491" y="373"/>
      <point x="446" y="354"/>
      <point x="418" y="354" type="qcurve" smooth="yes"/>
      <point x="169" y="354" type="line"/>
      <point x="169" y="0" type="line"/>
      <point x="92" y="0" type="line"/>
      <point x="92" y="783" type="line"/>
    </contour>
    <contour>
      <point x="169" y="707" type="line"/>
      <point x="169" y="430" type="line"/>
      <point x="418" y="430" type="line" smooth="yes"/>
      <point x="443" y="430"/>
      <point x="478" y="458"/>
      <point x="500" y="500"/>
      <point x="510" y="549"/>
      <point x="510" y="569" type="qcurve" smooth="yes"/>
      <point x="510" y="590"/>
      <point x="500" y="638"/>
      <point x="478" y="680"/>
      <point x="443" y="707"/>
      <point x="417" y="707" type="qcurve" smooth="yes"/>
    </contour>
  </outline>
</glyph>
<glyph name="Q" format="2">
  <advance width="731"/>
  <unicode hex="0051"/>
  <outline>
    <contour>
      <point x="365" y="793" type="qcurve" smooth="yes"/>
      <point x="462" y="793"/>
      <point x="580" y="728"/>
      <point x="643" y="618"/>
      <point x="663" y="472"/>
      <point x="663" y="391" type="qcurve" smooth="yes"/>
      <point x="663" y="350"/>
      <point x="660" y="264"/>
      <point x="644" y="181"/>
      <point x="611" y="103"/>
      <point x="582" y="71" type="qcurve"/>
      <point x="602" y="68"/>
      <point x="641" y="66"/>
      <point x="661" y="66" type="qcurve"/>
      <point x="660" y="62"/>
      <point x="658" y="54"/>
      <point x="659" y="50" type="qcurve"/>
      <point x="658" y="48" type="line"/>
      <point x="658" y="34"/>
      <point x="659" y="4"/>
      <point x="659" y="-10" type="qcurve"/>
      <point x="647" y="-10" type="line" smooth="yes"/>
      <point x="611" y="-10"/>
      <point x="539" y="2"/>
      <point x="506" y="17" type="qcurve"/>
      <point x="473" y="2"/>
      <point x="401" y="-10"/>
      <point x="365" y="-10" type="qcurve" smooth="yes"/>
      <point x="268" y="-10"/>
      <point x="150" y="54"/>
      <point x="87" y="164"/>
      <point x="67" y="309"/>
      <point x="67" y="391" type="qcurve" smooth="yes"/>
      <point x="67" y="472"/>
      <point x="87" y="618"/>
      <point x="150" y="728"/>
      <point x="268" y="793"/>
    </contour>
    <contour>
      <point x="365" y="66" type="qcurve" smooth="yes"/>
      <point x="381" y="66"/>
      <point x="412" y="68"/>
      <point x="427" y="71" type="qcurve"/>
      <point x="413" y="89"/>
      <point x="381" y="142"/>
      <point x="376" y="165" type="qcurve"/>
      <point x="445" y="198" type="line"/>
      <point x="455" y="169"/>
      <point x="481" y="122"/>
      <point x="506" y="102" type="qcurve"/>
      <point x="536" y="127"/>
      <point x="568" y="197"/>
      <point x="583" y="275"/>
      <point x="585" y="355"/>
      <point x="585" y="391" type="qcurve" smooth="yes"/>
      <point x="585" y="454"/>
      <point x="576" y="572"/>
      <point x="533" y="662"/>
      <point x="444" y="717"/>
      <point x="365" y="717" type="qcurve" smooth="yes"/>
      <point x="312" y="717"/>
      <point x="238" y="692"/>
      <point x="189" y="648"/>
      <point x="161" y="586"/>
      <point x="147" y="514"/>
      <point x="144" y="433"/>
      <point x="144" y="391" type="qcurve" smooth="yes"/>
      <point x="144" y="328"/>
      <point x="153" y="210"/>
      <point x="197" y="120"/>
      <point x="286" y="66"/>
    </contour>
  </outline>
</glyph>
<glyph name="R" format="2">
  <advance width="665"/>
  <unicode hex="0052"/>
  <outline>
    <contour>
      <point x="418" y="783" type="line" smooth="yes"/>
      <point x="461" y="783"/>
      <point x="524" y="743"/>
      <point x="566" y="680"/>
      <point x="586" y="603"/>
      <point x="586" y="566" type="qcurve" smooth="yes"/>
      <point x="586" y="539"/>
      <point x="576" y="484"/>
      <point x="555" y="435"/>
      <point x="521" y="393"/>
      <point x="497" y="378" type="qcurve"/>
      <point x="633" y="0" type="line"/>
      <point x="554" y="0" type="line"/>
      <point x="426" y="355" type="line"/>
      <point x="424" y="355" type="line" smooth="yes"/>
      <point x="360" y="355"/>
      <point x="233" y="354"/>
      <point x="169" y="354" type="qcurve"/>
      <point x="169" y="0" type="line"/>
      <point x="92" y="0" type="line"/>
      <point x="92" y="783" type="line"/>
    </contour>
    <contour>
      <point x="169" y="707" type="line"/>
      <point x="169" y="430" type="line"/>
      <point x="417" y="430" type="line" smooth="yes"/>
      <point x="443" y="430"/>
      <point x="478" y="458"/>
      <point x="499" y="499"/>
      <point x="509" y="547"/>
      <point x="509" y="568" type="qcurve" smooth="yes"/>
      <point x="509" y="589"/>
      <point x="499" y="637"/>
      <point x="478" y="679"/>
      <point x="443" y="707"/>
      <point x="417" y="707" type="qcurve" smooth="yes"/>
    </contour>
  </outline>
</glyph>
<glyph name="S" format="2">
  <advance width="675"/>
  <unicode hex="0053"/>
  <outline>
    <contour>
      <point x="72" y="82" type="qcurve"/>
      <point x="130" y="129" type="line"/>
      <point x="170" y="89"/>
      <point x="269" y="67"/>
      <point x="324" y="67" type="qcurve" smooth="yes"/>
      <point x="366" y="67"/>
      <point x="439" y="86"/>
      <point x="494" y="128"/>
      <point x="526" y="193"/>
      <point x="526" y="239" type="qcurve" smooth="yes"/>
      <point x="526" y="265"/>
      <point x="511" y="314"/>
      <point x="491" y="331" type="qcurve" smooth="yes"/>
      <point x="483" y="338"/>
      <point x="451" y="350"/>
      <point x="413" y="361"/>
      <point x="378" y="370"/>
      <point x="367" y="373" type="qcurve" smooth="yes"/>
      <point x="323" y="385"/>
      <point x="228" y="412"/>
      <point x="148" y="457"/>
      <point x="97" y="528"/>
      <point x="97" y="586" type="qcurve" smooth="yes"/>
      <point x="97" y="640"/>
      <point x="139" y="718"/>
      <point x="208" y="767"/>
      <point x="299" y="791"/>
      <point x="347" y="791" type="qcurve" smooth="yes"/>
      <point x="370" y="791"/>
      <point x="436" y="786"/>
      <point x="503" y="771"/>
      <point x="561" y="744"/>
      <point x="574" y="723" type="qcurve" smooth="yes"/>
      <point x="576" y="720"/>
      <point x="578" y="715"/>
      <point x="580" y="713" type="qcurve"/>
      <point x="524" y="666" type="line"/>
      <point x="506" y="684"/>
      <point x="464" y="704"/>
      <point x="417" y="713"/>
      <point x="369" y="715"/>
      <point x="345" y="715" type="qcurve" smooth="yes"/>
      <point x="314" y="715"/>
      <point x="253" y="702"/>
      <point x="204" y="672"/>
      <point x="173" y="623"/>
      <point x="173" y="587" type="qcurve" smooth="yes"/>
      <point x="173" y="552"/>
      <point x="212" y="506"/>
      <point x="275" y="475"/>
      <point x="352" y="455"/>
      <point x="429" y="437"/>
      <point x="498" y="418"/>
      <point x="520" y="403" type="qcurve" smooth="yes"/>
      <point x="562" y="374"/>
      <point x="602" y="284"/>
      <point x="602" y="234" type="qcurve" smooth="yes"/>
      <point x="602" y="177"/>
      <point x="559" y="86"/>
      <point x="485" y="24"/>
      <point x="387" y="-9"/>
      <point x="333" y="-9" type="qcurve" smooth="yes"/>
      <point x="299" y="-9"/>
      <point x="225" y="-3"/>
      <point x="155" y="17"/>
      <point x="94" y="52"/>
    </contour>
  </outline>
</glyph>
<glyph name="T" format="2">
  <advance width="572"/>
  <unicode hex="0054"/>
  <outline>
    <contour>
      <point x="52" y="707" type="line"/>
      <point x="52" y="783" type="line"/>
      <point x="520" y="783" type="line"/>
      <point x="520" y="707" type="line"/>
      <point x="324" y="707" type="line"/>
      <point x="324" y="0" type="line"/>
      <point x="248" y="0" type="line"/>
      <point x="248" y="707" type="line"/>
    </contour>
  </outline>
</glyph>
<glyph name="U" format="2">
  <advance width="731"/>
  <unicode hex="0055"/>
  <outline>
    <contour>
      <point x="92" y="198" type="qcurve" smooth="yes"/>
      <point x="92" y="783" type="line"/>
      <point x="169" y="783" type="line"/>
      <point x="169" y="198" type="line" smooth="yes"/>
      <point x="169" y="162"/>
      <point x="207" y="112"/>
      <point x="264" y="80"/>
      <point x="331" y="66"/>
      <point x="361" y="66" type="qcurve" smooth="yes"/>
      <point x="391" y="66"/>
      <point x="461" y="79"/>
      <point x="522" y="110"/>
      <point x="563" y="161"/>
      <point x="563" y="198" type="qcurve" smooth="yes"/>
      <point x="563" y="783" type="line"/>
      <point x="639" y="783" type="line"/>
      <point x="639" y="198" type="line" smooth="yes"/>
      <point x="639" y="178"/>
      <point x="628" y="139"/>
      <point x="619" y="121" type="qcurve" smooth="yes"/>
      <point x="600" y="85"/>
      <point x="547" y="35"/>
      <point x="482" y="4"/>
      <point x="408" y="-10"/>
      <point x="369" y="-10" type="qcurve" smooth="yes"/>
      <point x="322" y="-10"/>
      <point x="224" y="14"/>
      <point x="143" y="65"/>
      <point x="92" y="143"/>
    </contour>
  </outline>
</glyph>
<glyph name="V" format="2">
  <advance width="701"/>
  <unicode hex="0056"/>
  <outline>
    <contour>
      <point x="32" y="783" type="line"/>
      <point x="111" y="783" type="line"/>
      <point x="352" y="123" type="line"/>
      <point x="590" y="783" type="line"/>
      <point x="669" y="783" type="line"/>
      <point x="383" y="0" type="line"/>
      <point x="319" y="0" type="line"/>
    </contour>
  </outline>
</glyph>
<glyph name="W" format="2">
  <advance width="985"/>
  <unicode hex="0057"/>
  <outline>
    <contour>
      <point x="32" y="782" type="line"/>
      <point x="112" y="782" type="line"/>
      <point x="284" y="162" type="line"/>
      <point x="456" y="782" type="line"/>
      <point x="529" y="782" type="line"/>
      <point x="701" y="162" type="line"/>
      <point x="873" y="782" type="line"/>
      <point x="953" y="782" type="line"/>
      <point x="737" y="-1" type="line"/>
      <point x="665" y="-1" type="line"/>
      <point x="493" y="634" type="line"/>
      <point x="320" y="-1" type="line"/>
      <point x="248" y="-1" type="line"/>
    </contour>
  </outline>
</glyph>
<glyph name="X" format="2">
  <advance width="668"/>
  <unicode hex="0058"/>
  <outline>
    <contour>
      <point x="32" y="0" type="line"/>
      <point x="288" y="391" type="line"/>
      <point x="32" y="783" type="line"/>
      <point x="122" y="783" type="line"/>
      <point x="334" y="451" type="line"/>
      <point x="544" y="783" type="line"/>
      <point x="636" y="783" type="line"/>
      <point x="379" y="391" type="line"/>
      <point x="636" y="0" type="line"/>
      <point x="544" y="0" type="line"/>
      <point x="334" y="332" type="line"/>
      <point x="122" y="0" type="line"/>
    </contour>
  </outline>
</glyph>
<glyph name="Y" format="2">
  <advance width="669"/>
  <unicode hex="0059"/>
  <outline>
    <contour>
      <point x="32" y="783" type="line"/>
      <point x="122" y="783" type="line"/>
      <point x="333" y="452" type="line"/>
      <point x="544" y="783" type="line"/>
      <point x="637" y="783" type="line"/>
      <point x="372" y="380" type="line"/>
      <point x="372" y="0" type="line"/>
      <point x="294" y="0" type="line"/>
      <point x="294" y="380" type="line"/>
    </contour>
  </outline>
</glyph>
<glyph name="Z" format="2">
  <advance width="670"/>
  <unicode hex="005A"/>
  <outline>
    <contour>
      <point x="52" y="0" type="line"/>
      <point x="52" y="56" type="line"/>
      <point x="511" y="707" type="line"/>
      <point x="52" y="707" type="line"/>
      <point x="52" y="783" type="line"/>
      <point x="617" y="783" type="line"/>
      <point x="617" y="727" type="line"/>
      <point x="158" y="76" type="line"/>
      <point x="618" y="76" type="line"/>
      <point x="618" y="0" type="line"/>
    </contour>
  </outline>
</glyph>
<glyph name="bracketleft" format="2">
  <advance width="304"/>
  <unicode hex="005B"/>
  <outline>
    <contour>
      <point x="249" y="812" type="line"/>
      <point x="249" y="741" type="line"/>
      <point x="127" y="741" type="line"/>
      <point x="127" y="-18" type="line"/>
      <point x="250" y="-18" type="line"/>
      <point x="250" y="-89" type="line"/>
      <point x="50" y="-89" type="line"/>
      <point x="50" y="812" type="line"/>
    </contour>
  </outline>
</glyph>
<glyph name="backslash" format="2">
  <advance width="489"/>
  <unicode hex="005C"/>
  <outline>
    <contour>
      <point x="313" y="0" type="line"/>
      <point x="40" y="783" type="line"/>
      <point x="119" y="783" type="line"/>
      <point x="393" y="0" type="line"/>
    </contour>
  </outline>
</glyph>
<glyph name="bracketright" format="2">
  <advance width="304"/>
  <unicode hex="005D"/>
  <outline>
    <contour>
      <point x="51" y="812" type="line"/>
      <point x="250" y="812" type="line"/>
      <point x="250" y="-89" type="line"/>
      <point x="50" y="-89" type="line"/>
      <point x="50" y="-18" type="line"/>
      <point x="172" y="-18" type="line"/>
      <point x="172" y="741" type="line"/>
      <point x="51" y="741" type="line"/>
    </contour>
  </outline>
</glyph>
<glyph name="asciicircum" format="2">
  <advance width="513"/>
  <unicode hex="005E"/>
  <outline>
    <contour>
      <point x="255" y="460" type="line"/>
      <point x="491" y="229" type="line"/>
      <point x="441" y="181" type="line"/>
      <point x="255" y="362" type="line"/>
      <point x="72" y="181" type="line"/>
      <point x="22" y="229" type="line"/>
    </contour>
  </outline>
</glyph>
<glyph name="underscore" format="2">
  <advance width="483"/>
  <unicode hex="005F"/>
  <outline>
    <contour>
      <point x="12" y="-70" type="line"/>
      <point x="12" y="0" type="line"/>
      <point x="471" y="0" type="line"/>
      <point x="471" y="-70" type="line"/>
    </contour>
  </outline>
</glyph>
<glyph name="grave" format="2">
  <advance width="297"/>
  <unicode hex="0060"/>
  <outline>
    <contour>
      <point x="52" y="709" type="line"/>
      <point x="64" y="709" type="line" smooth="yes"/>
      <point x="113" y="709"/>
      <point x="193" y="656"/>
      <point x="223" y="621" type="qcurve" smooth="yes"/>
      <point x="234" y="607"/>
      <point x="251" y="580"/>
      <point x="262" y="566" type="qcurve"/>
      <point x="205" y="521" type="line"/>
      <point x="186" y="541"/>
      <point x="156" y="580"/>
      <point x="124" y="613"/>
      <point x="83" y="633"/>
      <point x="51" y="633" type="qcurve"/>
    </contour>
  </outline>
</glyph>
<glyph name="a" format="2">
  <advance width="521"/>
  <unicode hex="0061"/>
  <outline>
    <contour>
      <point x="52" y="153" type="qcurve" smooth="yes"/>
      <point x="52" y="175"/>
      <point x="60" y="197" type="qcurve" smooth="yes"/>
      <point x="77" y="247"/>
      <point x="148" y="294"/>
      <point x="236" y="311"/>
      <point x="332" y="308"/>
      <point x="373" y="308" type="qcurve"/>
      <point x="373" y="391" type="line" smooth="yes"/>
      <point x="373" y="412"/>
      <point x="348" y="439"/>
      <point x="311" y="456"/>
      <point x="270" y="463"/>
      <point x="254" y="463" type="qcurve" smooth="yes"/>
      <point x="242" y="463"/>
      <point x="202" y="462"/>
      <point x="162" y="455"/>
      <point x="130" y="440"/>
      <point x="125" y="427" type="qcurve"/>
      <point x="70" y="483" type="line"/>
      <point x="105" y="518"/>
      <point x="204" y="539"/>
      <point x="252" y="539" type="qcurve" smooth="yes"/>
      <point x="285" y="539"/>
      <point x="355" y="522"/>
      <point x="412" y="486"/>
      <point x="449" y="431"/>
      <point x="449" y="392" type="qcurve" smooth="yes"/>
      <point x="449" y="0" type="line"/>
      <point x="387" y="0" type="line"/>
      <point x="378" y="23" type="line"/>
      <point x="341" y="9"/>
      <point x="258" y="-11"/>
      <point x="218" y="-11" type="qcurve" smooth="yes"/>
      <point x="140" y="-11"/>
      <point x="52" y="75"/>
    </contour>
    <contour>
      <point x="218" y="65" type="qcurve" smooth="yes"/>
      <point x="258" y="65"/>
      <point x="335" y="88"/>
      <point x="373" y="102" type="qcurve"/>
      <point x="373" y="232" type="line"/>
      <point x="255" y="232" type="line" smooth="yes"/>
      <point x="234" y="232"/>
      <point x="189" y="226"/>
      <point x="153" y="208"/>
      <point x="129" y="175"/>
      <point x="129" y="149" type="qcurve" smooth="yes"/>
      <point x="129" y="107"/>
      <point x="177" y="65"/>
    </contour>
  </outline>
</glyph>
<glyph name="b" format="2">
  <advance width="547"/>
  <unicode hex="0062"/>
  <outline>
    <contour>
      <point x="281" y="462" type="qcurve" smooth="yes"/>
      <point x="233" y="462"/>
      <point x="180" y="428"/>
      <point x="155" y="373"/>
      <point x="150" y="301"/>
      <point x="150" y="263" type="qcurve" smooth="yes"/>
      <point x="150" y="225"/>
      <point x="155" y="154"/>
      <point x="180" y="99"/>
      <point x="233" y="66"/>
      <point x="281" y="66" type="qcurve" smooth="yes"/>
      <point x="330" y="66"/>
      <point x="383" y="99"/>
      <point x="408" y="153"/>
      <point x="413" y="224"/>
      <point x="413" y="263" type="qcurve" smooth="yes"/>
      <point x="413" y="301"/>
      <point x="408" y="373"/>
      <point x="383" y="429"/>
      <point x="330" y="462"/>
    </contour>
    <contour>
      <point x="150" y="712" type="line"/>
      <point x="150" y="491" type="line"/>
      <point x="179" y="512"/>
      <point x="245" y="538"/>
      <point x="281" y="538" type="qcurve" smooth="yes"/>
      <point x="348" y="538"/>
      <point x="430" y="495"/>
      <point x="475" y="420"/>
      <point x="490" y="320"/>
      <point x="490" y="263" type="qcurve" smooth="yes"/>
      <point x="490" y="206"/>
      <point x="474" y="107"/>
      <point x="429" y="33"/>
      <point x="347" y="-10"/>
      <point x="281" y="-10" type="qcurve" smooth="yes"/>
      <point x="245" y="-10"/>
      <point x="173" y="16"/>
      <point x="146" y="39" type="qcurve"/>
      <point x="139" y="0" type="line"/>
      <point x="73" y="0" type="line"/>
      <point x="73" y="712" type="line"/>
    </contour>
  </outline>
</glyph>
<glyph name="c" format="2">
  <advance width="515"/>
  <unicode hex="0063"/>
  <outline>
    <contour>
      <point x="265" y="538" type="qcurve" smooth="yes"/>
      <point x="328" y="538"/>
      <point x="434" y="492"/>
      <point x="468" y="436" type="qcurve"/>
      <point x="397" y="400" type="line"/>
      <point x="396" y="404"/>
      <point x="396" y="411" type="qcurve"/>
      <point x="389" y="425"/>
      <point x="357" y="444"/>
      <point x="318" y="456"/>
      <point x="279" y="462"/>
      <point x="265" y="462" type="qcurve" smooth="yes"/>
      <point x="217" y="462"/>
      <point x="165" y="428"/>
      <point x="139" y="373"/>
      <point x="134" y="302"/>
      <point x="134" y="264" type="qcurve" smooth="yes"/>
      <point x="134" y="226"/>
      <point x="139" y="155"/>
      <point x="164" y="99"/>
      <point x="217" y="66"/>
      <point x="265" y="66" type="qcurve" smooth="yes"/>
      <point x="281" y="66"/>
      <point x="319" y="71"/>
      <point x="356" y="82"/>
      <point x="387" y="102"/>
      <point x="396" y="117" type="qcurve"/>
      <point x="396" y="124"/>
      <point x="397" y="128" type="qcurve"/>
      <point x="468" y="92" type="line"/>
      <point x="464" y="87"/>
      <point x="458" y="74"/>
      <point x="454" y="69" type="qcurve"/>
      <point x="452" y="64"/>
      <point x="446" y="58"/>
      <point x="443" y="55" type="qcurve" smooth="yes"/>
      <point x="427" y="38"/>
      <point x="385" y="14"/>
      <point x="337" y="-2"/>
      <point x="288" y="-10"/>
      <point x="265" y="-10" type="qcurve" smooth="yes"/>
      <point x="198" y="-10"/>
      <point x="117" y="33"/>
      <point x="72" y="108"/>
      <point x="57" y="207"/>
      <point x="57" y="264" type="qcurve" smooth="yes"/>
      <point x="57" y="320"/>
      <point x="73" y="419"/>
      <point x="118" y="494"/>
      <point x="199" y="538"/>
    </contour>
  </outline>
</glyph>
<glyph name="d" format="2">
  <advance width="547"/>
  <unicode hex="0064"/>
  <outline>
    <contour>
      <point x="264" y="462" type="qcurve" smooth="yes"/>
      <point x="216" y="462"/>
      <point x="163" y="428"/>
      <point x="138" y="373"/>
      <point x="133" y="301"/>
      <point x="133" y="263" type="qcurve" smooth="yes"/>
      <point x="133" y="225"/>
      <point x="138" y="154"/>
      <point x="163" y="99"/>
      <point x="216" y="66"/>
      <point x="264" y="66" type="qcurve" smooth="yes"/>
      <point x="312" y="66"/>
      <point x="366" y="99"/>
      <point x="391" y="154"/>
      <point x="396" y="225"/>
      <point x="396" y="263" type="qcurve" smooth="yes"/>
      <point x="396" y="301"/>
      <point x="391" y="373"/>
      <point x="366" y="429"/>
      <point x="313" y="462"/>
    </contour>
    <contour>
      <point x="396" y="712" type="line"/>
      <point x="473" y="712" type="line"/>
      <point x="473" y="0" type="line"/>
      <point x="407" y="0" type="line"/>
      <point x="399" y="39" type="line"/>
      <point x="373" y="16"/>
      <point x="299" y="-10"/>
      <point x="264" y="-10" type="qcurve" smooth="yes"/>
      <point x="198" y="-10"/>
      <point x="117" y="33"/>
      <point x="72" y="107"/>
      <point x="56" y="207"/>
      <point x="56" y="263" type="qcurve" smooth="yes"/>
      <point x="56" y="320"/>
      <point x="71" y="420"/>
      <point x="116" y="495"/>
      <point x="197" y="538"/>
      <point x="264" y="538" type="qcurve" smooth="yes"/>
      <point x="300" y="538"/>
      <point x="367" y="513"/>
      <point x="396" y="491" type="qcurve"/>
    </contour>
  </outline>
</glyph>
<glyph name="e" format="2">
  <advance width="527"/>
  <unicode hex="0065"/>
  <outline>
    <contour>
      <point x="464" y="90" type="line"/>
      <point x="459" y="82"/>
      <point x="449" y="64"/>
      <point x="442" y="57" type="qcurve" smooth="yes"/>
      <point x="426" y="39"/>
      <point x="383" y="13"/>
      <point x="335" y="-3"/>
      <point x="284" y="-10"/>
      <point x="261" y="-10" type="qcurve" smooth="yes"/>
      <point x="194" y="-10"/>
      <point x="113" y="32"/>
      <point x="68" y="106"/>
      <point x="53" y="205"/>
      <point x="53" y="262" type="qcurve" smooth="yes"/>
      <point x="53" y="318"/>
      <point x="69" y="418"/>
      <point x="114" y="493"/>
      <point x="195" y="538"/>
      <point x="261" y="538" type="qcurve" smooth="yes"/>
      <point x="338" y="538"/>
      <point x="422" y="485"/>
      <point x="462" y="396"/>
      <point x="470" y="283"/>
      <point x="470" y="223" type="qcurve"/>
      <point x="131" y="223" type="line"/>
      <point x="131" y="190"/>
      <point x="141" y="132"/>
      <point x="169" y="90"/>
      <point x="218" y="66"/>
      <point x="256" y="66" type="qcurve" smooth="yes"/>
      <point x="274" y="66"/>
      <point x="312" y="70"/>
      <point x="349" y="81"/>
      <point x="381" y="101"/>
      <point x="392" y="117" type="qcurve" smooth="yes"/>
      <point x="393" y="119" type="line"/>
      <point x="393" y="120"/>
      <point x="395" y="125"/>
      <point x="395" y="126" type="qcurve"/>
    </contour>
    <contour>
      <point x="393" y="299" type="line"/>
      <point x="393" y="335"/>
      <point x="382" y="395"/>
      <point x="353" y="438"/>
      <point x="302" y="462"/>
      <point x="261" y="462" type="qcurve" smooth="yes"/>
      <point x="221" y="462"/>
      <point x="170" y="438"/>
      <point x="141" y="394"/>
      <point x="131" y="334"/>
      <point x="131" y="299" type="qcurve"/>
    </contour>
  </outline>
</glyph>
<glyph name="f" format="2">
  <advance width="320"/>
  <unicode hex="0066"/>
  <outline>
    <contour>
      <point x="59" y="391" type="line"/>
      <point x="59" y="467" type="line"/>
      <point x="103" y="467" type="line"/>
      <point x="103" y="590" type="line" smooth="yes"/>
      <point x="103" y="622"/>
      <point x="128" y="672"/>
      <point x="170" y="705"/>
      <point x="224" y="722"/>
      <point x="254" y="722" type="qcurve" smooth="yes"/>
      <point x="272" y="722"/>
      <point x="306" y="718"/>
      <point x="323" y="715" type="qcurve"/>
      <point x="309" y="640" type="line"/>
      <point x="295" y="642"/>
      <point x="268" y="646"/>
      <point x="254" y="646" type="qcurve" smooth="yes"/>
      <point x="222" y="646"/>
      <point x="179" y="619"/>
      <point x="179" y="583" type="qcurve" smooth="yes"/>
      <point x="179" y="467" type="line"/>
      <point x="291" y="467" type="line"/>
      <point x="291" y="391" type="line"/>
      <point x="179" y="391" type="line"/>
      <point x="179" y="0" type="line"/>
      <point x="103" y="0" type="line"/>
      <point x="103" y="391" type="line"/>
    </contour>
  </outline>
</glyph>
<glyph name="g" format="2">
  <advance width="527"/>
  <unicode hex="0067"/>
  <outline>
    <contour>
      <point x="261" y="66" type="qcurve" smooth="yes"/>
      <point x="311" y="66"/>
      <point x="364" y="99"/>
      <point x="389" y="155"/>
      <point x="393" y="226"/>
      <point x="393" y="265" type="qcurve" smooth="yes"/>
      <point x="393" y="303"/>
      <point x="388" y="374"/>
      <point x="363" y="429"/>
      <point x="309" y="462"/>
      <point x="261" y="462" type="qcurve" smooth="yes"/>
      <point x="213" y="462"/>
      <point x="160" y="429"/>
      <point x="135" y="374"/>
      <point x="130" y="303"/>
      <point x="130" y="265" type="qcurve" smooth="yes"/>
      <point x="130" y="227"/>
      <point x="135" y="155"/>
      <point x="160" y="100"/>
      <point x="213" y="66"/>
    </contour>
    <contour>
      <point x="261" y="538" type="qcurve" smooth="yes"/>
      <point x="296" y="538"/>
      <point x="370" y="512"/>
      <point x="396" y="489" type="qcurve"/>
      <point x="404" y="528" type="line"/>
      <point x="470" y="528" type="line"/>
      <point x="470" y="82" type="line" smooth="yes"/>
      <point x="470" y="25"/>
      <point x="455" y="-75"/>
      <point x="410" y="-150"/>
      <point x="328" y="-194"/>
      <point x="261" y="-194" type="qcurve" smooth="yes"/>
      <point x="198" y="-194"/>
      <point x="94" y="-149"/>
      <point x="60" y="-94" type="qcurve"/>
      <point x="130" y="-56" type="line"/>
      <point x="131" y="-58"/>
      <point x="133" y="-65"/>
      <point x="132" y="-67" type="qcurve"/>
      <point x="141" y="-82"/>
      <point x="171" y="-102"/>
      <point x="207" y="-113"/>
      <point x="245" y="-118"/>
      <point x="261" y="-118" type="qcurve" smooth="yes"/>
      <point x="300" y="-118"/>
      <point x="350" y="-96"/>
      <point x="380" y="-55"/>
      <point x="392" y="2"/>
      <point x="393" y="37" type="qcurve"/>
      <point x="364" y="16"/>
      <point x="297" y="-10"/>
      <point x="261" y="-10" type="qcurve" smooth="yes"/>
      <point x="194" y="-10"/>
      <point x="113" y="33"/>
      <point x="68" y="108"/>
      <point x="53" y="208"/>
      <point x="53" y="265" type="qcurve" smooth="yes"/>
      <point x="53" y="322"/>
      <point x="68" y="422"/>
      <point x="112" y="495"/>
      <point x="194" y="538"/>
    </contour>
  </outline>
</glyph>
<glyph name="h" format="2">
  <advance width="547"/>
  <unicode hex="0068"/>
  <outline>
    <contour>
      <point x="92" y="783" type="line"/>
      <point x="169" y="783" type="line"/>
      <point x="169" y="504" type="line"/>
      <point x="196" y="522"/>
      <point x="261" y="538"/>
      <point x="293" y="538" type="qcurve" smooth="yes"/>
      <point x="326" y="538"/>
      <point x="392" y="520"/>
      <point x="443" y="484"/>
      <point x="475" y="429"/>
      <point x="475" y="391" type="qcurve" smooth="yes"/>
      <point x="475" y="0" type="line"/>
      <point x="399" y="0" type="line"/>
      <point x="399" y="391" type="line" smooth="yes"/>
      <point x="399" y="412"/>
      <point x="376" y="440"/>
      <point x="341" y="458"/>
      <point x="302" y="466"/>
      <point x="285" y="466" type="qcurve" smooth="yes"/>
      <point x="268" y="466"/>
      <point x="228" y="458"/>
      <point x="193" y="440"/>
      <point x="169" y="412"/>
      <point x="169" y="391" type="qcurve" smooth="yes"/>
      <point x="169" y="0" type="line"/>
      <point x="92" y="0" type="line"/>
    </contour>
  </outline>
</glyph>
<glyph name="i" format="2">
  <advance width="235"/>
  <unicode hex="0069"/>
  <outline>
    <contour>
      <point x="80" y="528" type="line"/>
      <point x="157" y="528" type="line"/>
      <point x="157" y="0" type="line"/>
      <point x="80" y="0" type="line"/>
    </contour>
    <contour>
      <point x="80" y="612" type="line"/>
      <point x="80" y="711" type="line"/>
      <point x="157" y="711" type="line"/>
      <point x="157" y="612" type="line"/>
    </contour>
  </outline>
</glyph>
<glyph name="j" format="2">
  <advance width="299"/>
  <unicode hex="006A"/>
  <outline>
    <contour>
      <point x="7" y="-180" type="qcurve"/>
      <point x="21" y="-103" type="line"/>
      <point x="35" y="-105"/>
      <point x="63" y="-109"/>
      <point x="77" y="-109" type="qcurve" smooth="yes"/>
      <point x="109" y="-109"/>
      <point x="151" y="-81"/>
      <point x="151" y="-46" type="qcurve" smooth="yes"/>
      <point x="151" y="528" type="line"/>
      <point x="227" y="528" type="line"/>
      <point x="227" y="-52" type="line" smooth="yes"/>
      <point x="227" y="-84"/>
      <point x="202" y="-133"/>
      <point x="161" y="-167"/>
      <point x="107" y="-184"/>
      <point x="77" y="-184" type="qcurve" smooth="yes"/>
      <point x="60" y="-184"/>
      <point x="24" y="-180"/>
    </contour>
    <contour>
      <point x="151" y="612" type="line"/>
      <point x="151" y="711" type="line"/>
      <point x="227" y="711" type="line"/>
      <point x="227" y="612" type="line"/>
    </contour>
  </outline>
</glyph>
<glyph name="k" format="2">
  <advance width="532"/>
  <unicode hex="006B"/>
  <outline>
    <contour>
      <point x="169" y="783" type="line"/>
      <point x="169" y="308" type="line"/>
      <point x="392" y="528" type="line"/>
      <point x="500" y="528" type="line"/>
      <point x="267" y="297" type="line"/>
      <point x="492" y="0" type="line"/>
      <point x="397" y="0" type="line"/>
      <point x="210" y="244" type="line"/>
      <point x="169" y="204" type="line"/>
      <point x="169" y="0" type="line"/>
      <point x="92" y="0" type="line"/>
      <point x="92" y="783" type="line"/>
    </contour>
  </outline>
</glyph>
<glyph name="l" format="2">
  <advance width="254"/>
  <unicode hex="006C"/>
  <outline>
    <contour>
      <point x="85" y="712" type="line"/>
      <point x="162" y="712" type="line"/>
      <point x="162" y="0" type="line"/>
      <point x="85" y="0" type="line"/>
    </contour>
  </outline>
</glyph>
<glyph name="m" format="2">
  <advance width="696"/>
  <unicode hex="006D"/>
  <outline>
    <contour>
      <point x="72" y="0" type="line"/>
      <point x="72" y="528" type="line"/>
      <point x="138" y="528" type="line"/>
      <point x="143" y="502" type="line"/>
      <point x="165" y="519"/>
      <point x="216" y="539"/>
      <point x="244" y="539" type="qcurve" smooth="yes"/>
      <point x="306" y="539"/>
      <point x="348" y="497" type="qcurve"/>
      <point x="372" y="519"/>
      <point x="434" y="538"/>
      <point x="466" y="538" type="qcurve" smooth="yes"/>
      <point x="494" y="538"/>
      <point x="550" y="523"/>
      <point x="595" y="493"/>
      <point x="624" y="447"/>
      <point x="624" y="415" type="qcurve" smooth="yes"/>
      <point x="624" y="0" type="line"/>
      <point x="547" y="0" type="line"/>
      <point x="547" y="414" type="line" smooth="yes"/>
      <point x="547" y="428"/>
      <point x="530" y="447"/>
      <point x="504" y="459"/>
      <point x="476" y="464"/>
      <point x="465" y="464" type="qcurve" smooth="yes"/>
      <point x="454" y="464"/>
      <point x="426" y="459"/>
      <point x="402" y="447"/>
      <point x="385" y="428"/>
      <point x="385" y="414" type="qcurve" smooth="yes"/>
      <point x="385" y="0" type="line"/>
      <point x="311" y="0" type="line"/>
      <point x="311" y="414" type="line" smooth="yes"/>
      <point x="311" y="428"/>
      <point x="294" y="447"/>
      <point x="269" y="459"/>
      <point x="241" y="464"/>
      <point x="230" y="464" type="qcurve" smooth="yes"/>
      <point x="219" y="464"/>
      <point x="191" y="459"/>
      <point x="166" y="447"/>
      <point x="149" y="428"/>
      <point x="149" y="414" type="qcurve" smooth="yes"/>
      <point x="149" y="0" type="line"/>
    </contour>
  </outline>
</glyph>
<glyph name="n" format="2">
  <advance width="527"/>
  <unicode hex="006E"/>
  <outline>
    <contour>
      <point x="72" y="528" type="line"/>
      <point x="138" y="528" type="line"/>
      <point x="144" y="499" type="line"/>
      <point x="173" y="519"/>
      <point x="239" y="537"/>
      <point x="273" y="537" type="qcurve" smooth="yes"/>
      <point x="305" y="537"/>
      <point x="370" y="517"/>
      <point x="422" y="480"/>
      <point x="455" y="425"/>
      <point x="455" y="389" type="qcurve" smooth="yes"/>
      <point x="455" y="0" type="line"/>
      <point x="379" y="0" type="line"/>
      <point x="379" y="389" type="line" smooth="yes"/>
      <point x="379" y="410"/>
      <point x="356" y="438"/>
      <point x="321" y="456"/>
      <point x="282" y="464"/>
      <point x="265" y="464" type="qcurve" smooth="yes"/>
      <point x="248" y="464"/>
      <point x="208" y="456"/>
      <point x="173" y="438"/>
      <point x="149" y="410"/>
      <point x="149" y="389" type="qcurve" smooth="yes"/>
      <point x="149" y="1" type="line"/>
      <point x="72" y="1" type="line"/>
    </contour>
  </outline>
</glyph>
<glyph name="o" format="2">
  <advance width="527"/>
  <unicode hex="006F"/>
  <outline>
    <contour>
      <point x="262" y="-13" type="qcurve" smooth="yes"/>
      <point x="195" y="-13"/>
      <point x="114" y="30"/>
      <point x="69" y="105"/>
      <point x="54" y="205"/>
      <point x="54" y="262" type="qcurve" smooth="yes"/>
      <point x="54" y="319"/>
      <point x="69" y="419"/>
      <point x="113" y="494"/>
      <point x="195" y="538"/>
      <point x="262" y="538" type="qcurve" smooth="yes"/>
      <point x="329" y="538"/>
      <point x="411" y="494"/>
      <point x="456" y="419"/>
      <point x="471" y="319"/>
      <point x="471" y="262" type="qcurve" smooth="yes"/>
      <point x="471" y="205"/>
      <point x="455" y="105"/>
      <point x="410" y="30"/>
      <point x="328" y="-13"/>
    </contour>
    <contour>
      <point x="262" y="462" type="qcurve" smooth="yes"/>
      <point x="214" y="462"/>
      <point x="161" y="428"/>
      <point x="136" y="371"/>
      <point x="131" y="300"/>
      <point x="131" y="262" type="qcurve" smooth="yes"/>
      <point x="131" y="223"/>
      <point x="135" y="152"/>
      <point x="160" y="96"/>
      <point x="213" y="63"/>
      <point x="262" y="63" type="qcurve" smooth="yes"/>
      <point x="311" y="63"/>
      <point x="364" y="97"/>
      <point x="389" y="152"/>
      <point x="394" y="224"/>
      <point x="394" y="262" type="qcurve" smooth="yes"/>
      <point x="394" y="300"/>
      <point x="389" y="372"/>
      <point x="364" y="428"/>
      <point x="310" y="462"/>
    </contour>
  </outline>
</glyph>
<glyph name="p" format="2">
  <advance width="527"/>
  <unicode hex="0070"/>
  <outline>
    <contour>
      <point x="271" y="66" type="qcurve" smooth="yes"/>
      <point x="320" y="66"/>
      <point x="373" y="100"/>
      <point x="398" y="155"/>
      <point x="403" y="227"/>
      <point x="403" y="265" type="qcurve" smooth="yes"/>
      <point x="403" y="303"/>
      <point x="398" y="374"/>
      <point x="373" y="429"/>
      <point x="319" y="462"/>
      <point x="271" y="462" type="qcurve" smooth="yes"/>
      <point x="223" y="462"/>
      <point x="170" y="429"/>
      <point x="145" y="374"/>
      <point x="140" y="303"/>
      <point x="140" y="265" type="qcurve" smooth="yes"/>
      <point x="140" y="226"/>
      <point x="144" y="155"/>
      <point x="169" y="99"/>
      <point x="222" y="66"/>
    </contour>
    <contour>
      <point x="140" y="-184" type="line"/>
      <point x="63" y="-184" type="line"/>
      <point x="63" y="528" type="line"/>
      <point x="129" y="528" type="line"/>
      <point x="136" y="489" type="line"/>
      <point x="163" y="512"/>
      <point x="235" y="538"/>
      <point x="271" y="538" type="qcurve" smooth="yes"/>
      <point x="337" y="538"/>
      <point x="419" y="495"/>
      <point x="464" y="421"/>
      <point x="480" y="322"/>
      <point x="480" y="265" type="qcurve" smooth="yes"/>
      <point x="480" y="208"/>
      <point x="465" y="108"/>
      <point x="420" y="33"/>
      <point x="338" y="-10"/>
      <point x="271" y="-10" type="qcurve" smooth="yes"/>
      <point x="235" y="-10"/>
      <point x="169" y="16"/>
      <point x="140" y="37" type="qcurve"/>
    </contour>
  </outline>
</glyph>
<glyph name="q" format="2">
  <advance width="527"/>
  <unicode hex="0071"/>
  <outline>
    <contour>
      <point x="261" y="66" type="qcurve" smooth="yes"/>
      <point x="311" y="66"/>
      <point x="364" y="99"/>
      <point x="389" y="155"/>
      <point x="393" y="226"/>
      <point x="393" y="265" type="qcurve" smooth="yes"/>
      <point x="393" y="303"/>
      <point x="388" y="374"/>
      <point x="363" y="429"/>
      <point x="309" y="462"/>
      <point x="261" y="462" type="qcurve" smooth="yes"/>
      <point x="213" y="462"/>
      <point x="160" y="429"/>
      <point x="135" y="374"/>
      <point x="130" y="303"/>
      <point x="130" y="265" type="qcurve" smooth="yes"/>
      <point x="130" y="227"/>
      <point x="135" y="155"/>
      <point x="160" y="100"/>
      <point x="213" y="66"/>
    </contour>
    <contour>
      <point x="393" y="-184" type="line"/>
      <point x="393" y="37" type="line"/>
      <point x="364" y="15"/>
      <point x="297" y="-10"/>
      <point x="261" y="-10" type="qcurve" smooth="yes"/>
      <point x="194" y="-10"/>
      <point x="113" y="33"/>
      <point x="68" y="108"/>
      <point x="53" y="208"/>
      <point x="53" y="265" type="qcurve" smooth="yes"/>
      <point x="53" y="321"/>
      <point x="69" y="421"/>
      <point x="114" y="495"/>
      <point x="195" y="538"/>
      <point x="261" y="538" type="qcurve" smooth="yes"/>
      <point x="296" y="538"/>
      <point x="370" y="512"/>
      <point x="396" y="489" type="qcurve"/>
      <point x="404" y="528" type="line"/>
      <point x="470" y="528" type="line"/>
      <point x="470" y="-184" type="line"/>
    </contour>
  </outline>
</glyph>
<glyph name="r" format="2">
  <advance width="437"/>
  <unicode hex="0072"/>
  <outline>
    <contour>
      <point x="413" y="504" type="qcurve"/>
      <point x="379" y="436" type="line"/>
      <point x="357" y="447"/>
      <point x="317" y="458"/>
      <point x="292" y="458" type="qcurve" smooth="yes"/>
      <point x="244" y="458"/>
      <point x="191" y="424"/>
      <point x="166" y="367"/>
      <point x="161" y="296"/>
      <point x="161" y="258" type="qcurve" smooth="yes"/>
      <point x="161" y="0" type="line"/>
      <point x="84" y="0" type="line"/>
      <point x="84" y="528" type="line"/>
      <point x="148" y="528" type="line"/>
      <point x="150" y="519"/>
      <point x="152" y="501"/>
      <point x="154" y="492" type="qcurve"/>
      <point x="183" y="516"/>
      <point x="255" y="534"/>
      <point x="292" y="534" type="qcurve" smooth="yes"/>
      <point x="327" y="534"/>
      <point x="383" y="521"/>
    </contour>
  </outline>
</glyph>
<glyph name="s" format="2">
  <advance width="457"/>
  <unicode hex="0073"/>
  <outline>
    <contour>
      <point x="42" y="54" type="qcurve"/>
      <point x="100" y="100" type="line"/>
      <point x="104" y="99"/>
      <point x="126" y="79"/>
      <point x="136" y="75" type="qcurve" smooth="yes"/>
      <point x="154" y="68"/>
      <point x="201" y="63"/>
      <point x="221" y="63" type="qcurve" smooth="yes"/>
      <point x="241" y="63"/>
      <point x="283" y="72"/>
      <point x="317" y="93"/>
      <point x="340" y="125"/>
      <point x="340" y="148" type="qcurve" smooth="yes"/>
      <point x="340" y="168"/>
      <point x="326" y="207"/>
      <point x="305" y="213" type="qcurve" smooth="yes"/>
      <point x="271" y="222"/>
      <point x="185" y="241"/>
      <point x="109" y="277"/>
      <point x="57" y="335"/>
      <point x="57" y="383" type="qcurve" smooth="yes"/>
      <point x="57" y="424"/>
      <point x="85" y="483"/>
      <point x="135" y="521"/>
      <point x="201" y="540"/>
      <point x="238" y="540" type="qcurve" smooth="yes"/>
      <point x="254" y="540"/>
      <point x="300" y="536"/>
      <point x="346" y="525"/>
      <point x="385" y="506"/>
      <point x="395" y="491" type="qcurve" smooth="yes"/>
      <point x="397" y="489"/>
      <point x="399" y="483"/>
      <point x="401" y="481" type="qcurve"/>
      <point x="345" y="432" type="line"/>
      <point x="321" y="456"/>
      <point x="267" y="464"/>
      <point x="235" y="464" type="qcurve" smooth="yes"/>
      <point x="215" y="464"/>
      <point x="178" y="456"/>
      <point x="150" y="437"/>
      <point x="133" y="406"/>
      <point x="133" y="383" type="qcurve" smooth="yes"/>
      <point x="133" y="363"/>
      <point x="161" y="336"/>
      <point x="204" y="317"/>
      <point x="258" y="305"/>
      <point x="310" y="292"/>
      <point x="355" y="277"/>
      <point x="368" y="266" type="qcurve" smooth="yes"/>
      <point x="392" y="244"/>
      <point x="415" y="183"/>
      <point x="415" y="151" type="qcurve" smooth="yes"/>
      <point x="415" y="111"/>
      <point x="382" y="50"/>
      <point x="327" y="8"/>
      <point x="257" y="-13"/>
      <point x="220" y="-13" type="qcurve" smooth="yes"/>
      <point x="196" y="-13"/>
      <point x="146" y="-7"/>
      <point x="99" y="8"/>
      <point x="57" y="34"/>
    </contour>
  </outline>
</glyph>
<glyph name="t" format="2">
  <advance width="349"/>
  <unicode hex="0074"/>
  <outline>
    <contour>
      <point x="95" y="528" type="line"/>
      <point x="95" y="711" type="line"/>
      <point x="171" y="711" type="line"/>
      <point x="171" y="528" type="line"/>
      <point x="303" y="528" type="line"/>
      <point x="303" y="452" type="line"/>
      <point x="171" y="452" type="line"/>
      <point x="171" y="133" type="line" smooth="yes"/>
      <point x="171" y="97"/>
      <point x="214" y="70"/>
      <point x="246" y="70" type="qcurve" smooth="yes"/>
      <point x="260" y="70"/>
      <point x="287" y="74"/>
      <point x="301" y="76" type="qcurve"/>
      <point x="315" y="1" type="line"/>
      <point x="298" y="-2"/>
      <point x="264" y="-6"/>
      <point x="246" y="-6" type="qcurve" smooth="yes"/>
      <point x="216" y="-6"/>
      <point x="162" y="11"/>
      <point x="120" y="45"/>
      <point x="95" y="94"/>
      <point x="95" y="126" type="qcurve" smooth="yes"/>
      <point x="95" y="452" type="line"/>
      <point x="52" y="452" type="line"/>
      <point x="52" y="528" type="line"/>
    </contour>
  </outline>
</glyph>
<glyph name="u" format="2">
  <advance width="527"/>
  <unicode hex="0075"/>
  <outline>
    <contour>
      <point x="149" y="528" type="line"/>
      <point x="149" y="139" type="line" smooth="yes"/>
      <point x="149" y="118"/>
      <point x="173" y="90"/>
      <point x="208" y="72"/>
      <point x="249" y="64"/>
      <point x="265" y="64" type="qcurve" smooth="yes"/>
      <point x="281" y="64"/>
      <point x="321" y="72"/>
      <point x="355" y="90"/>
      <point x="379" y="119"/>
      <point x="379" y="139" type="qcurve" smooth="yes"/>
      <point x="379" y="528" type="line"/>
      <point x="455" y="528" type="line"/>
      <point x="455" y="0" type="line"/>
      <point x="391" y="0" type="line"/>
      <point x="384" y="27" type="line"/>
      <point x="356" y="9"/>
      <point x="291" y="-10"/>
      <point x="258" y="-10" type="qcurve" smooth="yes"/>
      <point x="225" y="-10"/>
      <point x="158" y="8"/>
      <point x="105" y="45"/>
      <point x="72" y="101"/>
      <point x="72" y="139" type="qcurve" smooth="yes"/>
      <point x="72" y="528" type="line"/>
    </contour>
  </outline>
</glyph>
<glyph name="v" format="2">
  <advance width="536"/>
  <unicode hex="0076"/>
  <outline>
    <contour>
      <point x="42" y="528" type="line"/>
      <point x="121" y="528" type="line"/>
      <point x="267" y="123" type="line"/>
      <point x="413" y="528" type="line"/>
      <point x="494" y="528" type="line"/>
      <point x="300" y="0" type="line"/>
      <point x="235" y="0" type="line"/>
    </contour>
  </outline>
</glyph>
<glyph name="w" format="2">
  <advance width="744"/>
  <unicode hex="0077"/>
  <outline>
    <contour>
      <point x="42" y="528" type="line"/>
      <point x="122" y="528" type="line"/>
      <point x="229" y="147" type="line"/>
      <point x="334" y="528" type="line"/>
      <point x="409" y="528" type="line"/>
      <point x="517" y="147" type="line"/>
      <point x="622" y="528" type="line"/>
      <point x="702" y="528" type="line"/>
      <point x="550" y="0" type="line"/>
      <point x="480" y="0" type="line"/>
      <point x="373" y="388" type="line"/>
      <point x="263" y="0" type="line"/>
      <point x="193" y="0" type="line"/>
    </contour>
  </outline>
</glyph>
<glyph name="x" format="2">
  <advance width="556"/>
  <unicode hex="0078"/>
  <outline>
    <contour>
      <point x="42" y="0" type="line"/>
      <point x="232" y="265" type="line"/>
      <point x="42" y="529" type="line"/>
      <point x="135" y="529" type="line"/>
      <point x="277" y="322" type="line"/>
      <point x="419" y="529" type="line"/>
      <point x="513" y="529" type="line"/>
      <point x="324" y="265" type="line"/>
      <point x="514" y="0" type="line"/>
      <point x="421" y="0" type="line"/>
      <point x="277" y="208" type="line"/>
      <point x="134" y="0" type="line"/>
    </contour>
  </outline>
</glyph>
<glyph name="y" format="2">
  <advance width="516"/>
  <unicode hex="0079"/>
  <outline>
    <contour>
      <point x="22" y="528" type="line"/>
      <point x="101" y="528" type="line"/>
      <point x="247" y="122" type="line"/>
      <point x="393" y="528" type="line"/>
      <point x="474" y="528" type="line"/>
      <point x="214" y="-184" type="line"/>
      <point x="131" y="-184" type="line"/>
      <point x="208" y="20" type="line"/>
    </contour>
  </outline>
</glyph>
<glyph name="z" format="2">
  <advance width="468"/>
  <unicode hex="007A"/>
  <outline>
    <contour>
      <point x="411" y="452" type="line"/>
      <point x="145" y="76" type="line"/>
      <point x="416" y="76" type="line"/>
      <point x="416" y="0" type="line"/>
      <point x="52" y="0" type="line"/>
      <point x="52" y="74" type="line"/>
      <point x="319" y="452" type="line"/>
      <point x="57" y="452" type="line"/>
      <point x="57" y="528" type="line"/>
      <point x="411" y="528" type="line"/>
    </contour>
  </outline>
</glyph>
<glyph name="braceleft" format="2">
  <advance width="411"/>
  <unicode hex="007B"/>
  <outline>
    <contour>
      <point x="169" y="528" type="line"/>
      <point x="169" y="714" type="line"/>
      <point x="170" y="714" type="line"/>
      <point x="172" y="763"/>
      <point x="213" y="842"/>
      <point x="279" y="898"/>
      <point x="364" y="929"/>
      <point x="411" y="929" type="qcurve"/>
      <point x="411" y="859" type="line"/>
      <point x="333" y="859"/>
      <point x="242" y="770"/>
      <point x="242" y="691" type="qcurve"/>
      <point x="241" y="691" type="line"/>
      <point x="241" y="500" type="line"/>
      <point x="158" y="421" type="line"/>
      <point x="241" y="340" type="line"/>
      <point x="241" y="149" type="line"/>
      <point x="242" y="149" type="line"/>
      <point x="242" y="71"/>
      <point x="333" y="-20"/>
      <point x="411" y="-20" type="qcurve"/>
      <point x="411" y="-90" type="line"/>
      <point x="400" y="-90" type="line" smooth="yes"/>
      <point x="355" y="-90"/>
      <point x="273" y="-57"/>
      <point x="211" y="1"/>
      <point x="172" y="79"/>
      <point x="170" y="125" type="qcurve"/>
      <point x="169" y="125" type="line"/>
      <point x="169" y="312" type="line"/>
      <point x="60" y="421" type="line"/>
    </contour>
  </outline>
</glyph>
<glyph name="bar" format="2">
  <advance width="191"/>
  <unicode hex="007C"/>
  <outline>
    <contour>
      <point x="131" y="-41" type="line"/>
      <point x="60" y="-41" type="line"/>
      <point x="60" y="883" type="line"/>
      <point x="131" y="883" type="line"/>
    </contour>
  </outline>
</glyph>
<glyph name="braceright" format="2">
  <advance width="411"/>
  <unicode hex="007D"/>
  <outline>
    <contour>
      <point x="0" y="-19" type="line"/>
      <point x="78" y="-19"/>
      <point x="171" y="71"/>
      <point x="171" y="150" type="qcurve"/>
      <point x="172" y="150" type="line"/>
      <point x="172" y="340" type="line"/>
      <point x="253" y="421" type="line"/>
      <point x="172" y="500" type="line"/>
      <point x="172" y="692" type="line"/>
      <point x="171" y="692" type="line"/>
      <point x="171" y="771"/>
      <point x="78" y="860"/>
      <point x="0" y="860" type="qcurve"/>
      <point x="0" y="930" type="line"/>
      <point x="12" y="930" type="line" smooth="yes"/>
      <point x="57" y="930"/>
      <point x="138" y="897"/>
      <point x="201" y="838"/>
      <point x="239" y="760"/>
      <point x="241" y="715" type="qcurve"/>
      <point x="242" y="715" type="line"/>
      <point x="242" y="528" type="line"/>
      <point x="351" y="421" type="line"/>
      <point x="242" y="311" type="line"/>
      <point x="242" y="126" type="line"/>
      <point x="241" y="126" type="line"/>
      <point x="239" y="77"/>
      <point x="199" y="-3"/>
      <point x="133" y="-60"/>
      <point x="48" y="-90"/>
      <point x="0" y="-90" type="qcurve"/>
    </contour>
  </outline>
</glyph>
<glyph name="asciitilde" format="2">
  <advance width="549"/>
  <unicode hex="007E"/>
  <outline>
    <contour>
      <point x="459" y="364" type="qcurve"/>
      <point x="529" y="364" type="line"/>
      <point x="529" y="353" type="line" smooth="yes"/>
      <point x="529" y="321"/>
      <point x="504" y="265"/>
      <point x="462" y="223"/>
      <point x="405" y="199"/>
      <point x="373" y="199" type="qcurve" smooth="yes"/>
      <point x="333" y="199"/>
      <point x="283" y="228"/>
      <point x="243" y="264"/>
      <point x="205" y="293"/>
      <point x="176" y="293" type="qcurve" smooth="yes"/>
      <point x="131" y="293"/>
      <point x="91" y="241"/>
      <point x="91" y="199" type="qcurve"/>
      <point x="20" y="199" type="line"/>
      <point x="20" y="211" type="line" smooth="yes"/>
      <point x="20" y="243"/>
      <point x="45" y="299"/>
      <point x="88" y="340"/>
      <point x="145" y="364"/>
      <point x="176" y="364" type="qcurve" smooth="yes"/>
      <point x="216" y="364"/>
      <point x="267" y="334"/>
      <point x="308" y="299"/>
      <point x="346" y="269"/>
      <point x="373" y="269" type="qcurve" smooth="yes"/>
      <point x="418" y="269"/>
      <point x="459" y="322"/>
    </contour>
  </outline>
</glyph>
<glyph name="uni0080" format="2">
  <advance width="524"/>
  <unicode hex="0080"/>
  <unicode hex="20AC"/>
  <unicode hex="F700"/>
  <outline>
    <contour>
      <point x="24" y="580" type="line"/>
      <point x="45" y="600"/>
      <point x="94" y="625"/>
      <point x="147" y="639"/>
      <point x="203" y="643"/>
      <point x="231" y="643" type="qcurve" smooth="yes"/>
      <point x="273" y="643"/>
      <point x="358" y="628"/>
      <point x="393" y="604" type="qcurve"/>
      <point x="395" y="614"/>
      <point x="396" y="633"/>
      <point x="396" y="643" type="qcurve"/>
      <point x="474" y="643" type="line"/>
      <point x="474" y="631" type="line" smooth="yes"/>
      <point x="474" y="608"/>
      <point x="463" y="565"/>
      <point x="449" y="547" type="qcurve"/>
      <point x="460" y="528"/>
      <point x="474" y="488"/>
      <point x="474" y="466" type="qcurve" smooth="yes"/>
      <point x="474" y="0" type="line"/>
      <point x="396" y="0" type="line"/>
      <point x="396" y="186" type="line" smooth="yes"/>
      <point x="396" y="218"/>
      <point x="362" y="257"/>
      <point x="311" y="280"/>
      <point x="252" y="288"/>
      <point x="228" y="288" type="qcurve"/>
      <point x="228" y="364" type="line"/>
      <point x="239" y="364" type="line" smooth="yes"/>
      <point x="281" y="364"/>
      <point x="361" y="346"/>
      <point x="396" y="322" type="qcurve"/>
      <point x="396" y="466" type="line" smooth="yes"/>
      <point x="396" y="488"/>
      <point x="383" y="507" type="qcurve" smooth="yes"/>
      <point x="371" y="527"/>
      <point x="336" y="550"/>
      <point x="296" y="564"/>
      <point x="252" y="568"/>
      <point x="231" y="568" type="qcurve" smooth="yes"/>
      <point x="212" y="568"/>
      <point x="170" y="566"/>
      <point x="130" y="558"/>
      <point x="92" y="542"/>
      <point x="78" y="528" type="qcurve"/>
    </contour>
  </outline>
</glyph>
<glyph name="uni0081" format="2">
  <advance width="18"/>
  <unicode hex="0081"/>
  <unicode hex="F701"/>
  <outline>
    <contour>
      <point x="-556" y="784" type="line"/>
      <point x="-142" y="784" type="line"/>
      <point x="-142" y="708" type="line"/>
      <point x="-556" y="708" type="line"/>
    </contour>
  </outline>
</glyph>
<glyph name="uni0082" format="2">
  <advance width="18"/>
  <unicode hex="0082"/>
  <unicode hex="201A"/>
  <unicode hex="F702"/>
  <outline>
    <contour>
      <point x="-142" y="887" type="line"/>
      <point x="-142" y="817" type="line" smooth="yes"/>
      <point x="-142" y="794"/>
      <point x="-159" y="754"/>
      <point x="-188" y="725"/>
      <point x="-228" y="708"/>
      <point x="-251" y="708" type="qcurve" smooth="yes"/>
      <point x="-556" y="708" type="line"/>
      <point x="-556" y="784" type="line"/>
      <point x="-251" y="784" type="line" smooth="yes"/>
      <point x="-237" y="784"/>
      <point x="-218" y="803"/>
      <point x="-218" y="817" type="qcurve" smooth="yes"/>
      <point x="-218" y="887" type="line"/>
    </contour>
  </outline>
</glyph>
<glyph name="uni0083" format="2">
  <advance width="18"/>
  <unicode hex="0083"/>
  <unicode hex="0192"/>
  <unicode hex="F703"/>
  <outline>
    <contour>
      <point x="-557" y="708" type="line"/>
      <point x="-557" y="784" type="line"/>
      <point x="-341" y="784" type="line"/>
      <point x="-342" y="790"/>
      <point x="-343" y="801"/>
      <point x="-343" y="807" type="qcurve" smooth="yes"/>
      <point x="-343" y="827"/>
      <point x="-325" y="863"/>
      <point x="-296" y="890"/>
      <point x="-259" y="906"/>
      <point x="-239" y="906" type="qcurve" smooth="yes"/>
      <point x="-220" y="906"/>
      <point x="-185" y="891"/>
      <point x="-158" y="866"/>
      <point x="-143" y="831"/>
      <point x="-143" y="811" type="qcurve" smooth="yes"/>
      <point x="-143" y="790"/>
      <point x="-158" y="753"/>
      <point x="-184" y="725"/>
      <point x="-220" y="708"/>
      <point x="-241" y="708" type="qcurve" smooth="yes"/>
    </contour>
    <contour>
      <point x="-273" y="808" type="qcurve" smooth="yes"/>
      <point x="-273" y="794"/>
      <point x="-255" y="777"/>
      <point x="-241" y="777" type="qcurve" smooth="yes"/>
      <point x="-227" y="777"/>
      <point x="-211" y="795"/>
      <point x="-211" y="809" type="qcurve" smooth="yes"/>
      <point x="-211" y="822"/>
      <point x="-230" y="838"/>
      <point x="-242" y="838" type="qcurve" smooth="yes"/>
      <point x="-255" y="838"/>
      <point x="-273" y="821"/>
    </contour>
  </outline>
</glyph>
<glyph name="uni0084" format="2">
  <advance width="18"/>
  <unicode hex="0084"/>
  <unicode hex="201E"/>
  <unicode hex="F704"/>
  <outline>
    <contour>
      <point x="-556" y="708" type="line"/>
      <point x="-556" y="784" type="line"/>
      <point x="-360" y="784" type="line" smooth="yes"/>
      <point x="-346" y="784"/>
      <point x="-329" y="803"/>
      <point x="-329" y="817" type="qcurve" smooth="yes"/>
      <point x="-329" y="887" type="line"/>
      <point x="-253" y="887" type="line"/>
      <point x="-253" y="817" type="line" smooth="yes"/>
      <point x="-253" y="798"/>
      <point x="-258" y="784" type="qcurve"/>
      <point x="-251" y="784" type="line" smooth="yes"/>
      <point x="-237" y="784"/>
      <point x="-218" y="803"/>
      <point x="-218" y="817" type="qcurve" smooth="yes"/>
      <point x="-218" y="887" type="line"/>
      <point x="-142" y="887" type="line"/>
      <point x="-142" y="817" type="line" smooth="yes"/>
      <point x="-142" y="794"/>
      <point x="-159" y="754"/>
      <point x="-188" y="725"/>
      <point x="-228" y="708"/>
      <point x="-251" y="708" type="qcurve" smooth="yes"/>
    </contour>
  </outline>
</glyph>
<glyph name="uni0085" format="2">
  <advance width="498"/>
  <unicode hex="0085"/>
  <unicode hex="2026"/>
  <outline>
    <contour>
      <point x="60" y="46" type="qcurve" smooth="yes"/>
      <point x="60" y="66"/>
      <point x="88" y="93"/>
      <point x="108" y="93" type="qcurve" smooth="yes"/>
      <point x="128" y="93"/>
      <point x="154" y="66"/>
      <point x="154" y="46" type="qcurve" smooth="yes"/>
      <point x="154" y="26"/>
      <point x="128" y="0"/>
      <point x="108" y="0" type="qcurve" smooth="yes"/>
      <point x="88" y="0"/>
      <point x="60" y="26"/>
    </contour>
    <contour>
      <point x="202" y="46" type="qcurve" smooth="yes"/>
      <point x="202" y="66"/>
      <point x="230" y="93"/>
      <point x="250" y="93" type="qcurve" smooth="yes"/>
      <point x="270" y="93"/>
      <point x="296" y="65"/>
      <point x="296" y="46" type="qcurve" smooth="yes"/>
      <point x="296" y="27"/>
      <point x="269" y="0"/>
      <point x="250" y="0" type="qcurve" smooth="yes"/>
      <point x="230" y="0"/>
      <point x="202" y="26"/>
    </contour>
    <contour>
      <point x="344" y="46" type="qcurve" smooth="yes"/>
      <point x="344" y="66"/>
      <point x="372" y="93"/>
      <point x="392" y="93" type="qcurve" smooth="yes"/>
      <point x="412" y="93"/>
      <point x="438" y="65"/>
      <point x="438" y="46" type="qcurve" smooth="yes"/>
      <point x="438" y="27"/>
      <point x="411" y="0"/>
      <point x="392" y="0" type="qcurve" smooth="yes"/>
      <point x="372" y="0"/>
      <point x="344" y="26"/>
    </contour>
  </outline>
</glyph>
<glyph name="uni0086" format="2">
  <advance width="23"/>
  <unicode hex="0086"/>
  <unicode hex="2020"/>
  <unicode hex="F705"/>
  <outline>
    <contour>
      <point x="-254" y="889" type="line"/>
      <point x="-177" y="889" type="line"/>
      <point x="-177" y="689" type="line"/>
      <point x="-254" y="689" type="line"/>
    </contour>
  </outline>
</glyph>
<glyph name="uni0087" format="2">
  <advance width="18"/>
  <unicode hex="0087"/>
  <unicode hex="2021"/>
  <unicode hex="F706"/>
  <outline>
    <contour>
      <point x="-62" y="689" type="line"/>
      <point x="-287" y="689" type="line" smooth="yes"/>
      <point x="-316" y="689"/>
      <point x="-357" y="708"/>
      <point x="-382" y="741"/>
      <point x="-394" y="786"/>
      <point x="-394" y="812" type="qcurve"/>
      <point x="-462" y="812" type="line"/>
      <point x="-462" y="880" type="line"/>
      <point x="-359" y="880" type="line" smooth="yes"/>
      <point x="-343" y="880"/>
      <point x="-328" y="865"/>
      <point x="-324" y="842"/>
      <point x="-325" y="816"/>
      <point x="-325" y="805" type="qcurve" smooth="yes"/>
      <point x="-325" y="784"/>
      <point x="-310" y="758"/>
      <point x="-287" y="758" type="qcurve" smooth="yes"/>
      <point x="-62" y="758" type="line"/>
    </contour>
  </outline>
</glyph>
<glyph name="uni0088" format="2">
  <advance width="18"/>
  <unicode hex="0088"/>
  <unicode hex="02C6"/>
  <unicode hex="F707"/>
  <outline>
    <contour>
      <point x="-142" y="758" type="line"/>
      <point x="-142" y="689" type="line"/>
      <point x="-271" y="689" type="line" smooth="yes"/>
      <point x="-294" y="689"/>
      <point x="-305" y="722"/>
      <point x="-308" y="765"/>
      <point x="-315" y="804"/>
      <point x="-333" y="810" type="qcurve"/>
      <point x="-339" y="804"/>
      <point x="-354" y="786"/>
      <point x="-372" y="770"/>
      <point x="-391" y="758"/>
      <point x="-401" y="758" type="qcurve" smooth="yes"/>
      <point x="-410" y="758"/>
      <point x="-429" y="771"/>
      <point x="-447" y="789"/>
      <point x="-463" y="807"/>
      <point x="-468" y="812" type="qcurve"/>
      <point x="-476" y="809"/>
      <point x="-486" y="794"/>
      <point x="-491" y="775"/>
      <point x="-492" y="756"/>
      <point x="-492" y="748" type="qcurve" smooth="yes"/>
      <point x="-492" y="736"/>
      <point x="-488" y="711"/>
      <point x="-486" y="699" type="qcurve"/>
      <point x="-554" y="685" type="line"/>
      <point x="-556" y="700"/>
      <point x="-561" y="731"/>
      <point x="-561" y="746" type="qcurve" smooth="yes"/>
      <point x="-561" y="769"/>
      <point x="-549" y="817"/>
      <point x="-524" y="857"/>
      <point x="-486" y="883"/>
      <point x="-459" y="883" type="qcurve" smooth="yes"/>
      <point x="-439" y="883"/>
      <point x="-411" y="851"/>
      <point x="-400" y="839" type="qcurve"/>
      <point x="-387" y="852"/>
      <point x="-362" y="880"/>
      <point x="-342" y="880" type="qcurve" smooth="yes"/>
      <point x="-319" y="880"/>
      <point x="-281" y="858"/>
      <point x="-253" y="823"/>
      <point x="-237" y="779"/>
      <point x="-237" y="758" type="qcurve"/>
    </contour>
  </outline>
</glyph>
<glyph name="uni0089" format="2">
  <advance width="22"/>
  <unicode hex="0089"/>
  <unicode hex="2030"/>
  <unicode hex="F708"/>
  <outline>
    <contour>
      <point x="-272" y="824" type="line"/>
      <point x="-272" y="889" type="line"/>
      <point x="-204" y="889" type="line"/>
      <point x="-204" y="824" type="line"/>
      <point x="-136" y="824" type="line"/>
      <point x="-136" y="755" type="line"/>
      <point x="-204" y="755" type="line"/>
      <point x="-204" y="689" type="line"/>
      <point x="-272" y="689" type="line"/>
      <point x="-272" y="755" type="line"/>
      <point x="-339" y="755" type="line"/>
      <point x="-339" y="824" type="line"/>
    </contour>
  </outline>
</glyph>
<glyph name="uni008A" format="2">
  <advance width="19"/>
  <unicode hex="008A"/>
  <unicode hex="0160"/>
  <unicode hex="F709"/>
  <outline>
    <contour>
      <point x="-384" y="689" type="line"/>
      <point x="-384" y="779" type="line" smooth="yes"/>
      <point x="-384" y="802"/>
      <point x="-367" y="842"/>
      <point x="-337" y="871"/>
      <point x="-297" y="888"/>
      <point x="-274" y="888" type="qcurve" smooth="yes"/>
      <point x="-44" y="888" type="line"/>
      <point x="-44" y="812" type="line"/>
      <point x="-275" y="812" type="line" smooth="yes"/>
      <point x="-299" y="812"/>
      <point x="-307" y="782"/>
      <point x="-307" y="762" type="qcurve" smooth="yes"/>
      <point x="-307" y="689" type="line"/>
    </contour>
  </outline>
</glyph>
<glyph name="uni008B" format="2">
  <advance width="23"/>
  <unicode hex="008B"/>
  <unicode hex="2039"/>
  <unicode hex="F70A"/>
  <outline>
    <contour>
      <point x="-154" y="889" type="line"/>
      <point x="-77" y="889" type="line"/>
      <point x="-77" y="689" type="line"/>
      <point x="-154" y="689" type="line"/>
    </contour>
  </outline>
</glyph>
<glyph name="uni008C" format="2">
  <advance width="18"/>
  <unicode hex="008C"/>
  <unicode hex="0152"/>
  <unicode hex="F70B"/>
  <outline>
    <contour>
      <point x="49" y="689" type="line"/>
      <point x="-176" y="689" type="line" smooth="yes"/>
      <point x="-205" y="689"/>
      <point x="-246" y="708"/>
      <point x="-271" y="741"/>
      <point x="-283" y="786"/>
      <point x="-283" y="812" type="qcurve"/>
      <point x="-351" y="812" type="line"/>
      <point x="-351" y="880" type="line"/>
      <point x="-248" y="880" type="line" smooth="yes"/>
      <point x="-232" y="880"/>
      <point x="-217" y="865"/>
      <point x="-213" y="842"/>
      <point x="-214" y="816"/>
      <point x="-214" y="805" type="qcurve" smooth="yes"/>
      <point x="-214" y="784"/>
      <point x="-199" y="758"/>
      <point x="-176" y="758" type="qcurve" smooth="yes"/>
      <point x="49" y="758" type="line"/>
    </contour>
  </outline>
</glyph>
<glyph name="uni008D" format="2">
  <advance width="18"/>
  <unicode hex="008D"/>
  <unicode hex="F70C"/>
  <outline>
    <contour>
      <point x="39" y="758" type="line"/>
      <point x="39" y="689" type="line"/>
      <point x="-90" y="689" type="line" smooth="yes"/>
      <point x="-113" y="689"/>
      <point x="-124" y="722"/>
      <point x="-127" y="765"/>
      <point x="-134" y="804"/>
      <point x="-152" y="810" type="qcurve"/>
      <point x="-158" y="804"/>
      <point x="-173" y="786"/>
      <point x="-191" y="770"/>
      <point x="-210" y="758"/>
      <point x="-220" y="758" type="qcurve" smooth="yes"/>
      <point x="-229" y="758"/>
      <point x="-248" y="771"/>
      <point x="-266" y="789"/>
      <point x="-282" y="807"/>
      <point x="-287" y="812" type="qcurve"/>
      <point x="-295" y="809"/>
      <point x="-305" y="794"/>
      <point x="-310" y="775"/>
      <point x="-311" y="756"/>
      <point x="-311" y="748" type="qcurve" smooth="yes"/>
      <point x="-311" y="736"/>
      <point x="-307" y="711"/>
      <point x="-305" y="699" type="qcurve"/>
      <point x="-373" y="685" type="line"/>
      <point x="-375" y="700"/>
      <point x="-380" y="731"/>
      <point x="-380" y="746" type="qcurve" smooth="yes"/>
      <point x="-380" y="769"/>
      <point x="-368" y="817"/>
      <point x="-343" y="857"/>
      <point x="-305" y="883"/>
      <point x="-278" y="883" type="qcurve" smooth="yes"/>
      <point x="-258" y="883"/>
      <point x="-230" y="851"/>
      <point x="-219" y="839" type="qcurve"/>
      <point x="-206" y="852"/>
      <point x="-181" y="880"/>
      <point x="-161" y="880" type="qcurve" smooth="yes"/>
      <point x="-138" y="880"/>
      <point x="-100" y="858"/>
      <point x="-72" y="823"/>
      <point x="-56" y="779"/>
      <point x="-56" y="758" type="qcurve"/>
    </contour>
  </outline>
</glyph>
<glyph name="uni008E" format="2">
  <advance width="22"/>
  <unicode hex="008E"/>
  <unicode hex="017D"/>
  <unicode hex="F70D"/>
  <outline>
    <contour>
      <point x="-146" y="824" type="line"/>
      <point x="-146" y="889" type="line"/>
      <point x="-78" y="889" type="line"/>
      <point x="-78" y="824" type="line"/>
      <point x="-10" y="824" type="line"/>
      <point x="-10" y="755" type="line"/>
      <point x="-78" y="755" type="line"/>
      <point x="-78" y="689" type="line"/>
      <point x="-146" y="689" type="line"/>
      <point x="-146" y="755" type="line"/>
      <point x="-213" y="755" type="line"/>
      <point x="-213" y="824" type="line"/>
    </contour>
  </outline>
</glyph>
<glyph name="uni008F" format="2">
  <advance width="20"/>
  <unicode hex="008F"/>
  <unicode hex="F70E"/>
  <outline>
    <contour>
      <point x="-341" y="689" type="line"/>
      <point x="-341" y="779" type="line" smooth="yes"/>
      <point x="-341" y="802"/>
      <point x="-324" y="842"/>
      <point x="-294" y="871"/>
      <point x="-254" y="888"/>
      <point x="-231" y="888" type="qcurve" smooth="yes"/>
      <point x="-40" y="888" type="line"/>
      <point x="-40" y="812" type="line"/>
      <point x="-232" y="812" type="line" smooth="yes"/>
      <point x="-256" y="812"/>
      <point x="-264" y="782"/>
      <point x="-264" y="762" type="qcurve" smooth="yes"/>
      <point x="-264" y="689" type="line"/>
    </contour>
  </outline>
</glyph>
<glyph name="uni0091" format="2">
  <advance width="218"/>
  <unicode hex="0091"/>
  <unicode hex="2018"/>
  <outline>
    <contour>
      <point x="116" y="467" type="line"/>
      <point x="99" y="484"/>
      <point x="76" y="515"/>
      <point x="63" y="549"/>
      <point x="57" y="587"/>
      <point x="57" y="611" type="qcurve" smooth="yes"/>
      <point x="57" y="637"/>
      <point x="64" y="686"/>
      <point x="69" y="712" type="qcurve"/>
      <point x="145" y="704" type="line"/>
      <point x="141" y="680"/>
      <point x="134" y="635"/>
      <point x="134" y="610" type="qcurve" smooth="yes"/>
      <point x="134" y="579"/>
      <point x="150" y="542"/>
      <point x="169" y="518" type="qcurve"/>
    </contour>
  </outline>
</glyph>
<glyph name="uni0092" format="2">
  <advance width="219"/>
  <unicode hex="0092"/>
  <unicode hex="2019"/>
  <outline>
    <contour>
      <point x="112" y="716" type="line"/>
      <point x="129" y="699"/>
      <point x="150" y="668"/>
      <point x="164" y="634"/>
      <point x="169" y="596"/>
      <point x="169" y="572" type="qcurve" smooth="yes"/>
      <point x="169" y="546"/>
      <point x="162" y="497"/>
      <point x="157" y="471" type="qcurve"/>
      <point x="82" y="479" type="line"/>
      <point x="86" y="503"/>
      <point x="93" y="548"/>
      <point x="93" y="573" type="qcurve" smooth="yes"/>
      <point x="93" y="599"/>
      <point x="79" y="647"/>
      <point x="56" y="664" type="qcurve"/>
    </contour>
  </outline>
</glyph>
<glyph name="uni0093" format="2">
  <advance width="437"/>
  <unicode hex="0093"/>
  <unicode hex="201C"/>
  <outline>
    <contour>
      <point x="148" y="467" type="line"/>
      <point x="131" y="484"/>
      <point x="108" y="515"/>
      <point x="95" y="549"/>
      <point x="89" y="587"/>
      <point x="89" y="611" type="qcurve" smooth="yes"/>
      <point x="89" y="637"/>
      <point x="96" y="686"/>
      <point x="101" y="712" type="qcurve"/>
      <point x="177" y="704" type="line"/>
      <point x="173" y="680"/>
      <point x="166" y="635"/>
      <point x="166" y="610" type="qcurve" smooth="yes"/>
      <point x="166" y="579"/>
      <point x="182" y="542"/>
      <point x="201" y="518" type="qcurve"/>
    </contour>
    <contour>
      <point x="306" y="467" type="line"/>
      <point x="273" y="500"/>
      <point x="248" y="564"/>
      <point x="248" y="611" type="qcurve" smooth="yes"/>
      <point x="248" y="637"/>
      <point x="255" y="686"/>
      <point x="260" y="712" type="qcurve"/>
      <point x="335" y="704" type="line"/>
      <point x="331" y="681"/>
      <point x="325" y="633"/>
      <point x="325" y="610" type="qcurve" smooth="yes"/>
      <point x="325" y="584"/>
      <point x="339" y="536"/>
      <point x="361" y="519" type="qcurve"/>
    </contour>
  </outline>
</glyph>
<glyph name="uni0094" format="2">
  <advance width="408"/>
  <unicode hex="0094"/>
  <unicode hex="201D"/>
  <outline>
    <contour>
      <point x="120" y="716" type="line"/>
      <point x="137" y="699"/>
      <point x="158" y="668"/>
      <point x="172" y="634"/>
      <point x="177" y="596"/>
      <point x="177" y="572" type="qcurve" smooth="yes"/>
      <point x="177" y="546"/>
      <point x="170" y="497"/>
      <point x="165" y="471" type="qcurve"/>
      <point x="90" y="479" type="line"/>
      <point x="94" y="503"/>
      <point x="101" y="548"/>
      <point x="101" y="573" type="qcurve" smooth="yes"/>
      <point x="101" y="599"/>
      <point x="87" y="647"/>
      <point x="64" y="664" type="qcurve"/>
    </contour>
    <contour>
      <point x="276" y="716" type="line"/>
      <point x="293" y="699"/>
      <point x="316" y="668"/>
      <point x="329" y="634"/>
      <point x="335" y="596"/>
      <point x="335" y="572" type="qcurve" smooth="yes"/>
      <point x="335" y="546"/>
      <point x="328" y="497"/>
      <point x="323" y="471" type="qcurve"/>
      <point x="248" y="479" type="line"/>
      <point x="252" y="503"/>
      <point x="259" y="548"/>
      <point x="259" y="573" type="qcurve" smooth="yes"/>
      <point x="259" y="589"/>
      <point x="256" y="613"/>
      <point x="248" y="633"/>
      <point x="234" y="653"/>
      <point x="223" y="664" type="qcurve"/>
    </contour>
  </outline>
</glyph>
<glyph name="uni0095" format="2">
  <advance width="363"/>
  <unicode hex="0095"/>
  <unicode hex="2022"/>
  <outline>
    <contour>
      <point x="181" y="329" type="qcurve" smooth="yes"/>
      <point x="208" y="329"/>
      <point x="257" y="308"/>
      <point x="294" y="272"/>
      <point x="316" y="223"/>
      <point x="316" y="196" type="qcurve" smooth="yes"/>
      <point x="316" y="169"/>
      <point x="294" y="120"/>
      <point x="257" y="84"/>
      <point x="208" y="63"/>
      <point x="181" y="63" type="qcurve" smooth="yes"/>
      <point x="154" y="63"/>
      <point x="105" y="84"/>
      <point x="68" y="121"/>
      <point x="46" y="169"/>
      <point x="46" y="196" type="qcurve" smooth="yes"/>
      <point x="46" y="223"/>
      <point x="68" y="271"/>
      <point x="105" y="308"/>
      <point x="154" y="329"/>
    </contour>
  </outline>
</glyph>
<glyph name="uni0096" format="2">
  <advance width="479"/>
  <unicode hex="0096"/>
  <unicode hex="2013"/>
  <outline>
    <contour>
      <point x="419" y="225" type="line"/>
      <point x="60" y="225" type="line"/>
      <point x="60" y="297" type="line"/>
      <point x="419" y="297" type="line"/>
    </contour>
  </outline>
</glyph>
<glyph name="uni0097" format="2">
  <advance width="459"/>
  <unicode hex="0097"/>
  <unicode hex="2014"/>
  <outline>
    <contour>
      <point x="459" y="225" type="line"/>
      <point x="0" y="225" type="line"/>
      <point x="0" y="297" type="line"/>
      <point x="459" y="297" type="line"/>
    </contour>
  </outline>
</glyph>
<glyph name="uni0098" format="2">
  <advance width="19"/>
  <unicode hex="0098"/>
  <unicode hex="02DC"/>
  <unicode hex="F710"/>
  <outline>
    <contour>
      <point x="-61" y="784" type="line"/>
      <point x="-61" y="709" type="line"/>
      <point x="-292" y="709" type="line" smooth="yes"/>
      <point x="-315" y="709"/>
      <point x="-354" y="726"/>
      <point x="-384" y="755"/>
      <point x="-401" y="795"/>
      <point x="-401" y="817" type="qcurve" smooth="yes"/>
      <point x="-401" y="908" type="line"/>
      <point x="-324" y="908" type="line"/>
      <point x="-324" y="817" type="line" smooth="yes"/>
      <point x="-324" y="803"/>
      <point x="-307" y="784"/>
      <point x="-292" y="784" type="qcurve" smooth="yes"/>
    </contour>
  </outline>
</glyph>
<glyph name="uni0099" format="2">
  <advance width="21"/>
  <unicode hex="0099"/>
  <unicode hex="2122"/>
  <unicode hex="F711"/>
  <outline>
    <contour>
      <point x="-123" y="663" type="qcurve" smooth="yes"/>
      <point x="-165" y="663"/>
      <point x="-222" y="721"/>
      <point x="-222" y="763" type="qcurve" smooth="yes"/>
      <point x="-222" y="805"/>
      <point x="-164" y="862"/>
      <point x="-122" y="862" type="qcurve" smooth="yes"/>
      <point x="-78" y="862"/>
      <point x="-19" y="807"/>
      <point x="-19" y="762" type="qcurve" smooth="yes"/>
      <point x="-19" y="741"/>
      <point x="-36" y="704"/>
      <point x="-65" y="678"/>
      <point x="-102" y="663"/>
    </contour>
    <contour>
      <point x="-123" y="794" type="qcurve" smooth="yes"/>
      <point x="-137" y="794"/>
      <point x="-154" y="776"/>
      <point x="-154" y="762" type="qcurve" smooth="yes"/>
      <point x="-154" y="749"/>
      <point x="-131" y="731"/>
      <point x="-119" y="731" type="qcurve" smooth="yes"/>
      <point x="-105" y="731"/>
      <point x="-87" y="749"/>
      <point x="-87" y="763" type="qcurve" smooth="yes"/>
      <point x="-87" y="777"/>
      <point x="-110" y="794"/>
    </contour>
  </outline>
</glyph>
<glyph name="uni009A" format="2">
  <advance width="22"/>
  <unicode hex="009A"/>
  <unicode hex="0161"/>
  <unicode hex="F712"/>
  <outline>
    <contour>
      <point x="-179" y="778" type="line"/>
      <point x="-179" y="709" type="line"/>
      <point x="-260" y="709" type="line" smooth="yes"/>
      <point x="-270" y="709"/>
      <point x="-291" y="724"/>
      <point x="-312" y="744"/>
      <point x="-329" y="764"/>
      <point x="-335" y="770" type="qcurve"/>
      <point x="-388" y="716" type="line" smooth="yes"/>
      <point x="-393" y="711"/>
      <point x="-408" y="706"/>
      <point x="-416" y="706" type="qcurve" smooth="yes"/>
      <point x="-443" y="706"/>
      <point x="-492" y="723"/>
      <point x="-528" y="756"/>
      <point x="-549" y="802"/>
      <point x="-549" y="830" type="qcurve" smooth="yes"/>
      <point x="-549" y="857"/>
      <point x="-525" y="903"/>
      <point x="-487" y="939"/>
      <point x="-439" y="962"/>
      <point x="-414" y="966" type="qcurve" smooth="yes"/>
      <point x="-375" y="972"/>
      <point x="-335" y="972" type="qcurve" smooth="yes"/>
      <point x="-321" y="972"/>
      <point x="-297" y="967"/>
      <point x="-283" y="967" type="qcurve" smooth="yes"/>
      <point x="-259" y="967"/>
      <point x="-222" y="982"/>
      <point x="-204" y="996" type="qcurve"/>
      <point x="-162" y="945" type="line"/>
      <point x="-170" y="934"/>
      <point x="-200" y="917"/>
      <point x="-236" y="906"/>
      <point x="-271" y="900"/>
      <point x="-284" y="900" type="qcurve" smooth="yes"/>
      <point x="-299" y="900"/>
      <point x="-330" y="904"/>
      <point x="-345" y="904" type="qcurve" smooth="yes"/>
      <point x="-362" y="904"/>
      <point x="-408" y="899"/>
      <point x="-450" y="883"/>
      <point x="-479" y="855"/>
      <point x="-479" y="832" type="qcurve" smooth="yes"/>
      <point x="-479" y="807"/>
      <point x="-450" y="779"/>
      <point x="-426" y="776" type="qcurve"/>
      <point x="-359" y="841" type="line" smooth="yes"/>
      <point x="-350" y="850"/>
      <point x="-336" y="850" type="qcurve" smooth="yes"/>
      <point x="-328" y="850"/>
      <point x="-317" y="848"/>
      <point x="-311" y="842" type="qcurve" smooth="yes"/>
      <point x="-244" y="778" type="line"/>
    </contour>
  </outline>
</glyph>
<glyph name="uni009B" format="2">
  <advance width="23"/>
  <unicode hex="009B"/>
  <unicode hex="203A"/>
  <unicode hex="F713"/>
  <outline>
    <contour>
      <point x="-244" y="1130" type="line"/>
      <point x="-167" y="1130" type="line"/>
      <point x="-167" y="931" type="line"/>
      <point x="-244" y="931" type="line"/>
    </contour>
  </outline>
</glyph>
<glyph name="uni009C" format="2">
  <advance width="18"/>
  <unicode hex="009C"/>
  <unicode hex="0153"/>
  <unicode hex="F714"/>
  <outline>
    <contour>
      <point x="-62" y="931" type="line"/>
      <point x="-287" y="931" type="line" smooth="yes"/>
      <point x="-344" y="931"/>
      <point x="-394" y="1001"/>
      <point x="-394" y="1053" type="qcurve"/>
      <point x="-462" y="1053" type="line"/>
      <point x="-462" y="1121" type="line"/>
      <point x="-359" y="1121" type="line" smooth="yes"/>
      <point x="-342" y="1121"/>
      <point x="-327" y="1106"/>
      <point x="-323" y="1084"/>
      <point x="-325" y="1058"/>
      <point x="-325" y="1047" type="qcurve" smooth="yes"/>
      <point x="-325" y="1027"/>
      <point x="-310" y="999"/>
      <point x="-287" y="999" type="qcurve" smooth="yes"/>
      <point x="-62" y="999" type="line"/>
    </contour>
  </outline>
</glyph>
<glyph name="uni009D" format="2">
  <advance width="18"/>
  <unicode hex="009D"/>
  <unicode hex="F715"/>
  <outline>
    <contour>
      <point x="-142" y="999" type="line"/>
      <point x="-142" y="931" type="line"/>
      <point x="-271" y="931" type="line" smooth="yes"/>
      <point x="-294" y="931"/>
      <point x="-305" y="965"/>
      <point x="-308" y="1008"/>
      <point x="-315" y="1047"/>
      <point x="-333" y="1052" type="qcurve"/>
      <point x="-338" y="1047"/>
      <point x="-354" y="1030"/>
      <point x="-372" y="1013"/>
      <point x="-392" y="1000"/>
      <point x="-401" y="1000" type="qcurve" smooth="yes"/>
      <point x="-410" y="1000"/>
      <point x="-429" y="1013"/>
      <point x="-448" y="1031"/>
      <point x="-464" y="1049"/>
      <point x="-468" y="1053" type="qcurve"/>
      <point x="-476" y="1050"/>
      <point x="-485" y="1035"/>
      <point x="-490" y="1016"/>
      <point x="-492" y="996"/>
      <point x="-492" y="989" type="qcurve" smooth="yes"/>
      <point x="-492" y="977"/>
      <point x="-488" y="953"/>
      <point x="-486" y="942" type="qcurve"/>
      <point x="-554" y="927" type="line"/>
      <point x="-556" y="942"/>
      <point x="-561" y="972"/>
      <point x="-561" y="987" type="qcurve" smooth="yes"/>
      <point x="-561" y="1010"/>
      <point x="-550" y="1058"/>
      <point x="-525" y="1098"/>
      <point x="-486" y="1124"/>
      <point x="-459" y="1124" type="qcurve" smooth="yes"/>
      <point x="-439" y="1124"/>
      <point x="-414" y="1096"/>
      <point x="-400" y="1082" type="qcurve"/>
      <point x="-386" y="1096"/>
      <point x="-363" y="1121"/>
      <point x="-342" y="1121" type="qcurve" smooth="yes"/>
      <point x="-317" y="1121"/>
      <point x="-279" y="1100"/>
      <point x="-253" y="1065"/>
      <point x="-238" y="1022"/>
      <point x="-237" y="999" type="qcurve"/>
    </contour>
  </outline>
</glyph>
<glyph name="uni009E" format="2">
  <advance width="22"/>
  <unicode hex="009E"/>
  <unicode hex="017E"/>
  <unicode hex="F716"/>
  <outline>
    <contour>
      <point x="-272" y="1065" type="line"/>
      <point x="-272" y="1130" type="line"/>
      <point x="-204" y="1130" type="line"/>
      <point x="-204" y="1065" type="line"/>
      <point x="-136" y="1065" type="line"/>
      <point x="-136" y="997" type="line"/>
      <point x="-204" y="997" type="line"/>
      <point x="-204" y="931" type="line"/>
      <point x="-272" y="931" type="line"/>
      <point x="-272" y="997" type="line"/>
      <point x="-339" y="997" type="line"/>
      <point x="-339" y="1065" type="line"/>
    </contour>
  </outline>
</glyph>
<glyph name="uni009F" format="2">
  <advance width="19"/>
  <unicode hex="009F"/>
  <unicode hex="0178"/>
  <unicode hex="F717"/>
  <outline>
    <contour>
      <point x="-350" y="931" type="line"/>
      <point x="-350" y="1022" type="line" smooth="yes"/>
      <point x="-350" y="1045"/>
      <point x="-332" y="1084"/>
      <point x="-302" y="1113"/>
      <point x="-262" y="1129"/>
      <point x="-240" y="1129" type="qcurve" smooth="yes"/>
      <point x="-10" y="1129" type="line"/>
      <point x="-10" y="1053" type="line"/>
      <point x="-241" y="1053" type="line" smooth="yes"/>
      <point x="-265" y="1053"/>
      <point x="-273" y="1025"/>
      <point x="-273" y="1005" type="qcurve" smooth="yes"/>
      <point x="-273" y="931" type="line"/>
    </contour>
  </outline>
</glyph>
<glyph name="exclamdown" format="2">
  <advance width="618"/>
  <unicode hex="00A1"/>
  <unicode hex="0E01"/>
  <outline>
    <contour>
      <point x="80" y="0" type="line"/>
      <point x="80" y="498" type="line" smooth="yes"/>
      <point x="80" y="521"/>
      <point x="104" y="554"/>
      <point x="142" y="578"/>
      <point x="190" y="594"/>
      <point x="239" y="603"/>
      <point x="285" y="606"/>
      <point x="301" y="606" type="qcurve" smooth="yes"/>
      <point x="342" y="606"/>
      <point x="430" y="587"/>
      <point x="502" y="545"/>
      <point x="548" y="477"/>
      <point x="548" y="427" type="qcurve" smooth="yes"/>
      <point x="548" y="0" type="line"/>
      <point x="470" y="0" type="line"/>
      <point x="470" y="427" type="line" smooth="yes"/>
      <point x="470" y="461"/>
      <point x="431" y="501"/>
      <point x="375" y="523"/>
      <point x="311" y="530"/>
      <point x="285" y="530" type="qcurve" smooth="yes"/>
      <point x="278" y="530"/>
      <point x="236" y="528"/>
      <point x="191" y="520"/>
      <point x="157" y="506"/>
      <point x="157" y="495" type="qcurve" smooth="yes"/>
      <point x="157" y="0" type="line"/>
    </contour>
  </outline>
</glyph>
<glyph name="cent" format="2">
  <advance width="564"/>
  <unicode hex="00A2"/>
  <unicode hex="0E02"/>
  <outline>
    <contour>
      <point x="51" y="520" type="line"/>
      <point x="51" y="596" type="line"/>
      <point x="161" y="596" type="line" smooth="yes"/>
      <point x="208" y="596"/>
      <point x="270" y="537"/>
      <point x="270" y="489" type="qcurve" smooth="yes"/>
      <point x="270" y="447"/>
      <point x="243" y="390"/>
      <point x="205" y="341"/>
      <point x="167" y="293"/>
      <point x="155" y="260" type="qcurve" smooth="yes"/>
      <point x="147" y="237"/>
      <point x="146" y="192"/>
      <point x="146" y="168" type="qcurve" smooth="yes"/>
      <point x="146" y="142"/>
      <point x="170" y="103"/>
      <point x="208" y="78"/>
      <point x="255" y="66"/>
      <point x="278" y="66" type="qcurve" smooth="yes"/>
      <point x="302" y="66"/>
      <point x="348" y="78"/>
      <point x="384" y="103"/>
      <point x="406" y="141"/>
      <point x="406" y="168" type="qcurve" smooth="yes"/>
      <point x="406" y="596" type="line"/>
      <point x="484" y="596" type="line"/>
      <point x="484" y="168" type="line" smooth="yes"/>
      <point x="484" y="126"/>
      <point x="449" y="59"/>
      <point x="390" y="14"/>
      <point x="316" y="-10"/>
      <point x="277" y="-10" type="qcurve" smooth="yes"/>
      <point x="244" y="-10"/>
      <point x="175" y="9"/>
      <point x="118" y="46"/>
      <point x="78" y="101"/>
      <point x="73" y="138" type="qcurve" smooth="yes"/>
      <point x="70" y="158"/>
      <point x="70" y="198"/>
      <point x="70" y="218" type="qcurve" smooth="yes"/>
      <point x="70" y="263"/>
      <point x="109" y="336"/>
      <point x="155" y="400"/>
      <point x="194" y="458"/>
      <point x="194" y="489" type="qcurve" smooth="yes"/>
      <point x="194" y="503"/>
      <point x="175" y="520"/>
      <point x="161" y="520" type="qcurve" smooth="yes"/>
    </contour>
  </outline>
</glyph>
<glyph name="sterling" format="2">
  <advance width="590"/>
  <unicode hex="00A3"/>
  <unicode hex="0E03"/>
  <outline>
    <contour>
      <point x="74" y="610" type="line"/>
      <point x="134" y="550" type="line"/>
      <point x="180" y="596" type="line"/>
      <point x="186" y="596" type="line" smooth="yes"/>
      <point x="235" y="596"/>
      <point x="296" y="541"/>
      <point x="296" y="490" type="qcurve" smooth="yes"/>
      <point x="296" y="448"/>
      <point x="262" y="383"/>
      <point x="219" y="324"/>
      <point x="180" y="269"/>
      <point x="175" y="237" type="qcurve" smooth="yes"/>
      <point x="173" y="225"/>
      <point x="173" y="201"/>
      <point x="173" y="188" type="qcurve" smooth="yes"/>
      <point x="173" y="125"/>
      <point x="244" y="66"/>
      <point x="305" y="66" type="qcurve" smooth="yes"/>
      <point x="328" y="66"/>
      <point x="374" y="78"/>
      <point x="410" y="103"/>
      <point x="433" y="141"/>
      <point x="433" y="168" type="qcurve" smooth="yes"/>
      <point x="433" y="596" type="line"/>
      <point x="509" y="596" type="line"/>
      <point x="509" y="168" type="line" smooth="yes"/>
      <point x="509" y="126"/>
      <point x="474" y="60"/>
      <point x="416" y="14"/>
      <point x="342" y="-10"/>
      <point x="303" y="-10" type="qcurve" smooth="yes"/>
      <point x="259" y="-10"/>
      <point x="182" y="16"/>
      <point x="126" y="66"/>
      <point x="94" y="138"/>
      <point x="94" y="184" type="qcurve" smooth="yes"/>
      <point x="94" y="215"/>
      <point x="99" y="271"/>
      <point x="115" y="300" type="qcurve" smooth="yes"/>
      <point x="126" y="321"/>
      <point x="162" y="369"/>
      <point x="196" y="419"/>
      <point x="220" y="470"/>
      <point x="220" y="492" type="qcurve" smooth="yes"/>
      <point x="220" y="499"/>
      <point x="216" y="513"/>
      <point x="210" y="517" type="qcurve"/>
      <point x="134" y="444" type="line"/>
      <point x="20" y="558" type="line"/>
    </contour>
  </outline>
</glyph>
<glyph name="currency" format="2">
  <advance width="628"/>
  <unicode hex="00A4"/>
  <unicode hex="0E04"/>
  <outline>
    <contour>
      <point x="80" y="0" type="line"/>
      <point x="80" y="426" type="line" smooth="yes"/>
      <point x="80" y="471"/>
      <point x="123" y="539"/>
      <point x="190" y="584"/>
      <point x="272" y="606"/>
      <point x="311" y="606" type="qcurve" smooth="yes"/>
      <point x="353" y="606"/>
      <point x="438" y="583"/>
      <point x="506" y="537"/>
      <point x="548" y="466"/>
      <point x="548" y="418" type="qcurve" smooth="yes"/>
      <point x="548" y="0" type="line"/>
      <point x="470" y="0" type="line"/>
      <point x="470" y="426" type="line" smooth="yes"/>
      <point x="470" y="455"/>
      <point x="438" y="494"/>
      <point x="391" y="519"/>
      <point x="337" y="530"/>
      <point x="314" y="530" type="qcurve" smooth="yes"/>
      <point x="287" y="530"/>
      <point x="232" y="518"/>
      <point x="186" y="491"/>
      <point x="157" y="448"/>
      <point x="157" y="416" type="qcurve" smooth="yes"/>
      <point x="157" y="293" type="line"/>
      <point x="194" y="325"/>
      <point x="278" y="342"/>
      <point x="325" y="342" type="qcurve"/>
      <point x="325" y="266" type="line"/>
      <point x="251" y="266"/>
      <point x="180" y="230"/>
      <point x="154" y="162"/>
      <point x="157" y="63"/>
      <point x="157" y="0" type="qcurve"/>
    </contour>
  </outline>
</glyph>
<glyph name="yen" format="2">
  <advance width="628"/>
  <unicode hex="00A5"/>
  <unicode hex="0E05"/>
  <outline>
    <contour>
      <point x="80" y="0" type="line"/>
      <point x="80" y="442" type="line" smooth="yes"/>
      <point x="80" y="476"/>
      <point x="102" y="526"/>
      <point x="138" y="565"/>
      <point x="187" y="595"/>
      <point x="214" y="608" type="qcurve"/>
      <point x="313" y="518" type="line"/>
      <point x="414" y="608" type="line"/>
      <point x="420" y="605" type="line"/>
      <point x="420" y="604" type="line"/>
      <point x="446" y="591"/>
      <point x="487" y="566"/>
      <point x="519" y="535"/>
      <point x="541" y="492"/>
      <point x="546" y="462" type="qcurve" smooth="yes"/>
      <point x="548" y="452"/>
      <point x="548" y="447" type="qcurve" smooth="yes"/>
      <point x="548" y="0" type="line"/>
      <point x="470" y="0" type="line"/>
      <point x="470" y="441" type="line" smooth="yes"/>
      <point x="470" y="465"/>
      <point x="443" y="503"/>
      <point x="424" y="517" type="qcurve"/>
      <point x="313" y="425" type="line"/>
      <point x="202" y="517" type="line"/>
      <point x="184" y="503"/>
      <point x="157" y="463"/>
      <point x="157" y="440" type="qcurve" smooth="yes"/>
      <point x="157" y="293" type="line"/>
      <point x="194" y="325"/>
      <point x="278" y="342"/>
      <point x="325" y="342" type="qcurve"/>
      <point x="325" y="266" type="line"/>
      <point x="251" y="266"/>
      <point x="180" y="231"/>
      <point x="154" y="163"/>
      <point x="157" y="64"/>
      <point x="157" y="0" type="qcurve"/>
    </contour>
  </outline>
</glyph>
<glyph name="brokenbar" format="2">
  <advance width="645"/>
  <unicode hex="00A6"/>
  <unicode hex="0E06"/>
  <outline>
    <contour>
      <point x="76" y="610" type="line"/>
      <point x="136" y="550" type="line"/>
      <point x="182" y="596" type="line"/>
      <point x="188" y="596" type="line" smooth="yes"/>
      <point x="238" y="596"/>
      <point x="299" y="539"/>
      <point x="299" y="488" type="qcurve" smooth="yes"/>
      <point x="299" y="445"/>
      <point x="260" y="376"/>
      <point x="214" y="314"/>
      <point x="175" y="257"/>
      <point x="175" y="227" type="qcurve" smooth="yes"/>
      <point x="175" y="191"/>
      <point x="208" y="132"/>
      <point x="260" y="90"/>
      <point x="326" y="67"/>
      <point x="360" y="67" type="qcurve" smooth="yes"/>
      <point x="383" y="67"/>
      <point x="429" y="79"/>
      <point x="466" y="104"/>
      <point x="489" y="142"/>
      <point x="489" y="168" type="qcurve" smooth="yes"/>
      <point x="489" y="596" type="line"/>
      <point x="565" y="596" type="line"/>
      <point x="565" y="168" type="line" smooth="yes"/>
      <point x="565" y="126"/>
      <point x="530" y="60"/>
      <point x="472" y="15"/>
      <point x="398" y="-9"/>
      <point x="359" y="-9" type="qcurve" smooth="yes"/>
      <point x="303" y="-9"/>
      <point x="209" y="31"/>
      <point x="171" y="73" type="qcurve"/>
      <point x="163" y="0" type="line"/>
      <point x="97" y="0" type="line"/>
      <point x="97" y="226" type="line" smooth="yes"/>
      <point x="97" y="269"/>
      <point x="136" y="338"/>
      <point x="184" y="398"/>
      <point x="223" y="456"/>
      <point x="223" y="489" type="qcurve" smooth="yes"/>
      <point x="223" y="497"/>
      <point x="218" y="512"/>
      <point x="211" y="517" type="qcurve"/>
      <point x="136" y="454" type="line"/>
      <point x="20" y="558" type="line"/>
    </contour>
  </outline>
</glyph>
<glyph name="section" format="2">
  <advance width="564"/>
  <unicode hex="00A7"/>
  <unicode hex="0E07"/>
  <outline>
    <contour>
      <point x="484" y="168" type="line" smooth="yes"/>
      <point x="484" y="124"/>
      <point x="448" y="58"/>
      <point x="389" y="13"/>
      <point x="313" y="-9"/>
      <point x="274" y="-9" type="qcurve" smooth="yes"/>
      <point x="261" y="-9"/>
      <point x="249" y="3" type="qcurve" smooth="yes"/>
      <point x="20" y="228" type="line"/>
      <point x="74" y="282" type="line"/>
      <point x="291" y="67" type="line"/>
      <point x="312" y="69"/>
      <point x="354" y="83"/>
      <point x="386" y="107"/>
      <point x="406" y="144"/>
      <point x="406" y="168" type="qcurve" smooth="yes"/>
      <point x="406" y="489" type="line" smooth="yes"/>
      <point x="406" y="503"/>
      <point x="387" y="520"/>
      <point x="373" y="520" type="qcurve" smooth="yes"/>
      <point x="282" y="520" type="line"/>
      <point x="282" y="596" type="line"/>
      <point x="373" y="596" type="line" smooth="yes"/>
      <point x="396" y="596"/>
      <point x="436" y="580"/>
      <point x="466" y="552"/>
      <point x="484" y="512"/>
      <point x="484" y="489" type="qcurve" smooth="yes"/>
    </contour>
  </outline>
</glyph>
<glyph name="dieresis" format="2">
  <advance width="550"/>
  <unicode hex="00A8"/>
  <unicode hex="0E08"/>
  <outline>
    <contour>
      <point x="20" y="543" type="line"/>
      <point x="33" y="563"/>
      <point x="86" y="588"/>
      <point x="147" y="601"/>
      <point x="208" y="606"/>
      <point x="230" y="606" type="qcurve" smooth="yes"/>
      <point x="271" y="606"/>
      <point x="356" y="586"/>
      <point x="425" y="542"/>
      <point x="470" y="474"/>
      <point x="470" y="427" type="qcurve" smooth="yes"/>
      <point x="470" y="0" type="line"/>
      <point x="392" y="0" type="line"/>
      <point x="392" y="163" type="line" smooth="yes"/>
      <point x="392" y="194"/>
      <point x="358" y="234"/>
      <point x="307" y="257"/>
      <point x="248" y="266"/>
      <point x="224" y="266" type="qcurve"/>
      <point x="224" y="342" type="line"/>
      <point x="235" y="342" type="line" smooth="yes"/>
      <point x="278" y="342"/>
      <point x="359" y="321"/>
      <point x="392" y="293" type="qcurve"/>
      <point x="392" y="427" type="line" smooth="yes"/>
      <point x="392" y="457"/>
      <point x="359" y="497"/>
      <point x="309" y="520"/>
      <point x="253" y="530"/>
      <point x="229" y="530" type="qcurve" smooth="yes"/>
      <point x="201" y="530"/>
      <point x="135" y="524"/>
      <point x="109" y="513" type="qcurve" smooth="yes"/>
      <point x="98" y="508"/>
      <point x="83" y="496"/>
      <point x="74" y="489" type="qcurve"/>
    </contour>
  </outline>
</glyph>
<glyph name="copyright" format="2">
  <advance width="828"/>
  <unicode hex="00A9"/>
  <unicode hex="012A"/>
  <outline>
    <contour>
      <point x="14" y="389" type="qcurve" smooth="yes"/>
      <point x="14" y="469"/>
      <point x="78" y="610"/>
      <point x="186" y="715"/>
      <point x="329" y="776"/>
      <point x="408" y="776" type="qcurve" smooth="yes"/>
      <point x="488" y="776"/>
      <point x="633" y="716"/>
      <point x="742" y="611"/>
      <point x="807" y="470"/>
      <point x="807" y="389" type="qcurve" smooth="yes"/>
      <point x="807" y="307"/>
      <point x="745" y="164"/>
      <point x="638" y="57"/>
      <point x="494" y="-5"/>
      <point x="412" y="-5" type="qcurve" smooth="yes"/>
      <point x="329" y="-5"/>
      <point x="184" y="55"/>
      <point x="76" y="161"/>
      <point x="14" y="305"/>
    </contour>
    <contour>
      <point x="90" y="380" type="qcurve" smooth="yes"/>
      <point x="90" y="316"/>
      <point x="143" y="203"/>
      <point x="231" y="119"/>
      <point x="347" y="70"/>
      <point x="410" y="70" type="qcurve" smooth="yes"/>
      <point x="474" y="70"/>
      <point x="590" y="118"/>
      <point x="678" y="202"/>
      <point x="730" y="316"/>
      <point x="730" y="381" type="qcurve" smooth="yes"/>
      <point x="730" y="447"/>
      <point x="681" y="563"/>
      <point x="595" y="650"/>
      <point x="480" y="700"/>
      <point x="414" y="700" type="qcurve" smooth="yes"/>
      <point x="346" y="700"/>
      <point x="228" y="651"/>
      <point x="140" y="565"/>
      <point x="90" y="448"/>
    </contour>
    <contour>
      <point x="306" y="437" type="line"/>
      <point x="306" y="340" type="line" smooth="yes"/>
      <point x="306" y="319"/>
      <point x="329" y="290"/>
      <point x="364" y="274"/>
      <point x="404" y="267"/>
      <point x="420" y="267" type="qcurve" smooth="yes"/>
      <point x="454" y="267"/>
      <point x="508" y="284"/>
      <point x="530" y="312" type="qcurve"/>
      <point x="590" y="269" type="line"/>
      <point x="559" y="227"/>
      <point x="477" y="191"/>
      <point x="426" y="191" type="qcurve" smooth="yes"/>
      <point x="392" y="191"/>
      <point x="322" y="208"/>
      <point x="265" y="244"/>
      <point x="229" y="301"/>
      <point x="229" y="340" type="qcurve" smooth="yes"/>
      <point x="229" y="430" type="line" smooth="yes"/>
      <point x="229" y="471"/>
      <point x="266" y="527"/>
      <point x="325" y="563"/>
      <point x="396" y="579"/>
      <point x="430" y="579" type="qcurve" smooth="yes"/>
      <point x="483" y="579"/>
      <point x="559" y="543"/>
      <point x="591" y="501" type="qcurve"/>
      <point x="530" y="458" type="line"/>
      <point x="526" y="462" type="line" smooth="yes"/>
      <point x="514" y="476"/>
      <point x="491" y="492"/>
      <point x="467" y="500"/>
      <point x="439" y="503"/>
      <point x="421" y="503" type="qcurve" smooth="yes"/>
      <point x="399" y="503"/>
      <point x="366" y="498"/>
      <point x="339" y="485"/>
      <point x="318" y="460"/>
      <point x="308" y="440" type="qcurve" smooth="yes"/>
    </contour>
  </outline>
</glyph>
<glyph name="ordfeminine" format="2">
  <advance width="570"/>
  <unicode hex="00AA"/>
  <unicode hex="0E0A"/>
  <outline>
    <contour>
      <point x="50" y="596" type="line"/>
      <point x="161" y="596" type="line" smooth="yes"/>
      <point x="209" y="596"/>
      <point x="270" y="536"/>
      <point x="270" y="488" type="qcurve" smooth="yes"/>
      <point x="270" y="452"/>
      <point x="243" y="396"/>
      <point x="207" y="345"/>
      <point x="169" y="294"/>
      <point x="158" y="263" type="qcurve" smooth="yes"/>
      <point x="150" y="240"/>
      <point x="146" y="192"/>
      <point x="146" y="168" type="qcurve" smooth="yes"/>
      <point x="146" y="142"/>
      <point x="170" y="103"/>
      <point x="208" y="78"/>
      <point x="255" y="66"/>
      <point x="278" y="66" type="qcurve" smooth="yes"/>
      <point x="302" y="66"/>
      <point x="348" y="78"/>
      <point x="384" y="103"/>
      <point x="406" y="141"/>
      <point x="406" y="168" type="qcurve" smooth="yes"/>
      <point x="406" y="322" type="line" smooth="yes"/>
      <point x="406" y="341"/>
      <point x="395" y="378"/>
      <point x="382" y="392" type="qcurve" smooth="yes"/>
      <point x="296" y="489" type="line"/>
      <point x="462" y="663" type="line"/>
      <point x="518" y="613" type="line"/>
      <point x="399" y="489" type="line"/>
      <point x="416" y="470"/>
      <point x="447" y="434"/>
      <point x="470" y="395"/>
      <point x="484" y="350"/>
      <point x="484" y="323" type="qcurve" smooth="yes"/>
      <point x="484" y="168" type="line" smooth="yes"/>
      <point x="484" y="126"/>
      <point x="449" y="59"/>
      <point x="390" y="14"/>
      <point x="316" y="-10"/>
      <point x="277" y="-10" type="qcurve" smooth="yes"/>
      <point x="244" y="-10"/>
      <point x="175" y="9"/>
      <point x="118" y="47"/>
      <point x="78" y="102"/>
      <point x="73" y="138" type="qcurve" smooth="yes"/>
      <point x="71" y="158"/>
      <point x="70" y="198"/>
      <point x="70" y="218" type="qcurve" smooth="yes"/>
      <point x="70" y="263"/>
      <point x="109" y="336"/>
      <point x="155" y="399"/>
      <point x="194" y="458"/>
      <point x="194" y="489" type="qcurve" smooth="yes"/>
      <point x="194" y="503"/>
      <point x="175" y="520"/>
      <point x="161" y="520" type="qcurve" smooth="yes"/>
      <point x="50" y="520" type="line"/>
    </contour>
  </outline>
</glyph>
<glyph name="guillemotleft" format="2">
  <advance width="577"/>
  <unicode hex="00AB"/>
  <unicode hex="0E0B"/>
  <outline>
    <contour>
      <point x="415" y="322" type="line" smooth="yes"/>
      <point x="415" y="344"/>
      <point x="403" y="375"/>
      <point x="389" y="392" type="qcurve" smooth="yes"/>
      <point x="305" y="489" type="line"/>
      <point x="471" y="663" type="line"/>
      <point x="525" y="613" type="line"/>
      <point x="407" y="489" type="line"/>
      <point x="426" y="468"/>
      <point x="457" y="434"/>
      <point x="479" y="396"/>
      <point x="491" y="353"/>
      <point x="491" y="323" type="qcurve" smooth="yes"/>
      <point x="491" y="168" type="line" smooth="yes"/>
      <point x="491" y="126"/>
      <point x="456" y="59"/>
      <point x="399" y="14"/>
      <point x="325" y="-10"/>
      <point x="286" y="-10" type="qcurve" smooth="yes"/>
      <point x="253" y="-10"/>
      <point x="184" y="9"/>
      <point x="125" y="46"/>
      <point x="85" y="101"/>
      <point x="80" y="138" type="qcurve" smooth="yes"/>
      <point x="78" y="158"/>
      <point x="77" y="198"/>
      <point x="77" y="218" type="qcurve" smooth="yes"/>
      <point x="77" y="263"/>
      <point x="116" y="336"/>
      <point x="164" y="399"/>
      <point x="203" y="458"/>
      <point x="203" y="489" type="qcurve" smooth="yes"/>
      <point x="203" y="497"/>
      <point x="198" y="512"/>
      <point x="191" y="517" type="qcurve"/>
      <point x="116" y="454" type="line"/>
      <point x="0" y="558" type="line"/>
      <point x="56" y="610" type="line"/>
      <point x="116" y="549" type="line"/>
      <point x="162" y="596" type="line"/>
      <point x="168" y="596" type="line" smooth="yes"/>
      <point x="218" y="596"/>
      <point x="279" y="539"/>
      <point x="279" y="488" type="qcurve" smooth="yes"/>
      <point x="279" y="448"/>
      <point x="245" y="384"/>
      <point x="203" y="327"/>
      <point x="164" y="273"/>
      <point x="159" y="243" type="qcurve" smooth="yes"/>
      <point x="155" y="224"/>
      <point x="155" y="187"/>
      <point x="155" y="168" type="qcurve" smooth="yes"/>
      <point x="155" y="142"/>
      <point x="179" y="103"/>
      <point x="217" y="78"/>
      <point x="264" y="66"/>
      <point x="287" y="66" type="qcurve" smooth="yes"/>
      <point x="310" y="66"/>
      <point x="356" y="78"/>
      <point x="392" y="103"/>
      <point x="415" y="141"/>
      <point x="415" y="168" type="qcurve" smooth="yes"/>
    </contour>
  </outline>
</glyph>
<glyph name="logicalnot" format="2">
  <advance width="911"/>
  <unicode hex="00AC"/>
  <unicode hex="0E0C"/>
  <outline>
    <contour>
      <point x="80" y="107" type="qcurve" smooth="yes"/>
      <point x="80" y="496" type="line" smooth="yes"/>
      <point x="80" y="529"/>
      <point x="123" y="571"/>
      <point x="185" y="596"/>
      <point x="253" y="606"/>
      <point x="278" y="606" type="qcurve" smooth="yes"/>
      <point x="319" y="606"/>
      <point x="397" y="584"/>
      <point x="457" y="539"/>
      <point x="494" y="471"/>
      <point x="494" y="426" type="qcurve" smooth="yes"/>
      <point x="494" y="255" type="line" smooth="yes"/>
      <point x="494" y="220"/>
      <point x="513" y="152"/>
      <point x="552" y="99"/>
      <point x="611" y="66"/>
      <point x="650" y="66" type="qcurve" smooth="yes"/>
      <point x="697" y="66"/>
      <point x="754" y="119"/>
      <point x="754" y="167" type="qcurve" smooth="yes"/>
      <point x="754" y="596" type="line"/>
      <point x="831" y="596" type="line"/>
      <point x="831" y="167" type="line" smooth="yes"/>
      <point x="831" y="129"/>
      <point x="803" y="64"/>
      <point x="755" y="17"/>
      <point x="689" y="-10"/>
      <point x="651" y="-10" type="qcurve" smooth="yes"/>
      <point x="603" y="-10"/>
      <point x="522" y="25"/>
      <point x="490" y="62" type="qcurve"/>
      <point x="482" y="0" type="line"/>
      <point x="418" y="0" type="line"/>
      <point x="418" y="426" type="line" smooth="yes"/>
      <point x="418" y="453"/>
      <point x="393" y="493"/>
      <point x="353" y="518"/>
      <point x="305" y="530"/>
      <point x="281" y="530" type="qcurve" smooth="yes"/>
      <point x="273" y="530"/>
      <point x="232" y="527"/>
      <point x="190" y="519"/>
      <point x="157" y="506"/>
      <point x="157" y="495" type="qcurve" smooth="yes"/>
      <point x="157" y="107" type="line" smooth="yes"/>
      <point x="157" y="86"/>
      <point x="199" y="73"/>
      <point x="224" y="73" type="qcurve" smooth="yes"/>
      <point x="241" y="73"/>
      <point x="273" y="76"/>
      <point x="282" y="76" type="qcurve"/>
      <point x="282" y="0" type="line"/>
      <point x="189" y="0" type="line" smooth="yes"/>
      <point x="167" y="0"/>
      <point x="127" y="17"/>
      <point x="97" y="45"/>
      <point x="80" y="85"/>
    </contour>
  </outline>
</glyph>
<glyph name="uni00AD" format="2">
  <advance width="915"/>
  <unicode hex="00AD"/>
  <unicode hex="00DE"/>
  <unicode hex="0E0D"/>
  <outline>
    <contour>
      <point x="831" y="168" type="line" smooth="yes"/>
      <point x="831" y="125"/>
      <point x="796" y="59"/>
      <point x="739" y="14"/>
      <point x="664" y="-10"/>
      <point x="625" y="-10" type="qcurve" smooth="yes"/>
      <point x="586" y="-10"/>
      <point x="512" y="14"/>
      <point x="454" y="60"/>
      <point x="418" y="126"/>
      <point x="418" y="168" type="qcurve" smooth="yes"/>
      <point x="418" y="426" type="line" smooth="yes"/>
      <point x="418" y="453"/>
      <point x="393" y="493"/>
      <point x="353" y="518"/>
      <point x="305" y="530"/>
      <point x="281" y="530" type="qcurve" smooth="yes"/>
      <point x="274" y="530"/>
      <point x="233" y="527"/>
      <point x="190" y="519"/>
      <point x="157" y="506"/>
      <point x="157" y="495" type="qcurve" smooth="yes"/>
      <point x="157" y="107" type="line" smooth="yes"/>
      <point x="157" y="95"/>
      <point x="168" y="81"/>
      <point x="185" y="74"/>
      <point x="205" y="73"/>
      <point x="215" y="73" type="qcurve" smooth="yes"/>
      <point x="232" y="73"/>
      <point x="265" y="76"/>
      <point x="282" y="76" type="qcurve"/>
      <point x="282" y="0" type="line"/>
      <point x="189" y="0" type="line" smooth="yes"/>
      <point x="167" y="0"/>
      <point x="127" y="17"/>
      <point x="97" y="45"/>
      <point x="80" y="85"/>
      <point x="80" y="107" type="qcurve" smooth="yes"/>
      <point x="80" y="496" type="line" smooth="yes"/>
      <point x="80" y="529"/>
      <point x="123" y="572"/>
      <point x="185" y="596"/>
      <point x="254" y="606"/>
      <point x="279" y="606" type="qcurve" smooth="yes"/>
      <point x="320" y="606"/>
      <point x="397" y="584"/>
      <point x="457" y="539"/>
      <point x="494" y="471"/>
      <point x="494" y="426" type="qcurve" smooth="yes"/>
      <point x="494" y="168" type="line" smooth="yes"/>
      <point x="494" y="142"/>
      <point x="517" y="103"/>
      <point x="554" y="78"/>
      <point x="601" y="66"/>
      <point x="624" y="66" type="qcurve" smooth="yes"/>
      <point x="647" y="66"/>
      <point x="693" y="78"/>
      <point x="731" y="103"/>
      <point x="754" y="142"/>
      <point x="754" y="168" type="qcurve" smooth="yes"/>
      <point x="754" y="596" type="line"/>
      <point x="831" y="596" type="line"/>
    </contour>
    <contour>
      <point x="835" y="-100" type="line"/>
      <point x="803" y="-142"/>
      <point x="716" y="-176"/>
      <point x="664" y="-176" type="qcurve" smooth="yes"/>
      <point x="484" y="-176" type="line"/>
      <point x="484" y="-100" type="line"/>
      <point x="664" y="-100" type="line" smooth="yes"/>
      <point x="684" y="-100"/>
      <point x="714" y="-95"/>
      <point x="739" y="-84"/>
      <point x="763" y="-66"/>
      <point x="777" y="-52" type="qcurve"/>
    </contour>
  </outline>
</glyph>
<glyph name="registered" format="2">
  <advance width="827"/>
  <unicode hex="00AE"/>
  <unicode hex="012B"/>
  <outline>
    <contour>
      <point x="14" y="391" type="qcurve" smooth="yes"/>
      <point x="14" y="473"/>
      <point x="77" y="615"/>
      <point x="186" y="721"/>
      <point x="330" y="782"/>
      <point x="411" y="782" type="qcurve" smooth="yes"/>
      <point x="492" y="782"/>
      <point x="636" y="721"/>
      <point x="745" y="615"/>
      <point x="808" y="473"/>
      <point x="808" y="391" type="qcurve" smooth="yes"/>
      <point x="808" y="309"/>
      <point x="745" y="167"/>
      <point x="636" y="61"/>
      <point x="492" y="0"/>
      <point x="411" y="0" type="qcurve" smooth="yes"/>
      <point x="330" y="0"/>
      <point x="186" y="61"/>
      <point x="77" y="167"/>
      <point x="14" y="309"/>
    </contour>
    <contour>
      <point x="411" y="76" type="qcurve" smooth="yes"/>
      <point x="477" y="76"/>
      <point x="594" y="124"/>
      <point x="681" y="209"/>
      <point x="732" y="324"/>
      <point x="732" y="391" type="qcurve" smooth="yes"/>
      <point x="732" y="457"/>
      <point x="680" y="571"/>
      <point x="592" y="657"/>
      <point x="476" y="706"/>
      <point x="411" y="706" type="qcurve" smooth="yes"/>
      <point x="346" y="706"/>
      <point x="229" y="657"/>
      <point x="142" y="571"/>
      <point x="91" y="457"/>
      <point x="91" y="391" type="qcurve" smooth="yes"/>
      <point x="91" y="325"/>
      <point x="142" y="210"/>
      <point x="229" y="125"/>
      <point x="345" y="76"/>
    </contour>
    <contour>
      <point x="274" y="582" type="line"/>
      <point x="467" y="582" type="line" smooth="yes"/>
      <point x="491" y="582"/>
      <point x="531" y="564"/>
      <point x="559" y="533"/>
      <point x="575" y="491"/>
      <point x="575" y="468" type="qcurve" smooth="yes"/>
      <point x="575" y="440"/>
      <point x="555" y="393"/>
      <point x="532" y="376" type="qcurve"/>
      <point x="606" y="214" type="line"/>
      <point x="521" y="214" type="line"/>
      <point x="460" y="353" type="line"/>
      <point x="352" y="353" type="line"/>
      <point x="352" y="214" type="line"/>
      <point x="274" y="214" type="line"/>
    </contour>
    <contour>
      <point x="352" y="429" type="line"/>
      <point x="469" y="429" type="line" smooth="yes"/>
      <point x="484" y="429"/>
      <point x="498" y="454"/>
      <point x="498" y="468" type="qcurve" smooth="yes"/>
      <point x="498" y="482"/>
      <point x="485" y="506"/>
      <point x="468" y="506" type="qcurve" smooth="yes"/>
      <point x="352" y="506" type="line"/>
    </contour>
  </outline>
</glyph>
<glyph name="macron" format="2">
  <advance width="631"/>
  <unicode hex="00AF"/>
  <unicode hex="0E0F"/>
  <outline>
    <contour>
      <point x="31" y="76" type="line"/>
      <point x="39" y="76"/>
      <point x="57" y="75"/>
      <point x="65" y="75" type="qcurve" smooth="yes"/>
      <point x="73" y="75"/>
      <point x="85" y="81"/>
      <point x="85" y="89" type="qcurve" smooth="yes"/>
      <point x="85" y="497" type="line" smooth="yes"/>
      <point x="85" y="532"/>
      <point x="138" y="575"/>
      <point x="212" y="598"/>
      <point x="291" y="605"/>
      <point x="316" y="605" type="qcurve" smooth="yes"/>
      <point x="357" y="605"/>
      <point x="440" y="584"/>
      <point x="508" y="541"/>
      <point x="551" y="473"/>
      <point x="551" y="426" type="qcurve" smooth="yes"/>
      <point x="551" y="-17" type="line" smooth="yes"/>
      <point x="551" y="-49"/>
      <point x="529" y="-100"/>
      <point x="491" y="-140"/>
      <point x="443" y="-170"/>
      <point x="416" y="-182" type="qcurve"/>
      <point x="318" y="-83" type="line"/>
      <point x="229" y="-176" type="line"/>
      <point x="85" y="-176" type="line"/>
      <point x="85" y="-100" type="line"/>
      <point x="197" y="-100" type="line"/>
      <point x="318" y="11" type="line"/>
      <point x="429" y="-91" type="line"/>
      <point x="448" y="-77"/>
      <point x="475" y="-40"/>
      <point x="475" y="-16" type="qcurve" smooth="yes"/>
      <point x="475" y="426" type="line" smooth="yes"/>
      <point x="475" y="457"/>
      <point x="440" y="497"/>
      <point x="388" y="520"/>
      <point x="329" y="529"/>
      <point x="305" y="529" type="qcurve" smooth="yes"/>
      <point x="298" y="529"/>
      <point x="251" y="525"/>
      <point x="201" y="516"/>
      <point x="161" y="503"/>
      <point x="161" y="494" type="qcurve" smooth="yes"/>
      <point x="161" y="89" type="line" smooth="yes"/>
      <point x="161" y="59"/>
      <point x="139" y="23"/>
      <point x="102" y="5"/>
      <point x="55" y="0"/>
      <point x="31" y="0" type="qcurve"/>
    </contour>
  </outline>
</glyph>
<glyph name="degree" format="2">
  <advance width="557"/>
  <unicode hex="00B0"/>
  <unicode hex="0E10"/>
  <outline>
    <contour>
      <point x="231" y="606" type="qcurve" smooth="yes"/>
      <point x="273" y="606"/>
      <point x="354" y="589"/>
      <point x="389" y="565" type="qcurve"/>
      <point x="391" y="575"/>
      <point x="392" y="595"/>
      <point x="392" y="605" type="qcurve"/>
      <point x="470" y="605" type="line"/>
      <point x="470" y="593" type="line" smooth="yes"/>
      <point x="470" y="570"/>
      <point x="459" y="527"/>
      <point x="445" y="507" type="qcurve"/>
      <point x="470" y="470"/>
      <point x="470" y="426" type="qcurve" smooth="yes"/>
      <point x="470" y="0" type="line"/>
      <point x="392" y="0" type="line"/>
      <point x="392" y="163" type="line" smooth="yes"/>
      <point x="392" y="195"/>
      <point x="358" y="235"/>
      <point x="307" y="257"/>
      <point x="248" y="266"/>
      <point x="224" y="266" type="qcurve"/>
      <point x="224" y="342" type="line"/>
      <point x="235" y="342" type="line" smooth="yes"/>
      <point x="277" y="342"/>
      <point x="357" y="323"/>
      <point x="392" y="300" type="qcurve"/>
      <point x="392" y="426" type="line" smooth="yes"/>
      <point x="392" y="456"/>
      <point x="359" y="496"/>
      <point x="310" y="520"/>
      <point x="253" y="530"/>
      <point x="229" y="530" type="qcurve" smooth="yes"/>
      <point x="210" y="530"/>
      <point x="168" y="528"/>
      <point x="126" y="520"/>
      <point x="88" y="503"/>
      <point x="74" y="489" type="qcurve"/>
      <point x="20" y="542" type="line"/>
      <point x="40" y="562"/>
      <point x="91" y="587"/>
      <point x="146" y="601"/>
      <point x="204" y="606"/>
    </contour>
    <contour>
      <point x="88" y="-100" type="line"/>
      <point x="148" y="-100" type="line"/>
      <point x="268" y="11" type="line"/>
      <point x="381" y="-93" type="line"/>
      <point x="390" y="-88"/>
      <point x="407" y="-69"/>
      <point x="415" y="-61" type="qcurve"/>
      <point x="474" y="-108" type="line"/>
      <point x="465" y="-120"/>
      <point x="440" y="-143"/>
      <point x="411" y="-163"/>
      <point x="380" y="-179"/>
      <point x="366" y="-182" type="qcurve"/>
      <point x="268" y="-83" type="line"/>
      <point x="179" y="-176" type="line"/>
      <point x="88" y="-176" type="line"/>
    </contour>
  </outline>
</glyph>
<glyph name="plusminus" format="2">
  <advance width="702"/>
  <unicode hex="00B1"/>
  <unicode hex="0E11"/>
  <outline>
    <contour>
      <point x="76" y="610" type="line"/>
      <point x="136" y="550" type="line"/>
      <point x="182" y="596" type="line"/>
      <point x="188" y="596" type="line" smooth="yes"/>
      <point x="223" y="596"/>
      <point x="275" y="566"/>
      <point x="287" y="531" type="qcurve"/>
      <point x="313" y="565"/>
      <point x="376" y="606"/>
      <point x="421" y="606" type="qcurve" smooth="yes"/>
      <point x="459" y="606"/>
      <point x="531" y="580"/>
      <point x="587" y="532"/>
      <point x="622" y="466"/>
      <point x="622" y="426" type="qcurve" smooth="yes"/>
      <point x="622" y="0" type="line"/>
      <point x="544" y="0" type="line"/>
      <point x="544" y="407" type="line" smooth="yes"/>
      <point x="544" y="465"/>
      <point x="479" y="530"/>
      <point x="421" y="530" type="qcurve" smooth="yes"/>
      <point x="409" y="530"/>
      <point x="386" y="525"/>
      <point x="377" y="517" type="qcurve" smooth="yes"/>
      <point x="367" y="509"/>
      <point x="330" y="457"/>
      <point x="290" y="395"/>
      <point x="255" y="337"/>
      <point x="248" y="324" type="qcurve" smooth="yes"/>
      <point x="236" y="299"/>
      <point x="234" y="273" type="qcurve" smooth="yes"/>
      <point x="227" y="204"/>
      <point x="231" y="68"/>
      <point x="231" y="0" type="qcurve"/>
      <point x="154" y="0" type="line"/>
      <point x="154" y="218" type="line" smooth="yes"/>
      <point x="154" y="255"/>
      <point x="165" y="323"/>
      <point x="181" y="357" type="qcurve" smooth="yes"/>
      <point x="195" y="386"/>
      <point x="224" y="441"/>
      <point x="224" y="474" type="qcurve" smooth="yes"/>
      <point x="224" y="485"/>
      <point x="220" y="509"/>
      <point x="211" y="517" type="qcurve"/>
      <point x="136" y="454" type="line"/>
      <point x="20" y="558" type="line"/>
    </contour>
  </outline>
</glyph>
<glyph name="twosuperior" format="2">
  <advance width="911"/>
  <unicode hex="00B2"/>
  <unicode hex="0E12"/>
  <outline>
    <contour>
      <point x="80" y="442" type="line" smooth="yes"/>
      <point x="80" y="479"/>
      <point x="116" y="546"/>
      <point x="145" y="569" type="qcurve" smooth="yes"/>
      <point x="160" y="582"/>
      <point x="196" y="599"/>
      <point x="214" y="608" type="qcurve"/>
      <point x="287" y="544" type="line"/>
      <point x="360" y="608" type="line"/>
      <point x="386" y="597"/>
      <point x="435" y="566"/>
      <point x="472" y="525"/>
      <point x="494" y="474"/>
      <point x="494" y="442" type="qcurve" smooth="yes"/>
      <point x="494" y="256" type="line" smooth="yes"/>
      <point x="494" y="221"/>
      <point x="513" y="153"/>
      <point x="552" y="99"/>
      <point x="611" y="66"/>
      <point x="650" y="66" type="qcurve" smooth="yes"/>
      <point x="697" y="66"/>
      <point x="754" y="120"/>
      <point x="754" y="168" type="qcurve" smooth="yes"/>
      <point x="754" y="596" type="line"/>
      <point x="831" y="596" type="line"/>
      <point x="831" y="168" type="line" smooth="yes"/>
      <point x="831" y="130"/>
      <point x="803" y="65"/>
      <point x="753" y="17"/>
      <point x="687" y="-10"/>
      <point x="649" y="-10" type="qcurve" smooth="yes"/>
      <point x="602" y="-10"/>
      <point x="520" y="27"/>
      <point x="490" y="63" type="qcurve"/>
      <point x="482" y="0" type="line"/>
      <point x="418" y="0" type="line"/>
      <point x="418" y="441" type="line" smooth="yes"/>
      <point x="418" y="465"/>
      <point x="392" y="504"/>
      <point x="373" y="518" type="qcurve"/>
      <point x="287" y="442" type="line"/>
      <point x="201" y="518" type="line"/>
      <point x="182" y="504"/>
      <point x="157" y="465"/>
      <point x="157" y="441" type="qcurve" smooth="yes"/>
      <point x="157" y="152" type="line" smooth="yes"/>
      <point x="157" y="136"/>
      <point x="165" y="105"/>
      <point x="182" y="81"/>
      <point x="208" y="66"/>
      <point x="226" y="66" type="qcurve" smooth="yes"/>
      <point x="253" y="66"/>
      <point x="293" y="87"/>
      <point x="312" y="106" type="qcurve"/>
      <point x="366" y="54" type="line"/>
      <point x="336" y="25"/>
      <point x="269" y="-10"/>
      <point x="226" y="-10" type="qcurve" smooth="yes"/>
      <point x="191" y="-10"/>
      <point x="137" y="16"/>
      <point x="99" y="60"/>
      <point x="80" y="119"/>
      <point x="80" y="152" type="qcurve" smooth="yes"/>
    </contour>
  </outline>
</glyph>
<glyph name="threesuperior" format="2">
  <advance width="910"/>
  <unicode hex="00B3"/>
  <unicode hex="0E13"/>
  <outline>
    <contour>
      <point x="80" y="496" type="line" smooth="yes"/>
      <point x="80" y="529"/>
      <point x="123" y="571"/>
      <point x="185" y="596"/>
      <point x="253" y="606"/>
      <point x="278" y="606" type="qcurve" smooth="yes"/>
      <point x="319" y="606"/>
      <point x="397" y="584"/>
      <point x="457" y="539"/>
      <point x="494" y="471"/>
      <point x="494" y="426" type="qcurve" smooth="yes"/>
      <point x="494" y="168" type="line" smooth="yes"/>
      <point x="494" y="120"/>
      <point x="551" y="66"/>
      <point x="598" y="66" type="qcurve" smooth="yes"/>
      <point x="639" y="66"/>
      <point x="698" y="98"/>
      <point x="735" y="151"/>
      <point x="753" y="220"/>
      <point x="753" y="256" type="qcurve" smooth="yes"/>
      <point x="753" y="596" type="line"/>
      <point x="830" y="596" type="line"/>
      <point x="830" y="1" type="line"/>
      <point x="765" y="1" type="line"/>
      <point x="757" y="63" type="line"/>
      <point x="727" y="28"/>
      <point x="647" y="-10"/>
      <point x="601" y="-10" type="qcurve" smooth="yes"/>
      <point x="564" y="-10"/>
      <point x="497" y="17"/>
      <point x="447" y="65"/>
      <point x="418" y="130"/>
      <point x="418" y="168" type="qcurve" smooth="yes"/>
      <point x="418" y="426" type="line" smooth="yes"/>
      <point x="418" y="454"/>
      <point x="393" y="493"/>
      <point x="354" y="518"/>
      <point x="305" y="530"/>
      <point x="281" y="530" type="qcurve" smooth="yes"/>
      <point x="274" y="530"/>
      <point x="233" y="527"/>
      <point x="190" y="519"/>
      <point x="157" y="506"/>
      <point x="157" y="495" type="qcurve" smooth="yes"/>
      <point x="157" y="107" type="line" smooth="yes"/>
      <point x="157" y="86"/>
      <point x="199" y="73"/>
      <point x="224" y="73" type="qcurve" smooth="yes"/>
      <point x="241" y="73"/>
      <point x="273" y="76"/>
      <point x="282" y="76" type="qcurve"/>
      <point x="282" y="0" type="line"/>
      <point x="189" y="0" type="line" smooth="yes"/>
      <point x="167" y="0"/>
      <point x="127" y="17"/>
      <point x="97" y="45"/>
      <point x="80" y="85"/>
      <point x="80" y="107" type="qcurve" smooth="yes"/>
    </contour>
  </outline>
</glyph>
<glyph name="acute" format="2">
  <advance width="627"/>
  <unicode hex="00B4"/>
  <unicode hex="0E14"/>
  <outline>
    <contour>
      <point x="547" y="0" type="line"/>
      <point x="470" y="0" type="line"/>
      <point x="470" y="427" type="line" smooth="yes"/>
      <point x="470" y="457"/>
      <point x="439" y="496"/>
      <point x="392" y="520"/>
      <point x="337" y="530"/>
      <point x="313" y="530" type="qcurve" smooth="yes"/>
      <point x="243" y="530"/>
      <point x="167" y="478"/>
      <point x="155" y="406" type="qcurve" smooth="yes"/>
      <point x="148" y="364"/>
      <point x="146" y="280"/>
      <point x="146" y="238" type="qcurve" smooth="yes"/>
      <point x="146" y="217"/>
      <point x="149" y="158"/>
      <point x="164" y="104"/>
      <point x="196" y="66"/>
      <point x="226" y="66" type="qcurve" smooth="yes"/>
      <point x="252" y="66"/>
      <point x="295" y="88"/>
      <point x="312" y="106" type="qcurve"/>
      <point x="366" y="54" type="line"/>
      <point x="338" y="26"/>
      <point x="266" y="-10"/>
      <point x="225" y="-10" type="qcurve" smooth="yes"/>
      <point x="168" y="-10"/>
      <point x="105" y="46"/>
      <point x="75" y="130"/>
      <point x="69" y="228"/>
      <point x="69" y="270" type="qcurve" smooth="yes"/>
      <point x="69" y="339"/>
      <point x="83" y="461"/>
      <point x="133" y="552"/>
      <point x="230" y="606"/>
      <point x="313" y="606" type="qcurve" smooth="yes"/>
      <point x="353" y="606"/>
      <point x="436" y="584"/>
      <point x="504" y="540"/>
      <point x="547" y="473"/>
      <point x="547" y="427" type="qcurve" smooth="yes"/>
    </contour>
  </outline>
</glyph>
<glyph name="uni00B5" format="2">
  <advance width="627"/>
  <unicode hex="00B5"/>
  <unicode hex="0E15"/>
  <outline>
    <contour>
      <point x="313" y="518" type="line"/>
      <point x="412" y="608" type="line"/>
      <point x="438" y="597"/>
      <point x="487" y="566"/>
      <point x="525" y="525"/>
      <point x="547" y="474"/>
      <point x="547" y="443" type="qcurve" smooth="yes"/>
      <point x="547" y="0" type="line"/>
      <point x="470" y="0" type="line"/>
      <point x="470" y="441" type="line" smooth="yes"/>
      <point x="470" y="465"/>
      <point x="442" y="503"/>
      <point x="423" y="517" type="qcurve"/>
      <point x="313" y="425" type="line"/>
      <point x="202" y="517" type="line"/>
      <point x="177" y="499"/>
      <point x="152" y="437"/>
      <point x="141" y="367"/>
      <point x="141" y="296"/>
      <point x="141" y="268" type="qcurve" smooth="yes"/>
      <point x="141" y="247"/>
      <point x="145" y="179"/>
      <point x="161" y="114"/>
      <point x="195" y="67"/>
      <point x="225" y="67" type="qcurve" smooth="yes"/>
      <point x="251" y="67"/>
      <point x="294" y="88"/>
      <point x="312" y="106" type="qcurve"/>
      <point x="366" y="54" type="line"/>
      <point x="338" y="26"/>
      <point x="267" y="-9"/>
      <point x="226" y="-9" type="qcurve" smooth="yes"/>
      <point x="167" y="-9"/>
      <point x="102" y="50"/>
      <point x="71" y="139"/>
      <point x="65" y="241"/>
      <point x="65" y="284" type="qcurve" smooth="yes"/>
      <point x="65" y="320"/>
      <point x="68" y="400"/>
      <point x="84" y="477"/>
      <point x="118" y="546"/>
      <point x="149" y="570" type="qcurve" smooth="yes"/>
      <point x="164" y="581"/>
      <point x="197" y="600"/>
      <point x="214" y="608" type="qcurve"/>
    </contour>
  </outline>
</glyph>
<glyph name="paragraph" format="2">
  <advance width="628"/>
  <unicode hex="00B6"/>
  <unicode hex="0E16"/>
  <outline>
    <contour>
      <point x="310" y="606" type="qcurve" smooth="yes"/>
      <point x="350" y="606"/>
      <point x="435" y="585"/>
      <point x="504" y="542"/>
      <point x="548" y="474"/>
      <point x="548" y="427" type="qcurve" smooth="yes"/>
      <point x="548" y="0" type="line"/>
      <point x="470" y="0" type="line"/>
      <point x="470" y="427" type="line" smooth="yes"/>
      <point x="470" y="457"/>
      <point x="436" y="497"/>
      <point x="386" y="520"/>
      <point x="329" y="530"/>
      <point x="305" y="530" type="qcurve" smooth="yes"/>
      <point x="298" y="530"/>
      <point x="249" y="526"/>
      <point x="198" y="518"/>
      <point x="157" y="504"/>
      <point x="157" y="495" type="qcurve" smooth="yes"/>
      <point x="157" y="107" type="line" smooth="yes"/>
      <point x="157" y="76"/>
      <point x="189" y="76" type="qcurve" smooth="yes"/>
      <point x="300" y="76" type="line"/>
      <point x="300" y="0" type="line"/>
      <point x="189" y="0" type="line" smooth="yes"/>
      <point x="167" y="0"/>
      <point x="127" y="17"/>
      <point x="97" y="45"/>
      <point x="80" y="85"/>
      <point x="80" y="107" type="qcurve" smooth="yes"/>
      <point x="80" y="498" type="line" smooth="yes"/>
      <point x="80" y="533"/>
      <point x="133" y="576"/>
      <point x="206" y="599"/>
      <point x="285" y="606"/>
    </contour>
  </outline>
</glyph>
<glyph name="periodcentered" format="2">
  <advance width="628"/>
  <unicode hex="00B7"/>
  <unicode hex="0E17"/>
  <unicode hex="2219"/>
  <outline>
    <contour>
      <point x="80" y="0" type="line"/>
      <point x="80" y="596" type="line"/>
      <point x="146" y="596" type="line"/>
      <point x="153" y="524" type="line"/>
      <point x="188" y="565"/>
      <point x="285" y="606"/>
      <point x="339" y="606" type="qcurve" smooth="yes"/>
      <point x="378" y="606"/>
      <point x="454" y="582"/>
      <point x="512" y="536"/>
      <point x="548" y="469"/>
      <point x="548" y="426" type="qcurve" smooth="yes"/>
      <point x="548" y="0" type="line"/>
      <point x="470" y="0" type="line"/>
      <point x="470" y="426" type="line" smooth="yes"/>
      <point x="470" y="452"/>
      <point x="446" y="491"/>
      <point x="409" y="517"/>
      <point x="362" y="530"/>
      <point x="339" y="530" type="qcurve" smooth="yes"/>
      <point x="298" y="530"/>
      <point x="231" y="500"/>
      <point x="183" y="449"/>
      <point x="157" y="380"/>
      <point x="157" y="340" type="qcurve" smooth="yes"/>
      <point x="157" y="0" type="line"/>
    </contour>
  </outline>
</glyph>
<glyph name="cedilla" format="2">
  <advance width="570"/>
  <unicode hex="00B8"/>
  <unicode hex="0E18"/>
  <outline>
    <contour>
      <point x="440" y="191" type="line" smooth="yes"/>
      <point x="440" y="216"/>
      <point x="412" y="249"/>
      <point x="388" y="254" type="qcurve" smooth="yes"/>
      <point x="354" y="262"/>
      <point x="277" y="268"/>
      <point x="201" y="278"/>
      <point x="131" y="301"/>
      <point x="103" y="326" type="qcurve" smooth="yes"/>
      <point x="77" y="349"/>
      <point x="49" y="399"/>
      <point x="49" y="434" type="qcurve" smooth="yes"/>
      <point x="49" y="480"/>
      <point x="92" y="545"/>
      <point x="159" y="587"/>
      <point x="242" y="606"/>
      <point x="281" y="606" type="qcurve" smooth="yes"/>
      <point x="309" y="606"/>
      <point x="368" y="601"/>
      <point x="425" y="587"/>
      <point x="477" y="562"/>
      <point x="498" y="542" type="qcurve"/>
      <point x="444" y="488" type="line"/>
      <point x="434" y="502"/>
      <point x="392" y="519"/>
      <point x="345" y="528"/>
      <point x="298" y="530"/>
      <point x="282" y="530" type="qcurve" smooth="yes"/>
      <point x="260" y="530"/>
      <point x="206" y="521"/>
      <point x="158" y="500"/>
      <point x="126" y="463"/>
      <point x="126" y="435" type="qcurve" smooth="yes"/>
      <point x="126" y="406"/>
      <point x="164" y="370"/>
      <point x="224" y="350"/>
      <point x="298" y="341"/>
      <point x="370" y="333"/>
      <point x="433" y="322"/>
      <point x="451" y="311" type="qcurve" smooth="yes"/>
      <point x="483" y="291"/>
      <point x="518" y="228"/>
      <point x="518" y="191" type="qcurve" smooth="yes"/>
      <point x="518" y="107" type="line" smooth="yes"/>
      <point x="518" y="84"/>
      <point x="500" y="45"/>
      <point x="470" y="16"/>
      <point x="430" y="0"/>
      <point x="407" y="0" type="qcurve" smooth="yes"/>
      <point x="168" y="0" type="line" smooth="yes"/>
      <point x="146" y="0"/>
      <point x="106" y="17"/>
      <point x="76" y="45"/>
      <point x="59" y="85"/>
      <point x="59" y="107" type="qcurve" smooth="yes"/>
      <point x="59" y="257" type="line"/>
      <point x="135" y="257" type="line"/>
      <point x="135" y="107" type="line" smooth="yes"/>
      <point x="135" y="92"/>
      <point x="154" y="76"/>
      <point x="168" y="76" type="qcurve" smooth="yes"/>
      <point x="407" y="76" type="line" smooth="yes"/>
      <point x="421" y="76"/>
      <point x="440" y="92"/>
      <point x="440" y="107" type="qcurve" smooth="yes"/>
    </contour>
  </outline>
</glyph>
<glyph name="onesuperior" format="2">
  <advance width="628"/>
  <unicode hex="00B9"/>
  <unicode hex="0E19"/>
  <outline>
    <contour>
      <point x="157" y="596" type="line"/>
      <point x="157" y="167" type="line" smooth="yes"/>
      <point x="157" y="141"/>
      <point x="180" y="103"/>
      <point x="218" y="78"/>
      <point x="264" y="66"/>
      <point x="286" y="66" type="qcurve" smooth="yes"/>
      <point x="328" y="66"/>
      <point x="396" y="95"/>
      <point x="444" y="146"/>
      <point x="470" y="215"/>
      <point x="470" y="256" type="qcurve" smooth="yes"/>
      <point x="470" y="596" type="line"/>
      <point x="548" y="596" type="line"/>
      <point x="548" y="0" type="line"/>
      <point x="482" y="0" type="line"/>
      <point x="474" y="72" type="line"/>
      <point x="438" y="29"/>
      <point x="343" y="-10"/>
      <point x="287" y="-10" type="qcurve" smooth="yes"/>
      <point x="248" y="-10"/>
      <point x="174" y="14"/>
      <point x="115" y="59"/>
      <point x="80" y="125"/>
      <point x="80" y="167" type="qcurve" smooth="yes"/>
      <point x="80" y="596" type="line"/>
    </contour>
  </outline>
</glyph>
<glyph name="ordmasculine" format="2">
  <advance width="628"/>
  <unicode hex="00BA"/>
  <unicode hex="0E1A"/>
  <outline>
    <contour>
      <point x="80" y="168" type="qcurve" smooth="yes"/>
      <point x="80" y="596" type="line"/>
      <point x="157" y="596" type="line"/>
      <point x="157" y="168" type="line" smooth="yes"/>
      <point x="157" y="139"/>
      <point x="188" y="100"/>
      <point x="235" y="77"/>
      <point x="290" y="67"/>
      <point x="313" y="67" type="qcurve" smooth="yes"/>
      <point x="336" y="67"/>
      <point x="391" y="77"/>
      <point x="438" y="100"/>
      <point x="470" y="139"/>
      <point x="470" y="168" type="qcurve" smooth="yes"/>
      <point x="470" y="596" type="line"/>
      <point x="548" y="596" type="line"/>
      <point x="548" y="168" type="line" smooth="yes"/>
      <point x="548" y="122"/>
      <point x="505" y="55"/>
      <point x="438" y="11"/>
      <point x="355" y="-9"/>
      <point x="315" y="-9" type="qcurve" smooth="yes"/>
      <point x="275" y="-9"/>
      <point x="191" y="11"/>
      <point x="123" y="54"/>
      <point x="80" y="121"/>
    </contour>
  </outline>
</glyph>
